<?xml version="1.0" encoding="UTF-8"?>
<svg xmlns="http://www.w3.org/2000/svg" viewBox="0 0 89 3.5" width="12816" height="504">
  <title>sym-rail-middle-heritage</title>
  <desc>PT material slots — incised dash + appearance flow grain. Generated by build-texture-patterns.js</desc>
  <defs>
    <pattern id="pt-grain-rail" patternUnits="userSpaceOnUse" patternContentUnits="userSpaceOnUse" width="1.3125" height="3.125" patternTransform="translate(0.1875, 0.1875)">
      <rect x="0.6875" y="0.90625" width="0.625" height="0.1875" fill="#000000"/>
      <rect x="0.6875" y="2.15625" width="0.625" height="0.1875" fill="#000000"/>
      <rect x="0.03125" y="1.5" width="0.625" height="0.1875" fill="#000000"/>
      <rect x="0.03125" y="0.25" width="0.625" height="0.1875" fill="#000000"/>
      <rect x="0.03125" y="2.75" width="0.625" height="0.1875" fill="#000000"/>
    </pattern>
    <pattern id="pt-rail-grain-middle" patternUnits="userSpaceOnUse" patternContentUnits="userSpaceOnUse" width="24" height="3.125" patternTransform="translate(0.1875, 0.1875)">
      <ellipse cx="8" cy="1.0625" rx="0.375" ry="0.125" fill="#4a3018" opacity="0.98"/>
      <ellipse cx="8" cy="1.0625" rx="0.53125" ry="0.1875" fill="#553820" opacity="0.88"/>
      <ellipse cx="8" cy="1.0625" rx="0.65625" ry="0.21875" fill="#664028" opacity="0.62"/>
      <ellipse cx="8" cy="1.0625" rx="0.78125" ry="0.28125" fill="#785030" opacity="0.38"/>
      <ellipse cx="14.5625" cy="2.375" rx="0.15625" ry="0.0625" fill="#382010" opacity="1"/>
      <ellipse cx="14.5625" cy="2.375" rx="0.21875" ry="0.09375" fill="#422818" opacity="0.9"/>
      <ellipse cx="14.5625" cy="2.375" rx="0.28125" ry="0.125" fill="#503020" opacity="0.65"/>
      <ellipse cx="14.5625" cy="2.375" rx="0.34375" ry="0.15625" fill="#5e3828" opacity="0.4"/>
      <path d="M 0 0.28125 L 0.3125 0.3125 L 0.59375 0.3125 L 0.90625 0.3125 L 1.1875 0.3125 L 1.5 0.3125 L 1.8125 0.3125 L 2.09375 0.3125 L 2.40625 0.3125 L 2.6875 0.3125 L 3 0.3125 L 3.3125 0.3125 L 3.59375 0.3125 L 3.90625 0.3125 L 4.1875 0.28125 L 4.5 0.28125 L 4.8125 0.25 L 5.09375 0.25 L 5.40625 0.21875 L 5.6875 0.1875 L 6 0.125 L 6.3125 0.09375 L 6.59375 0.03125 L 6.90625 0 L 7.1875 -0.03125 L 7.5 -0.0625 L 7.8125 -0.09375 L 8.09375 -0.09375 L 8.40625 -0.09375 L 8.6875 -0.09375 L 9 -0.0625 L 9.3125 -0.03125 L 9.59375 0 L 9.90625 0.0625 L 10.1875 0.09375 L 10.5 0.15625 L 10.8125 0.1875 L 11.09375 0.21875 L 11.40625 0.25 L 11.6875 0.28125 L 12 0.28125" fill="none" stroke="#d4b078" stroke-width="0.03125" stroke-linecap="round" stroke-linejoin="round" opacity="0.62"/>
      <path d="M 0 0.625 L 0.3125 0.625 L 0.59375 0.65625 L 0.90625 0.65625 L 1.1875 0.65625 L 1.5 0.65625 L 1.8125 0.65625 L 2.09375 0.625 L 2.40625 0.625 L 2.6875 0.59375 L 3 0.59375 L 3.3125 0.5625 L 3.59375 0.5625 L 3.90625 0.53125 L 4.1875 0.5 L 4.5 0.5 L 4.8125 0.46875 L 5.09375 0.46875 L 5.40625 0.4375 L 5.6875 0.40625 L 6 0.375 L 6.3125 0.34375 L 6.59375 0.3125 L 6.90625 0.28125 L 7.1875 0.25 L 7.5 0.21875 L 7.8125 0.1875 L 8.09375 0.1875 L 8.40625 0.1875 L 8.6875 0.1875 L 9 0.21875 L 9.3125 0.25 L 9.59375 0.28125 L 9.90625 0.34375 L 10.1875 0.375 L 10.5 0.4375 L 10.8125 0.5 L 11.09375 0.53125 L 11.40625 0.5625 L 11.6875 0.59375 L 12 0.625" fill="none" stroke="#120908" stroke-width="0.03125" stroke-linecap="round" stroke-linejoin="round" opacity="0.85"/>
      <path d="M 0 0.84375 L 0.3125 0.84375 L 0.59375 0.84375 L 0.90625 0.84375 L 1.1875 0.8125 L 1.5 0.8125 L 1.8125 0.8125 L 2.09375 0.78125 L 2.40625 0.78125 L 2.6875 0.78125 L 3 0.78125 L 3.3125 0.75 L 3.59375 0.75 L 3.90625 0.75 L 4.1875 0.75 L 4.5 0.75 L 4.8125 0.71875 L 5.09375 0.71875 L 5.40625 0.6875 L 5.6875 0.65625 L 6 0.625 L 6.3125 0.59375 L 6.59375 0.5625 L 6.90625 0.53125 L 7.1875 0.5 L 7.5 0.5 L 7.8125 0.5 L 8.09375 0.5 L 8.40625 0.5 L 8.6875 0.5 L 9 0.53125 L 9.3125 0.59375 L 9.59375 0.625 L 9.90625 0.65625 L 10.1875 0.71875 L 10.5 0.75 L 10.8125 0.78125 L 11.09375 0.8125 L 11.40625 0.84375 L 11.6875 0.84375 L 12 0.84375" fill="none" stroke="#6b4f3a" stroke-width="0.03125" stroke-linecap="round" stroke-linejoin="round" opacity="0.75"/>
      <path d="M 0 1.21875 L 0.3125 1.21875 L 0.59375 1.1875 L 0.90625 1.1875 L 1.1875 1.1875 L 1.5 1.15625 L 1.8125 1.15625 L 2.09375 1.15625 L 2.40625 1.15625 L 2.6875 1.15625 L 3 1.15625 L 3.3125 1.1875 L 3.59375 1.1875 L 3.90625 1.1875 L 4.1875 1.15625 L 4.5 1.15625 L 4.8125 1.125 L 5.09375 1.125 L 5.40625 1.125 L 5.6875 1.15625 L 6 1.1875 L 6.3125 1.21875 L 6.59375 1.28125 L 6.90625 1.3125 L 7.1875 1.375 L 7.5 1.40625 L 7.8125 1.4375 L 8.09375 1.4375 L 8.40625 1.4375 L 8.6875 1.4375 L 9 1.40625 L 9.3125 1.375 L 9.59375 1.3125 L 9.90625 1.28125 L 10.1875 1.25 L 10.5 1.21875 L 10.8125 1.21875 L 11.09375 1.21875 L 11.40625 1.21875 L 11.6875 1.21875 L 12 1.21875" fill="none" stroke="#8a6548" stroke-width="0.03125" stroke-linecap="round" stroke-linejoin="round" opacity="0.7"/>
      <path d="M 0 1.46875 L 0.3125 1.46875 L 0.59375 1.46875 L 0.90625 1.46875 L 1.1875 1.4375 L 1.5 1.4375 L 1.8125 1.40625 L 2.09375 1.40625 L 2.40625 1.375 L 2.6875 1.375 L 3 1.375 L 3.3125 1.34375 L 3.59375 1.34375 L 3.90625 1.34375 L 4.1875 1.34375 L 4.5 1.375 L 4.8125 1.40625 L 5.09375 1.4375 L 5.40625 1.46875 L 5.6875 1.5 L 6 1.5625 L 6.3125 1.625 L 6.59375 1.6875 L 6.90625 1.75 L 7.1875 1.78125 L 7.5 1.8125 L 7.8125 1.84375 L 8.09375 1.84375 L 8.40625 1.84375 L 8.6875 1.8125 L 9 1.78125 L 9.3125 1.75 L 9.59375 1.71875 L 9.90625 1.65625 L 10.1875 1.625 L 10.5 1.59375 L 10.8125 1.5625 L 11.09375 1.53125 L 11.40625 1.5 L 11.6875 1.5 L 12 1.5" fill="none" stroke="#120908" stroke-width="0.03125" stroke-linecap="round" stroke-linejoin="round" opacity="0.8"/>
      <path d="M 0 1.875 L 0.3125 1.875 L 0.59375 1.875 L 0.90625 1.875 L 1.1875 1.875 L 1.5 1.84375 L 1.8125 1.84375 L 2.09375 1.8125 L 2.40625 1.8125 L 2.6875 1.78125 L 3 1.78125 L 3.3125 1.75 L 3.59375 1.75 L 3.90625 1.71875 L 4.1875 1.71875 L 4.5 1.71875 L 4.8125 1.75 L 5.09375 1.75 L 5.40625 1.78125 L 5.6875 1.8125 L 6 1.875 L 6.3125 1.9375 L 6.59375 1.96875 L 6.90625 2.03125 L 7.1875 2.0625 L 7.5 2.09375 L 7.8125 2.09375 L 8.09375 2.09375 L 8.40625 2.09375 L 8.6875 2.09375 L 9 2.0625 L 9.3125 2.0625 L 9.59375 2.03125 L 9.90625 1.96875 L 10.1875 1.9375 L 10.5 1.90625 L 10.8125 1.875 L 11.09375 1.875 L 11.40625 1.875 L 11.6875 1.875 L 12 1.875" fill="none" stroke="#d4b078" stroke-width="0.03125" stroke-linecap="round" stroke-linejoin="round" opacity="0.5"/>
      <path d="M 0 2.09375 L 0.3125 2.125 L 0.59375 2.125 L 0.90625 2.125 L 1.1875 2.125 L 1.5 2.15625 L 1.8125 2.15625 L 2.09375 2.15625 L 2.40625 2.15625 L 2.6875 2.15625 L 3 2.15625 L 3.3125 2.15625 L 3.59375 2.15625 L 3.90625 2.15625 L 4.1875 2.15625 L 4.5 2.15625 L 4.8125 2.15625 L 5.09375 2.15625 L 5.40625 2.15625 L 5.6875 2.1875 L 6 2.21875 L 6.3125 2.25 L 6.59375 2.28125 L 6.90625 2.3125 L 7.1875 2.34375 L 7.5 2.375 L 7.8125 2.375 L 8.09375 2.375 L 8.40625 2.375 L 8.6875 2.375 L 9 2.34375 L 9.3125 2.3125 L 9.59375 2.28125 L 9.90625 2.25 L 10.1875 2.21875 L 10.5 2.15625 L 10.8125 2.15625 L 11.09375 2.125 L 11.40625 2.125 L 11.6875 2.125 L 12 2.125" fill="none" stroke="#6b4f3a" stroke-width="0.03125" stroke-linecap="round" stroke-linejoin="round" opacity="0.72"/>
      <path d="M 0 2.5 L 0.3125 2.5 L 0.59375 2.46875 L 0.90625 2.46875 L 1.1875 2.4375 L 1.5 2.4375 L 1.8125 2.40625 L 2.09375 2.40625 L 2.40625 2.375 L 2.6875 2.34375 L 3 2.34375 L 3.3125 2.34375 L 3.59375 2.34375 L 3.90625 2.34375 L 4.1875 2.34375 L 4.5 2.34375 L 4.8125 2.375 L 5.09375 2.40625 L 5.40625 2.4375 L 5.6875 2.46875 L 6 2.53125 L 6.3125 2.5625 L 6.59375 2.625 L 6.90625 2.65625 L 7.1875 2.6875 L 7.5 2.71875 L 7.8125 2.75 L 8.09375 2.75 L 8.40625 2.75 L 8.6875 2.75 L 9 2.71875 L 9.3125 2.6875 L 9.59375 2.6875 L 9.90625 2.625 L 10.1875 2.59375 L 10.5 2.5625 L 10.8125 2.5625 L 11.09375 2.53125 L 11.40625 2.53125 L 11.6875 2.5 L 12 2.5" fill="none" stroke="#120908" stroke-width="0.03125" stroke-linecap="round" stroke-linejoin="round" opacity="0.78"/>
      <path d="M 0 2.8125 L 0.3125 2.8125 L 0.59375 2.8125 L 0.90625 2.8125 L 1.1875 2.8125 L 1.5 2.8125 L 1.8125 2.78125 L 2.09375 2.78125 L 2.40625 2.78125 L 2.6875 2.78125 L 3 2.78125 L 3.3125 2.78125 L 3.59375 2.78125 L 3.90625 2.75 L 4.1875 2.75 L 4.5 2.78125 L 4.8125 2.78125 L 5.09375 2.78125 L 5.40625 2.8125 L 5.6875 2.84375 L 6 2.875 L 6.3125 2.9375 L 6.59375 2.96875 L 6.90625 3.03125 L 7.1875 3.0625 L 7.5 3.09375 L 7.8125 3.09375 L 8.09375 3.125 L 8.40625 3.125 L 8.6875 3.125 L 9 3.09375 L 9.3125 3.09375 L 9.59375 3.03125 L 9.90625 3 L 10.1875 2.96875 L 10.5 2.9375 L 10.8125 2.875 L 11.09375 2.875 L 11.40625 2.84375 L 11.6875 2.84375 L 12 2.8125" fill="none" stroke="#d4b078" stroke-width="0.03125" stroke-linecap="round" stroke-linejoin="round" opacity="0.48"/>
      <path d="M 0 0.125 L 0.4375 0.15625 L 0.84375 0.15625 L 1.28125 0.15625 L 1.71875 0.15625 L 2.15625 0.15625 L 2.5625 0.15625 L 3 0.15625 L 3.4375 0.15625 L 3.84375 0.125 L 4.28125 0.125 L 4.71875 0.09375 L 5.15625 0.0625 L 5.5625 0.03125 L 6 -0.03125 L 6.4375 -0.09375 L 6.84375 -0.15625 L 7.28125 -0.21875 L 7.71875 -0.25 L 8.15625 -0.25 L 8.5625 -0.25 L 9 -0.21875 L 9.4375 -0.15625 L 9.84375 -0.09375 L 10.28125 -0.03125 L 10.71875 0.03125 L 11.15625 0.09375 L 11.5625 0.125 L 12 0.125" fill="none" stroke="#6b4f3a" stroke-width="0.03125" stroke-linecap="round" stroke-linejoin="round" opacity="0.55"/>
      <path d="M 0 3 L 0.4375 3 L 0.84375 2.96875 L 1.28125 2.96875 L 1.71875 2.96875 L 2.15625 2.96875 L 2.5625 2.96875 L 3 2.9375 L 3.4375 2.9375 L 3.84375 2.9375 L 4.28125 2.9375 L 4.71875 2.96875 L 5.15625 3 L 5.5625 3.03125 L 6 3.09375 L 6.4375 3.15625 L 6.84375 3.21875 L 7.28125 3.25 L 7.71875 3.3125 L 8.15625 3.3125 L 8.5625 3.3125 L 9 3.3125 L 9.4375 3.25 L 9.84375 3.21875 L 10.28125 3.15625 L 10.71875 3.09375 L 11.15625 3.03125 L 11.5625 3.03125 L 12 3" fill="none" stroke="#8a6548" stroke-width="0.03125" stroke-linecap="round" stroke-linejoin="round" opacity="0.5"/>
      <path d="M 12 0.28125 L 12.3125 0.28125 L 12.59375 0.28125 L 12.90625 0.28125 L 13.1875 0.25 L 13.5 0.21875 L 13.8125 0.15625 L 14.09375 0.125 L 14.40625 0.09375 L 14.6875 0.09375 L 15 0.125 L 15.3125 0.15625 L 15.59375 0.21875 L 15.90625 0.25 L 16.1875 0.28125 L 16.5 0.28125 L 16.8125 0.28125 L 17.09375 0.28125 L 17.40625 0.28125 L 17.6875 0.28125 L 18 0.28125 L 18.3125 0.28125 L 18.59375 0.28125 L 18.90625 0.28125 L 19.1875 0.28125 L 19.5 0.28125 L 19.8125 0.28125 L 20.09375 0.28125 L 20.40625 0.28125 L 20.6875 0.28125 L 21 0.28125 L 21.3125 0.28125 L 21.59375 0.28125 L 21.90625 0.28125 L 22.1875 0.28125 L 22.5 0.28125 L 22.8125 0.28125 L 23.09375 0.28125 L 23.40625 0.28125 L 23.6875 0.28125 L 24 0.28125" fill="none" stroke="#d4b078" stroke-width="0.03125" stroke-linecap="round" stroke-linejoin="round" opacity="0.62"/>
      <path d="M 12 0.59375 L 12.3125 0.59375 L 12.59375 0.59375 L 12.90625 0.5625 L 13.1875 0.5625 L 13.5 0.5 L 13.8125 0.4375 L 14.09375 0.40625 L 14.40625 0.40625 L 14.6875 0.375 L 15 0.40625 L 15.3125 0.4375 L 15.59375 0.46875 L 15.90625 0.53125 L 16.1875 0.53125 L 16.5 0.53125 L 16.8125 0.53125 L 17.09375 0.53125 L 17.40625 0.53125 L 17.6875 0.5625 L 18 0.5625 L 18.3125 0.5625 L 18.59375 0.5625 L 18.90625 0.5625 L 19.1875 0.5625 L 19.5 0.5625 L 19.8125 0.5625 L 20.09375 0.5625 L 20.40625 0.5625 L 20.6875 0.5625 L 21 0.5625 L 21.3125 0.5625 L 21.59375 0.5625 L 21.90625 0.5625 L 22.1875 0.5625 L 22.5 0.5625 L 22.8125 0.5625 L 23.09375 0.5625 L 23.40625 0.5625 L 23.6875 0.5625 L 24 0.59375" fill="none" stroke="#120908" stroke-width="0.03125" stroke-linecap="round" stroke-linejoin="round" opacity="0.85"/>
      <path d="M 12 0.8125 L 12.3125 0.8125 L 12.59375 0.8125 L 12.90625 0.8125 L 13.1875 0.78125 L 13.5 0.71875 L 13.8125 0.6875 L 14.09375 0.625 L 14.40625 0.625 L 14.6875 0.625 L 15 0.625 L 15.3125 0.6875 L 15.59375 0.71875 L 15.90625 0.75 L 16.1875 0.78125 L 16.5 0.78125 L 16.8125 0.78125 L 17.09375 0.78125 L 17.40625 0.8125 L 17.6875 0.8125 L 18 0.8125 L 18.3125 0.8125 L 18.59375 0.8125 L 18.90625 0.8125 L 19.1875 0.8125 L 19.5 0.8125 L 19.8125 0.8125 L 20.09375 0.8125 L 20.40625 0.8125 L 20.6875 0.8125 L 21 0.8125 L 21.3125 0.8125 L 21.59375 0.84375 L 21.90625 0.84375 L 22.1875 0.84375 L 22.5 0.84375 L 22.8125 0.84375 L 23.09375 0.84375 L 23.40625 0.8125 L 23.6875 0.8125 L 24 0.8125" fill="none" stroke="#6b4f3a" stroke-width="0.03125" stroke-linecap="round" stroke-linejoin="round" opacity="0.75"/>
      <path d="M 12 1.15625 L 12.3125 1.15625 L 12.59375 1.15625 L 12.90625 1.125 L 13.1875 1.09375 L 13.5 1.0625 L 13.8125 1 L 14.09375 0.96875 L 14.40625 0.9375 L 14.6875 0.9375 L 15 0.96875 L 15.3125 1.03125 L 15.59375 1.0625 L 15.90625 1.09375 L 16.1875 1.125 L 16.5 1.125 L 16.8125 1.125 L 17.09375 1.125 L 17.40625 1.09375 L 17.6875 1.09375 L 18 1.09375 L 18.3125 1.09375 L 18.59375 1.09375 L 18.90625 1.09375 L 19.1875 1.125 L 19.5 1.125 L 19.8125 1.125 L 20.09375 1.125 L 20.40625 1.125 L 20.6875 1.125 L 21 1.125 L 21.3125 1.125 L 21.59375 1.125 L 21.90625 1.125 L 22.1875 1.125 L 22.5 1.125 L 22.8125 1.125 L 23.09375 1.125 L 23.40625 1.15625 L 23.6875 1.15625 L 24 1.15625" fill="none" stroke="#8a6548" stroke-width="0.03125" stroke-linecap="round" stroke-linejoin="round" opacity="0.7"/>
      <path d="M 12 1.4375 L 12.3125 1.4375 L 12.59375 1.4375 L 12.90625 1.4375 L 13.1875 1.40625 L 13.5 1.34375 L 13.8125 1.3125 L 14.09375 1.25 L 14.40625 1.25 L 14.6875 1.25 L 15 1.25 L 15.3125 1.28125 L 15.59375 1.34375 L 15.90625 1.375 L 16.1875 1.40625 L 16.5 1.40625 L 16.8125 1.40625 L 17.09375 1.40625 L 17.40625 1.4375 L 17.6875 1.4375 L 18 1.4375 L 18.3125 1.4375 L 18.59375 1.4375 L 18.90625 1.4375 L 19.1875 1.4375 L 19.5 1.4375 L 19.8125 1.4375 L 20.09375 1.4375 L 20.40625 1.4375 L 20.6875 1.4375 L 21 1.4375 L 21.3125 1.4375 L 21.59375 1.4375 L 21.90625 1.4375 L 22.1875 1.4375 L 22.5 1.4375 L 22.8125 1.4375 L 23.09375 1.4375 L 23.40625 1.4375 L 23.6875 1.4375 L 24 1.4375" fill="none" stroke="#120908" stroke-width="0.03125" stroke-linecap="round" stroke-linejoin="round" opacity="0.8"/>
      <path d="M 12 1.8125 L 12.3125 1.8125 L 12.59375 1.8125 L 12.90625 1.78125 L 13.1875 1.75 L 13.5 1.71875 L 13.8125 1.65625 L 14.09375 1.625 L 14.40625 1.59375 L 14.6875 1.59375 L 15 1.625 L 15.3125 1.65625 L 15.59375 1.6875 L 15.90625 1.71875 L 16.1875 1.75 L 16.5 1.75 L 16.8125 1.75 L 17.09375 1.75 L 17.40625 1.75 L 17.6875 1.78125 L 18 1.78125 L 18.3125 1.78125 L 18.59375 1.78125 L 18.90625 1.78125 L 19.1875 1.78125 L 19.5 1.78125 L 19.8125 1.78125 L 20.09375 1.78125 L 20.40625 1.78125 L 20.6875 1.78125 L 21 1.78125 L 21.3125 1.78125 L 21.59375 1.78125 L 21.90625 1.78125 L 22.1875 1.78125 L 22.5 1.78125 L 22.8125 1.78125 L 23.09375 1.78125 L 23.40625 1.8125 L 23.6875 1.8125 L 24 1.8125" fill="none" stroke="#d4b078" stroke-width="0.03125" stroke-linecap="round" stroke-linejoin="round" opacity="0.5"/>
      <path d="M 12 2.09375 L 12.3125 2.09375 L 12.59375 2.09375 L 12.90625 2.09375 L 13.1875 2.0625 L 13.5 2.03125 L 13.8125 1.96875 L 14.09375 1.9375 L 14.40625 1.9375 L 14.6875 1.9375 L 15 1.9375 L 15.3125 2 L 15.59375 2.03125 L 15.90625 2.0625 L 16.1875 2.09375 L 16.5 2.09375 L 16.8125 2.09375 L 17.09375 2.09375 L 17.40625 2.09375 L 17.6875 2.09375 L 18 2.09375 L 18.3125 2.09375 L 18.59375 2.09375 L 18.90625 2.09375 L 19.1875 2.09375 L 19.5 2.09375 L 19.8125 2.09375 L 20.09375 2.0625 L 20.40625 2.0625 L 20.6875 2.0625 L 21 2.0625 L 21.3125 2.0625 L 21.59375 2.0625 L 21.90625 2.09375 L 22.1875 2.09375 L 22.5 2.09375 L 22.8125 2.09375 L 23.09375 2.09375 L 23.40625 2.09375 L 23.6875 2.09375 L 24 2.09375" fill="none" stroke="#6b4f3a" stroke-width="0.03125" stroke-linecap="round" stroke-linejoin="round" opacity="0.72"/>
      <path d="M 12 2.4375 L 12.3125 2.4375 L 12.59375 2.4375 L 12.90625 2.4375 L 13.1875 2.46875 L 13.5 2.5 L 13.8125 2.53125 L 14.09375 2.5625 L 14.40625 2.59375 L 14.6875 2.5625 L 15 2.5625 L 15.3125 2.5 L 15.59375 2.46875 L 15.90625 2.40625 L 16.1875 2.40625 L 16.5 2.40625 L 16.8125 2.375 L 17.09375 2.40625 L 17.40625 2.40625 L 17.6875 2.40625 L 18 2.40625 L 18.3125 2.40625 L 18.59375 2.40625 L 18.90625 2.40625 L 19.1875 2.40625 L 19.5 2.40625 L 19.8125 2.40625 L 20.09375 2.40625 L 20.40625 2.40625 L 20.6875 2.40625 L 21 2.40625 L 21.3125 2.40625 L 21.59375 2.40625 L 21.90625 2.40625 L 22.1875 2.40625 L 22.5 2.40625 L 22.8125 2.4375 L 23.09375 2.4375 L 23.40625 2.4375 L 23.6875 2.4375 L 24 2.4375" fill="none" stroke="#120908" stroke-width="0.03125" stroke-linecap="round" stroke-linejoin="round" opacity="0.78"/>
      <path d="M 12 2.78125 L 12.3125 2.78125 L 12.59375 2.78125 L 12.90625 2.8125 L 13.1875 2.8125 L 13.5 2.875 L 13.8125 2.90625 L 14.09375 2.9375 L 14.40625 2.96875 L 14.6875 2.96875 L 15 2.9375 L 15.3125 2.90625 L 15.59375 2.84375 L 15.90625 2.8125 L 16.1875 2.78125 L 16.5 2.78125 L 16.8125 2.78125 L 17.09375 2.78125 L 17.40625 2.78125 L 17.6875 2.78125 L 18 2.78125 L 18.3125 2.78125 L 18.59375 2.78125 L 18.90625 2.78125 L 19.1875 2.78125 L 19.5 2.78125 L 19.8125 2.78125 L 20.09375 2.78125 L 20.40625 2.78125 L 20.6875 2.78125 L 21 2.78125 L 21.3125 2.78125 L 21.59375 2.78125 L 21.90625 2.78125 L 22.1875 2.78125 L 22.5 2.78125 L 22.8125 2.78125 L 23.09375 2.78125 L 23.40625 2.78125 L 23.6875 2.78125 L 24 2.78125" fill="none" stroke="#d4b078" stroke-width="0.03125" stroke-linecap="round" stroke-linejoin="round" opacity="0.48"/>
      <path d="M 12 0.125 L 12.4375 0.125 L 12.84375 0.125 L 13.28125 0.09375 L 13.71875 0 L 14.15625 -0.03125 L 14.5625 -0.0625 L 15 -0.03125 L 15.4375 0.03125 L 15.84375 0.09375 L 16.28125 0.125 L 16.71875 0.125 L 17.15625 0.125 L 17.5625 0.125 L 18 0.125 L 18.4375 0.125 L 18.84375 0.125 L 19.28125 0.125 L 19.71875 0.125 L 20.15625 0.125 L 20.5625 0.125 L 21 0.125 L 21.4375 0.125 L 21.84375 0.125 L 22.28125 0.125 L 22.71875 0.125 L 23.15625 0.125 L 23.5625 0.125 L 24 0.125" fill="none" stroke="#6b4f3a" stroke-width="0.03125" stroke-linecap="round" stroke-linejoin="round" opacity="0.55"/>
      <path d="M 12 2.96875 L 12.4375 2.96875 L 12.84375 3 L 13.28125 3.03125 L 13.71875 3.09375 L 14.15625 3.15625 L 14.5625 3.15625 L 15 3.125 L 15.4375 3.0625 L 15.84375 3 L 16.28125 2.96875 L 16.71875 2.96875 L 17.15625 2.96875 L 17.5625 2.96875 L 18 2.96875 L 18.4375 2.96875 L 18.84375 2.96875 L 19.28125 2.96875 L 19.71875 2.96875 L 20.15625 2.96875 L 20.5625 2.96875 L 21 2.96875 L 21.4375 2.96875 L 21.84375 2.96875 L 22.28125 2.96875 L 22.71875 2.96875 L 23.15625 2.96875 L 23.5625 2.96875 L 24 2.96875" fill="none" stroke="#8a6548" stroke-width="0.03125" stroke-linecap="round" stroke-linejoin="round" opacity="0.5"/>
      <rect x="0" y="0" width="24" height="0.1875" fill="#eed6a4" opacity="0.07"/>
    </pattern>
  </defs>
  <g id="sym-rail-middle-heritage">
    <g id="shell">
      <rect x="0" y="0" width="89" height="3.5" fill="#000000"/>
    </g>
    <g id="fill" data-slot="frame-material">
      <g data-frame-material="pt" data-frame-pt-style="incised">
        <rect x="0.1875" y="0.1875" width="88.625" height="3.125" fill="#6c4834"/>
        <rect x="0.1875" y="0.1875" width="88.625" height="3.125" fill="url(#pt-grain-rail)"/>
      </g>
      <g data-frame-material="pt" data-frame-pt-style="appearance">
        <rect x="0.1875" y="0.1875" width="88.625" height="3.125" fill="#755038"/>
        <rect x="0.1875" y="0.1875" width="88.625" height="3.125" fill="url(#pt-rail-grain-middle)"/>
      </g>
    </g>
  </g>
</svg>
