<?xml version="1.0" encoding="UTF-8"?>
<svg xmlns="http://www.w3.org/2000/svg" viewBox="0 0 89 1.5" width="12816" height="216">
  <title>sym-rail-cap-ref-1.5</title>
  <desc>Rail cap material slots — cedar-rail-cap-grain + pt-trim-cap-grain. Generated by build-texture-patterns.js</desc>
  <defs>
    <linearGradient id="cedar-rail-shine" x1="0" y1="0" x2="0" y2="1" gradientUnits="objectBoundingBox">
      <stop offset="0%" stop-color="#c2a878" stop-opacity="1"/>
      <stop offset="55%" stop-color="#ae9162" stop-opacity="1"/>
      <stop offset="100%" stop-color="#a08858" stop-opacity="1"/>
    </linearGradient>
    <linearGradient id="cedar-trim-shine" x1="0" y1="0" x2="0" y2="1" gradientUnits="objectBoundingBox">
      <stop offset="0%" stop-color="#b49268" stop-opacity="1"/>
      <stop offset="50%" stop-color="#a37e54" stop-opacity="1"/>
      <stop offset="100%" stop-color="#9a8050" stop-opacity="1"/>
    </linearGradient>
    <linearGradient id="cedar-cap-shine" x1="0" y1="0" x2="0" y2="1" gradientUnits="objectBoundingBox">
      <stop offset="0%" stop-color="#b89a6e" stop-opacity="1"/>
      <stop offset="52%" stop-color="#a98b5c" stop-opacity="1"/>
      <stop offset="100%" stop-color="#958055" stop-opacity="1"/>
    </linearGradient>
    <pattern id="cedar-rail-cap-grain" patternUnits="userSpaceOnUse" patternContentUnits="userSpaceOnUse" width="24" height="1.125" patternTransform="translate(0.1875, 0.1875)">
      <ellipse cx="10.5" cy="0.59375" rx="0.15625" ry="0.03125" fill="#382010" opacity="1"/>
      <ellipse cx="10.5" cy="0.59375" rx="0.1875" ry="0.0625" fill="#422818" opacity="0.9"/>
      <ellipse cx="10.5" cy="0.59375" rx="0.25" ry="0.0625" fill="#503020" opacity="0.65"/>
      <ellipse cx="10.5" cy="0.59375" rx="0.3125" ry="0.09375" fill="#5e3828" opacity="0.4"/>
      <path d="M 0 0.1875 L 0.75 0.1875 L 1.5 0.1875 L 2.25 0.1875 L 3 0.1875 L 3.75 0.1875 L 4.5 0.1875 L 5.25 0.1875 L 6 0.1875 L 6.75 0.1875 L 7.5 0.1875 L 8.25 0.1875 L 9 0.1875 L 9.75 0.15625 L 10.5 0.125 L 11.25 0.15625 L 12 0.1875 L 12.75 0.1875 L 13.5 0.1875 L 14.25 0.1875 L 15 0.1875 L 15.75 0.1875 L 16.5 0.1875 L 17.25 0.1875 L 18 0.1875 L 18.75 0.1875 L 19.5 0.1875 L 20.25 0.1875 L 21 0.1875 L 21.75 0.1875 L 22.5 0.1875 L 23.25 0.1875 L 24 0.1875" fill="none" stroke="#d4b078" stroke-width="0.03125" stroke-linecap="round" stroke-linejoin="round" opacity="0.48"/>
      <path d="M 0 0.53125 L 0.75 0.53125 L 1.5 0.53125 L 2.25 0.53125 L 3 0.53125 L 3.75 0.53125 L 4.5 0.53125 L 5.25 0.53125 L 6 0.53125 L 6.75 0.53125 L 7.5 0.53125 L 8.25 0.53125 L 9 0.53125 L 9.75 0.5 L 10.5 0.46875 L 11.25 0.5 L 12 0.53125 L 12.75 0.53125 L 13.5 0.53125 L 14.25 0.53125 L 15 0.53125 L 15.75 0.53125 L 16.5 0.53125 L 17.25 0.53125 L 18 0.53125 L 18.75 0.53125 L 19.5 0.53125 L 20.25 0.53125 L 21 0.53125 L 21.75 0.53125 L 22.5 0.53125 L 23.25 0.53125 L 24 0.53125" fill="none" stroke="#120908" stroke-width="0.03125" stroke-linecap="round" stroke-linejoin="round" opacity="0.8"/>
      <path d="M 0 0.8125 L 0.75 0.8125 L 1.5 0.8125 L 2.25 0.8125 L 3 0.8125 L 3.75 0.8125 L 4.5 0.8125 L 5.25 0.8125 L 6 0.8125 L 6.75 0.8125 L 7.5 0.8125 L 8.25 0.8125 L 9 0.8125 L 9.75 0.84375 L 10.5 0.875 L 11.25 0.84375 L 12 0.8125 L 12.75 0.8125 L 13.5 0.8125 L 14.25 0.8125 L 15 0.8125 L 15.75 0.8125 L 16.5 0.8125 L 17.25 0.8125 L 18 0.8125 L 18.75 0.8125 L 19.5 0.8125 L 20.25 0.8125 L 21 0.8125 L 21.75 0.8125 L 22.5 0.8125 L 23.25 0.8125 L 24 0.8125" fill="none" stroke="#6b4f3a" stroke-width="0.03125" stroke-linecap="round" stroke-linejoin="round" opacity="0.68"/>
      <path d="M 0.5 0.125 L 1.5625 0.125" fill="none" stroke="#120908" stroke-width="0.03125" stroke-linecap="round" stroke-linejoin="round" opacity="0.88"/>
      <path d="M 13.8125 0.125 L 14.75 0.125" fill="none" stroke="#6b4f3a" stroke-width="0.03125" stroke-linecap="round" stroke-linejoin="round" opacity="0.72"/>
      <path d="M 21.1875 0.125 L 21.9375 0.125" fill="none" stroke="#8a6548" stroke-width="0.03125" stroke-linecap="round" stroke-linejoin="round" opacity="0.68"/>
      <path d="M 2.40625 0.375 L 3.65625 0.375" fill="none" stroke="#120908" stroke-width="0.03125" stroke-linecap="round" stroke-linejoin="round" opacity="0.9"/>
      <path d="M 17.59375 0.375 L 18.6875 0.375" fill="none" stroke="#6b4f3a" stroke-width="0.03125" stroke-linecap="round" stroke-linejoin="round" opacity="0.78"/>
      <path d="M 0.8125 0.625 L 2.15625 0.625" fill="none" stroke="#6b4f3a" stroke-width="0.03125" stroke-linecap="round" stroke-linejoin="round" opacity="0.82"/>
      <path d="M 15.5 0.625 L 16.65625 0.625" fill="none" stroke="#120908" stroke-width="0.03125" stroke-linecap="round" stroke-linejoin="round" opacity="0.86"/>
      <path d="M 22 0.625 L 22.8125 0.625" fill="none" stroke="#8a6548" stroke-width="0.03125" stroke-linecap="round" stroke-linejoin="round" opacity="0.7"/>
      <path d="M 4.1875 0.96875 L 5.1875 0.96875" fill="none" stroke="#120908" stroke-width="0.03125" stroke-linecap="round" stroke-linejoin="round" opacity="0.84"/>
      <path d="M 12.8125 0.96875 L 13.65625 0.96875" fill="none" stroke="#d4b078" stroke-width="0.03125" stroke-linecap="round" stroke-linejoin="round" opacity="0.52"/>
      <path d="M 19.40625 0.96875 L 20.3125 0.96875" fill="none" stroke="#6b4f3a" stroke-width="0.03125" stroke-linecap="round" stroke-linejoin="round" opacity="0.76"/>
    </pattern>
    <pattern id="pt-trim-cap-grain" patternUnits="userSpaceOnUse" patternContentUnits="userSpaceOnUse" width="24" height="1.125" patternTransform="translate(0.1875, 0.1875)">
      <ellipse cx="10.5" cy="0.59375" rx="0.15625" ry="0.03125" fill="#382010" opacity="1"/>
      <ellipse cx="10.5" cy="0.59375" rx="0.1875" ry="0.0625" fill="#422818" opacity="0.9"/>
      <ellipse cx="10.5" cy="0.59375" rx="0.25" ry="0.0625" fill="#503020" opacity="0.65"/>
      <ellipse cx="10.5" cy="0.59375" rx="0.3125" ry="0.09375" fill="#5e3828" opacity="0.4"/>
      <path d="M 0 0.1875 L 0.75 0.1875 L 1.5 0.1875 L 2.25 0.1875 L 3 0.1875 L 3.75 0.1875 L 4.5 0.1875 L 5.25 0.1875 L 6 0.1875 L 6.75 0.1875 L 7.5 0.1875 L 8.25 0.1875 L 9 0.1875 L 9.75 0.15625 L 10.5 0.125 L 11.25 0.15625 L 12 0.1875 L 12.75 0.1875 L 13.5 0.1875 L 14.25 0.1875 L 15 0.1875 L 15.75 0.1875 L 16.5 0.1875 L 17.25 0.1875 L 18 0.1875 L 18.75 0.1875 L 19.5 0.1875 L 20.25 0.1875 L 21 0.1875 L 21.75 0.1875 L 22.5 0.1875 L 23.25 0.1875 L 24 0.1875" fill="none" stroke="#d4b078" stroke-width="0.03125" stroke-linecap="round" stroke-linejoin="round" opacity="0.48"/>
      <path d="M 0 0.53125 L 0.75 0.53125 L 1.5 0.53125 L 2.25 0.53125 L 3 0.53125 L 3.75 0.53125 L 4.5 0.53125 L 5.25 0.53125 L 6 0.53125 L 6.75 0.53125 L 7.5 0.53125 L 8.25 0.53125 L 9 0.53125 L 9.75 0.5 L 10.5 0.46875 L 11.25 0.5 L 12 0.53125 L 12.75 0.53125 L 13.5 0.53125 L 14.25 0.53125 L 15 0.53125 L 15.75 0.53125 L 16.5 0.53125 L 17.25 0.53125 L 18 0.53125 L 18.75 0.53125 L 19.5 0.53125 L 20.25 0.53125 L 21 0.53125 L 21.75 0.53125 L 22.5 0.53125 L 23.25 0.53125 L 24 0.53125" fill="none" stroke="#120908" stroke-width="0.03125" stroke-linecap="round" stroke-linejoin="round" opacity="0.8"/>
      <path d="M 0 0.8125 L 0.75 0.8125 L 1.5 0.8125 L 2.25 0.8125 L 3 0.8125 L 3.75 0.8125 L 4.5 0.8125 L 5.25 0.8125 L 6 0.8125 L 6.75 0.8125 L 7.5 0.8125 L 8.25 0.8125 L 9 0.8125 L 9.75 0.84375 L 10.5 0.875 L 11.25 0.84375 L 12 0.8125 L 12.75 0.8125 L 13.5 0.8125 L 14.25 0.8125 L 15 0.8125 L 15.75 0.8125 L 16.5 0.8125 L 17.25 0.8125 L 18 0.8125 L 18.75 0.8125 L 19.5 0.8125 L 20.25 0.8125 L 21 0.8125 L 21.75 0.8125 L 22.5 0.8125 L 23.25 0.8125 L 24 0.8125" fill="none" stroke="#6b4f3a" stroke-width="0.03125" stroke-linecap="round" stroke-linejoin="round" opacity="0.68"/>
      <path d="M 0.5 0.125 L 1.5625 0.125" fill="none" stroke="#120908" stroke-width="0.03125" stroke-linecap="round" stroke-linejoin="round" opacity="0.88"/>
      <path d="M 13.8125 0.125 L 14.75 0.125" fill="none" stroke="#6b4f3a" stroke-width="0.03125" stroke-linecap="round" stroke-linejoin="round" opacity="0.72"/>
      <path d="M 21.1875 0.125 L 21.9375 0.125" fill="none" stroke="#8a6548" stroke-width="0.03125" stroke-linecap="round" stroke-linejoin="round" opacity="0.68"/>
      <path d="M 2.40625 0.375 L 3.65625 0.375" fill="none" stroke="#120908" stroke-width="0.03125" stroke-linecap="round" stroke-linejoin="round" opacity="0.9"/>
      <path d="M 17.59375 0.375 L 18.6875 0.375" fill="none" stroke="#6b4f3a" stroke-width="0.03125" stroke-linecap="round" stroke-linejoin="round" opacity="0.78"/>
      <path d="M 0.8125 0.625 L 2.15625 0.625" fill="none" stroke="#6b4f3a" stroke-width="0.03125" stroke-linecap="round" stroke-linejoin="round" opacity="0.82"/>
      <path d="M 15.5 0.625 L 16.65625 0.625" fill="none" stroke="#120908" stroke-width="0.03125" stroke-linecap="round" stroke-linejoin="round" opacity="0.86"/>
      <path d="M 22 0.625 L 22.8125 0.625" fill="none" stroke="#8a6548" stroke-width="0.03125" stroke-linecap="round" stroke-linejoin="round" opacity="0.7"/>
      <path d="M 4.1875 0.96875 L 5.1875 0.96875" fill="none" stroke="#120908" stroke-width="0.03125" stroke-linecap="round" stroke-linejoin="round" opacity="0.84"/>
      <path d="M 12.8125 0.96875 L 13.65625 0.96875" fill="none" stroke="#d4b078" stroke-width="0.03125" stroke-linecap="round" stroke-linejoin="round" opacity="0.52"/>
      <path d="M 19.40625 0.96875 L 20.3125 0.96875" fill="none" stroke="#6b4f3a" stroke-width="0.03125" stroke-linecap="round" stroke-linejoin="round" opacity="0.76"/>
    </pattern>
  </defs>
  <g id="sym-rail-cap-ref-1.5">
    <g id="shell">
      <rect x="0" y="0" width="89" height="1.5" fill="#000000"/>
    </g>
    <g id="fill-cap" data-slot="rail-cap-material">
      <g id="fill-cap-cedar" data-cap-material="cedar">
        <rect x="0.1875" y="0.1875" width="88.625" height="1.125" fill="url(#cedar-cap-shine)"/>
        <rect x="0.1875" y="0.1875" width="88.625" height="1.125" fill="url(#cedar-rail-cap-grain)"/>
      </g>
      <g id="fill-cap-pt-appearance" data-cap-material="pt" data-cap-pt-style="appearance">
        <rect x="0.1875" y="0.1875" width="88.625" height="1.125" fill="#78533c"/>
        <rect x="0.1875" y="0.1875" width="88.625" height="1.125" fill="url(#pt-trim-cap-grain)"/>
      </g>
      <g id="fill-cap-pt-incised" data-cap-material="pt" data-cap-pt-style="incised">
        <rect x="0.1875" y="0.1875" width="88.625" height="1.125" fill="#6e4a36"/>
        <rect x="0.1875" y="0.1875" width="88.625" height="1.125" fill="url(#pt-trim-cap-grain)"/>
      </g>
    </g>
  </g>
</svg>
