<?xml version="1.0" encoding="UTF-8"?>
<svg xmlns="http://www.w3.org/2000/svg" viewBox="0 0 112 95" width="16128" height="13680">
  <title>sym-picket-cedar-gothic-heritage</title>
  <desc>Heritage gothic pickets — peaked top · 69.4375″ tall · 0.0625″ gaps · y=13.3125→82.75. Generated by build-heritage-pickets.js</desc>
  <g id="sym-picket-cedar-gothic-heritage">
    <g id="component-picket-cedar-gothic-heritage">
      <path d="M 11.3125 15.8125 L 12.90625 13.3125 L 14.46875 15.8125 L 14.46875 82.75 L 11.3125 82.75 Z" fill="#000000" data-picket-cut="left"/>
      <path d="M 11.5 16 L 12.90625 13.5 L 14.28125 16 L 14.28125 82.5625 L 11.5 82.5625 Z" fill="#b8886b"/>
      <path d="M 14.46875 15.8125 L 17.40625 13.3125 L 20.34375 15.8125 L 20.34375 82.75 L 14.46875 82.75 Z" fill="#000000" data-picket-cut="full"/>
      <path d="M 14.65625 16 L 17.40625 13.5 L 20.15625 16 L 20.15625 82.5625 L 14.65625 82.5625 Z" fill="#b8886b" data-picket-face="5.5"/>
      <path d="M 20.40625 15.8125 L 23.34375 13.3125 L 26.28125 15.8125 L 26.28125 82.75 L 20.40625 82.75 Z" fill="#000000" data-picket-cut="full"/>
      <path d="M 20.59375 16 L 23.34375 13.5 L 26.09375 16 L 26.09375 82.5625 L 20.59375 82.5625 Z" fill="#b8886b" data-picket-face="5.5"/>
      <path d="M 26.34375 15.8125 L 29.28125 13.3125 L 32.21875 15.8125 L 32.21875 82.75 L 26.34375 82.75 Z" fill="#000000" data-picket-cut="full"/>
      <path d="M 26.53125 16 L 29.28125 13.5 L 32.03125 16 L 32.03125 82.5625 L 26.53125 82.5625 Z" fill="#b8886b" data-picket-face="5.5"/>
      <path d="M 32.28125 15.8125 L 35.21875 13.3125 L 38.15625 15.8125 L 38.15625 82.75 L 32.28125 82.75 Z" fill="#000000" data-picket-cut="full"/>
      <path d="M 32.46875 16 L 35.21875 13.5 L 37.96875 16 L 37.96875 82.5625 L 32.46875 82.5625 Z" fill="#b8886b" data-picket-face="5.5"/>
      <path d="M 38.21875 15.8125 L 41.15625 13.3125 L 44.09375 15.8125 L 44.09375 82.75 L 38.21875 82.75 Z" fill="#000000" data-picket-cut="full"/>
      <path d="M 38.40625 16 L 41.15625 13.5 L 43.90625 16 L 43.90625 82.5625 L 38.40625 82.5625 Z" fill="#b8886b" data-picket-face="5.5"/>
      <path d="M 44.15625 15.8125 L 47.09375 13.3125 L 50.03125 15.8125 L 50.03125 82.75 L 44.15625 82.75 Z" fill="#000000" data-picket-cut="full"/>
      <path d="M 44.34375 16 L 47.09375 13.5 L 49.84375 16 L 49.84375 82.5625 L 44.34375 82.5625 Z" fill="#b8886b" data-picket-face="5.5"/>
      <path d="M 50.09375 15.8125 L 53.03125 13.3125 L 55.96875 15.8125 L 55.96875 82.75 L 50.09375 82.75 Z" fill="#000000" data-picket-cut="full"/>
      <path d="M 50.28125 16 L 53.03125 13.5 L 55.78125 16 L 55.78125 82.5625 L 50.28125 82.5625 Z" fill="#b8886b" data-picket-face="5.5"/>
      <path d="M 56.03125 15.8125 L 58.96875 13.3125 L 61.90625 15.8125 L 61.90625 82.75 L 56.03125 82.75 Z" fill="#000000" data-picket-cut="full"/>
      <path d="M 56.21875 16 L 58.96875 13.5 L 61.71875 16 L 61.71875 82.5625 L 56.21875 82.5625 Z" fill="#b8886b" data-picket-face="5.5"/>
      <path d="M 61.96875 15.8125 L 64.90625 13.3125 L 67.84375 15.8125 L 67.84375 82.75 L 61.96875 82.75 Z" fill="#000000" data-picket-cut="full"/>
      <path d="M 62.15625 16 L 64.90625 13.5 L 67.65625 16 L 67.65625 82.5625 L 62.15625 82.5625 Z" fill="#b8886b" data-picket-face="5.5"/>
      <path d="M 67.90625 15.8125 L 70.84375 13.3125 L 73.78125 15.8125 L 73.78125 82.75 L 67.90625 82.75 Z" fill="#000000" data-picket-cut="full"/>
      <path d="M 68.09375 16 L 70.84375 13.5 L 73.59375 16 L 73.59375 82.5625 L 68.09375 82.5625 Z" fill="#b8886b" data-picket-face="5.5"/>
      <path d="M 73.84375 15.8125 L 76.78125 13.3125 L 79.71875 15.8125 L 79.71875 82.75 L 73.84375 82.75 Z" fill="#000000" data-picket-cut="full"/>
      <path d="M 74.03125 16 L 76.78125 13.5 L 79.53125 16 L 79.53125 82.5625 L 74.03125 82.5625 Z" fill="#b8886b" data-picket-face="5.5"/>
      <path d="M 79.78125 15.8125 L 82.71875 13.3125 L 85.65625 15.8125 L 85.65625 82.75 L 79.78125 82.75 Z" fill="#000000" data-picket-cut="full"/>
      <path d="M 79.96875 16 L 82.71875 13.5 L 85.46875 16 L 85.46875 82.5625 L 79.96875 82.5625 Z" fill="#b8886b" data-picket-face="5.5"/>
      <path d="M 85.71875 15.8125 L 88.65625 13.3125 L 91.59375 15.8125 L 91.59375 82.75 L 85.71875 82.75 Z" fill="#000000" data-picket-cut="full"/>
      <path d="M 85.90625 16 L 88.65625 13.5 L 91.40625 16 L 91.40625 82.5625 L 85.90625 82.5625 Z" fill="#b8886b" data-picket-face="5.5"/>
      <path d="M 91.65625 15.8125 L 94.59375 13.3125 L 97.53125 15.8125 L 97.53125 82.75 L 91.65625 82.75 Z" fill="#000000" data-picket-cut="full"/>
      <path d="M 91.84375 16 L 94.59375 13.5 L 97.34375 16 L 97.34375 82.5625 L 91.84375 82.5625 Z" fill="#b8886b" data-picket-face="5.5"/>
      <path d="M 97.53125 15.8125 L 99.125 13.3125 L 100.6875 15.8125 L 100.6875 82.75 L 97.53125 82.75 Z" fill="#000000" data-picket-cut="right"/>
      <path d="M 97.71875 16 L 99.125 13.5 L 100.5 16 L 100.5 82.5625 L 97.71875 82.5625 Z" fill="#b8886b"/>
    </g>
  </g>
</svg>
