<?xml version="1.0" encoding="UTF-8"?>
<svg xmlns="http://www.w3.org/2000/svg" viewBox="0 0 112 95" width="16128" height="13680">
  <title>sym-picket-cedar-board-on-board-heritage</title>
  <desc>Heritage board-on-board pickets — dual row with overlay-on-top · 69.4375″ tall · y=13.3125→82.75. Generated by build-heritage-pickets.js</desc>
  <g id="sym-picket-cedar-board-on-board-heritage">
    <g id="component-picket-cedar-board-on-board-heritage">
        <g class="picket-row picket-row-front" data-picket-row="front">
      <rect x="10.21875" y="13.3125" width="5.875" height="69.4375" fill="#000000" data-picket-cut="side-left"/>
      <rect x="10.40625" y="13.5" width="5.5" height="69.0625" fill="#b8886b"/>
      <rect x="14.96875" y="13.3125" width="5.875" height="69.4375" fill="#000000" data-picket-cut="full"/>
      <rect x="15.15625" y="13.5" width="5.5" height="69.0625" fill="#b8886b" data-picket-face="5.5"/>
      <rect x="24.5" y="13.3125" width="5.875" height="69.4375" fill="#000000" data-picket-cut="full"/>
      <rect x="24.6875" y="13.5" width="5.5" height="69.0625" fill="#b8886b" data-picket-face="5.5"/>
      <rect x="34" y="13.3125" width="5.875" height="69.4375" fill="#000000" data-picket-cut="full"/>
      <rect x="34.1875" y="13.5" width="5.5" height="69.0625" fill="#b8886b" data-picket-face="5.5"/>
      <rect x="43.53125" y="13.3125" width="5.875" height="69.4375" fill="#000000" data-picket-cut="full"/>
      <rect x="43.71875" y="13.5" width="5.5" height="69.0625" fill="#b8886b" data-picket-face="5.5"/>
      <rect x="53.0625" y="13.3125" width="5.875" height="69.4375" fill="#000000" data-picket-cut="full"/>
      <rect x="53.25" y="13.5" width="5.5" height="69.0625" fill="#b8886b" data-picket-face="5.5"/>
      <rect x="62.59375" y="13.3125" width="5.875" height="69.4375" fill="#000000" data-picket-cut="full"/>
      <rect x="62.78125" y="13.5" width="5.5" height="69.0625" fill="#b8886b" data-picket-face="5.5"/>
      <rect x="72.125" y="13.3125" width="5.875" height="69.4375" fill="#000000" data-picket-cut="full"/>
      <rect x="72.3125" y="13.5" width="5.5" height="69.0625" fill="#b8886b" data-picket-face="5.5"/>
      <rect x="81.625" y="13.3125" width="5.875" height="69.4375" fill="#000000" data-picket-cut="full"/>
      <rect x="81.8125" y="13.5" width="5.5" height="69.0625" fill="#b8886b" data-picket-face="5.5"/>
      <rect x="91.15625" y="13.3125" width="5.875" height="69.4375" fill="#000000" data-picket-cut="full"/>
      <rect x="91.34375" y="13.5" width="5.5" height="69.0625" fill="#b8886b" data-picket-face="5.5"/>
      <rect x="95.9375" y="13.3125" width="5.875" height="69.4375" fill="#000000" data-picket-cut="side-right"/>
      <rect x="96.125" y="13.5" width="5.5" height="69.0625" fill="#b8886b"/>
        </g>
        <g class="picket-row picket-row-overlay" data-picket-row="overlay">
      <rect x="10.21875" y="13.3125" width="5.875" height="69.4375" fill="#000000" data-picket-cut="overlay-left"/>
      <rect x="10.40625" y="13.5" width="5.5" height="69.0625" fill="#b8886b"/>
      <rect x="19.75" y="13.3125" width="5.875" height="69.4375" fill="#000000" data-picket-cut="overlay"/>
      <rect x="19.9375" y="13.5" width="5.5" height="69.0625" fill="#b8886b"/>
      <rect x="29.25" y="13.3125" width="5.875" height="69.4375" fill="#000000" data-picket-cut="overlay"/>
      <rect x="29.4375" y="13.5" width="5.5" height="69.0625" fill="#b8886b"/>
      <rect x="38.78125" y="13.3125" width="5.875" height="69.4375" fill="#000000" data-picket-cut="overlay"/>
      <rect x="38.96875" y="13.5" width="5.5" height="69.0625" fill="#b8886b"/>
      <rect x="48.3125" y="13.3125" width="5.875" height="69.4375" fill="#000000" data-picket-cut="overlay"/>
      <rect x="48.5" y="13.5" width="5.5" height="69.0625" fill="#b8886b"/>
      <rect x="57.84375" y="13.3125" width="5.875" height="69.4375" fill="#000000" data-picket-cut="overlay"/>
      <rect x="58.03125" y="13.5" width="5.5" height="69.0625" fill="#b8886b"/>
      <rect x="67.375" y="13.3125" width="5.875" height="69.4375" fill="#000000" data-picket-cut="overlay"/>
      <rect x="67.5625" y="13.5" width="5.5" height="69.0625" fill="#b8886b"/>
      <rect x="76.875" y="13.3125" width="5.875" height="69.4375" fill="#000000" data-picket-cut="overlay"/>
      <rect x="77.0625" y="13.5" width="5.5" height="69.0625" fill="#b8886b"/>
      <rect x="86.40625" y="13.3125" width="5.875" height="69.4375" fill="#000000" data-picket-cut="overlay"/>
      <rect x="86.59375" y="13.5" width="5.5" height="69.0625" fill="#b8886b"/>
      <rect x="95.9375" y="13.3125" width="5.875" height="69.4375" fill="#000000" data-picket-cut="overlay-right"/>
      <rect x="96.125" y="13.5" width="5.5" height="69.0625" fill="#b8886b"/>
        </g>
    </g>
  </g>
</svg>
