<?xml version="1.0" encoding="UTF-8"?>
<svg xmlns="http://www.w3.org/2000/svg" viewBox="0 0 112 95" width="16128" height="13680">
  <title>sym-picket-cedar-flat-top-heritage</title>
  <desc>Heritage flat-top pickets — centered 5.5″ full pickets + equal rip cuts · 69.4375″ tall · 0.0625″ gaps · y=13.3125→82.75. Generated by build-heritage-pickets.js</desc>
  <g id="sym-picket-cedar-flat-top-heritage">
    <g id="component-picket-cedar-flat-top-heritage">
      <rect x="11.3125" y="13.3125" width="3.15625" height="69.4375" fill="#000000" data-picket-cut="left"/>
      <rect x="11.5" y="13.5" width="2.78125" height="69.0625" fill="#b8886b"/>
      <rect x="14.46875" y="13.3125" width="5.875" height="69.4375" fill="#000000" data-picket-cut="full"/>
      <rect x="14.65625" y="13.5" width="5.5" height="69.0625" fill="#b8886b" data-picket-face="5.5"/>
      <rect x="20.40625" y="13.3125" width="5.875" height="69.4375" fill="#000000" data-picket-cut="full"/>
      <rect x="20.59375" y="13.5" width="5.5" height="69.0625" fill="#b8886b" data-picket-face="5.5"/>
      <rect x="26.34375" y="13.3125" width="5.875" height="69.4375" fill="#000000" data-picket-cut="full"/>
      <rect x="26.53125" y="13.5" width="5.5" height="69.0625" fill="#b8886b" data-picket-face="5.5"/>
      <rect x="32.28125" y="13.3125" width="5.875" height="69.4375" fill="#000000" data-picket-cut="full"/>
      <rect x="32.46875" y="13.5" width="5.5" height="69.0625" fill="#b8886b" data-picket-face="5.5"/>
      <rect x="38.21875" y="13.3125" width="5.875" height="69.4375" fill="#000000" data-picket-cut="full"/>
      <rect x="38.40625" y="13.5" width="5.5" height="69.0625" fill="#b8886b" data-picket-face="5.5"/>
      <rect x="44.15625" y="13.3125" width="5.875" height="69.4375" fill="#000000" data-picket-cut="full"/>
      <rect x="44.34375" y="13.5" width="5.5" height="69.0625" fill="#b8886b" data-picket-face="5.5"/>
      <rect x="50.09375" y="13.3125" width="5.875" height="69.4375" fill="#000000" data-picket-cut="full"/>
      <rect x="50.28125" y="13.5" width="5.5" height="69.0625" fill="#b8886b" data-picket-face="5.5"/>
      <rect x="56.03125" y="13.3125" width="5.875" height="69.4375" fill="#000000" data-picket-cut="full"/>
      <rect x="56.21875" y="13.5" width="5.5" height="69.0625" fill="#b8886b" data-picket-face="5.5"/>
      <rect x="61.96875" y="13.3125" width="5.875" height="69.4375" fill="#000000" data-picket-cut="full"/>
      <rect x="62.15625" y="13.5" width="5.5" height="69.0625" fill="#b8886b" data-picket-face="5.5"/>
      <rect x="67.90625" y="13.3125" width="5.875" height="69.4375" fill="#000000" data-picket-cut="full"/>
      <rect x="68.09375" y="13.5" width="5.5" height="69.0625" fill="#b8886b" data-picket-face="5.5"/>
      <rect x="73.84375" y="13.3125" width="5.875" height="69.4375" fill="#000000" data-picket-cut="full"/>
      <rect x="74.03125" y="13.5" width="5.5" height="69.0625" fill="#b8886b" data-picket-face="5.5"/>
      <rect x="79.78125" y="13.3125" width="5.875" height="69.4375" fill="#000000" data-picket-cut="full"/>
      <rect x="79.96875" y="13.5" width="5.5" height="69.0625" fill="#b8886b" data-picket-face="5.5"/>
      <rect x="85.71875" y="13.3125" width="5.875" height="69.4375" fill="#000000" data-picket-cut="full"/>
      <rect x="85.90625" y="13.5" width="5.5" height="69.0625" fill="#b8886b" data-picket-face="5.5"/>
      <rect x="91.65625" y="13.3125" width="5.875" height="69.4375" fill="#000000" data-picket-cut="full"/>
      <rect x="91.84375" y="13.5" width="5.5" height="69.0625" fill="#b8886b" data-picket-face="5.5"/>
      <rect x="97.53125" y="13.3125" width="3.15625" height="69.4375" fill="#000000" data-picket-cut="right"/>
      <rect x="97.71875" y="13.5" width="2.78125" height="69.0625" fill="#b8886b"/>
    </g>
  </g>
</svg>
