<?xml version="1.0" encoding="UTF-8"?>
<svg xmlns="http://www.w3.org/2000/svg" viewBox="0 0 4.25 3.5" width="612" height="504">
  <title>sym-post-cap-solar-pyramid</title>
  <defs>
    <linearGradient id="cedar-rail-shine" x1="0" y1="0" x2="0" y2="1" gradientUnits="objectBoundingBox">
      <stop offset="0%" stop-color="#dca070" stop-opacity="1"/>
      <stop offset="55%" stop-color="#c88254" stop-opacity="1"/>
      <stop offset="100%" stop-color="#b06e42" stop-opacity="1"/>
    </linearGradient>
    <linearGradient id="cedar-trim-shine" x1="0" y1="0" x2="0" y2="1" gradientUnits="objectBoundingBox">
      <stop offset="0%" stop-color="#dca070" stop-opacity="1"/>
      <stop offset="50%" stop-color="#c88254" stop-opacity="1"/>
      <stop offset="100%" stop-color="#b06e42" stop-opacity="1"/>
    </linearGradient>
    <linearGradient id="cedar-cap-shine" x1="0" y1="0" x2="0" y2="1" gradientUnits="objectBoundingBox">
      <stop offset="0%" stop-color="#d49868" stop-opacity="1"/>
      <stop offset="52%" stop-color="#be784c" stop-opacity="1"/>
      <stop offset="100%" stop-color="#a8683c" stop-opacity="1"/>
    </linearGradient>
    <linearGradient id="metal-cap-shine" x1="0" y1="0" x2="0" y2="1">
      <stop offset="0%" stop-color="#3a3e47"/>
      <stop offset="50%" stop-color="#24272e"/>
      <stop offset="100%" stop-color="#14171a"/>
    </linearGradient>
    <linearGradient id="copper-cap-shine" x1="0" y1="0" x2="0" y2="1">
      <stop offset="0%" stop-color="#e29b68"/>
      <stop offset="50%" stop-color="#c47a46"/>
      <stop offset="100%" stop-color="#9a5426"/>
    </linearGradient>
  </defs>
  <!-- Outer Shell -->
  <path d="M 0 2.75 L 2.125 0.1875 L 4.25 2.75 Z" fill="#000000" />
  <rect x="0" y="2.75" width="4.25" height="0.75" fill="#000000" />
  <!-- Skirt Inset -->
  <rect x="0.1875" y="2.9375" width="3.875" height="0.375" fill="url(#metal-cap-shine)" />
  <!-- Left Face (Sunlit) -->
  <path d="M 0.1875 2.75 L 2.125 0.375 L 2.125 2.75 Z" fill="url(#metal-cap-shine)" />
  <!-- Right Face (Shadow) -->
  <path d="M 2.125 0.375 L 4.0625 2.75 L 2.125 2.75 Z" fill="#14171a" opacity="0.85" />
  <!-- Solar Lens -->
  <rect x="1.275" y="0.8375" width="1.70" height="0.75" fill="#0d1117" rx="0.1" />
  <rect x="1.375" y="0.9375" width="1.50" height="0.55" fill="#1e3a8a" />
  <circle cx="2.125" cy="3.1" r="0.22" fill="#fef08a" opacity="0.9" />
</svg>