<svg xmlns="http://www.w3.org/2000/svg" viewBox="0 0 512 512" width="100%" height="100%">
  <defs>
    <!-- Big 'F': Natural Architectural Cedar Tan Gradient (#C4B294 / #D8C8AC) -->
    <linearGradient id="cedarTanGrad1by" x1="0%" y1="0%" x2="100%" y2="100%">
      <stop offset="0%" stop-color="#EFE6D5" />
      <stop offset="45%" stop-color="#C4B294" />
      <stop offset="100%" stop-color="#9E8B6D" />
    </linearGradient>

    <linearGradient id="cedarTanCapLeft1by" x1="0%" y1="100%" x2="100%" y2="0%">
      <stop offset="0%" stop-color="#C4B294" />
      <stop offset="50%" stop-color="#D8C8AC" />
      <stop offset="100%" stop-color="#FFFFFF" />
    </linearGradient>

    <linearGradient id="cedarTanCapRight1by" x1="0%" y1="0%" x2="100%" y2="100%">
      <stop offset="0%" stop-color="#C4B294" />
      <stop offset="50%" stop-color="#AD9B7E" />
      <stop offset="100%" stop-color="#88775B" />
    </linearGradient>

    <!-- Small 'F': Boosted Pine-Spruce Gradient (#3B7D57) -->
    <linearGradient id="pineSpruceGrad1by" x1="0%" y1="0%" x2="100%" y2="100%">
      <stop offset="0%" stop-color="#5CA57A" />
      <stop offset="45%" stop-color="#3B7D57" />
      <stop offset="100%" stop-color="#265C3D" />
    </linearGradient>

    <linearGradient id="pineSpruceCapLeft1by" x1="0%" y1="100%" x2="100%" y2="0%">
      <stop offset="0%" stop-color="#3B7D57" />
      <stop offset="50%" stop-color="#559970" />
      <stop offset="100%" stop-color="#76B890" />
    </linearGradient>

    <linearGradient id="pineSpruceCapRight1by" x1="0%" y1="0%" x2="100%" y2="100%">
      <stop offset="0%" stop-color="#3B7D57" />
      <stop offset="50%" stop-color="#2C6141" />
      <stop offset="100%" stop-color="#1E452E" />
    </linearGradient>

    <!-- Warm Golden-Brown Pressure Treated Tone -->
    <linearGradient id="ptWarmWoodGrad1by" x1="0%" y1="0%" x2="100%" y2="0%">
      <stop offset="0%" stop-color="#8A5E44" />
      <stop offset="35%" stop-color="#754E36" />
      <stop offset="75%" stop-color="#633F2A" />
      <stop offset="100%" stop-color="#52321E" />
    </linearGradient>

    <!-- Rich Earth Brown Soil Gradient -->
    <linearGradient id="soilGrad1by" x1="0%" y1="0%" x2="0%" y2="100%">
      <stop offset="0%" stop-color="#7A542E" />
      <stop offset="40%" stop-color="#6A481B" />
      <stop offset="100%" stop-color="#4E3114" />
    </linearGradient>

    <!-- Slim 64px Post Timber Incision Pattern -->
    <pattern id="pt-grid-post1-1by" x="64" y="0" width="64" height="42" patternUnits="userSpaceOnUse">
      <rect x="15.5" y="6" width="3" height="10" rx="0.8" fill="#1C0A02" opacity="0.9" />
      <line x1="15.5" y1="16.5" x2="18.5" y2="16.5" stroke="#A37854" stroke-width="0.75" opacity="0.5" />

      <rect x="31.5" y="6" width="3" height="10" rx="0.8" fill="#1C0A02" opacity="0.9" />
      <line x1="31.5" y1="16.5" x2="34.5" y2="16.5" stroke="#A37854" stroke-width="0.75" opacity="0.5" />

      <rect x="47.5" y="6" width="3" height="10" rx="0.8" fill="#1C0A02" opacity="0.9" />
      <line x1="47.5" y1="16.5" x2="50.5" y2="16.5" stroke="#A37854" stroke-width="0.75" opacity="0.5" />

      <rect x="7.5" y="27" width="3" height="10" rx="0.8" fill="#1C0A02" opacity="0.9" />
      <line x1="7.5" y1="37.5" x2="10.5" y2="37.5" stroke="#A37854" stroke-width="0.75" opacity="0.5" />

      <rect x="23.5" y="27" width="3" height="10" rx="0.8" fill="#1C0A02" opacity="0.9" />
      <line x1="23.5" y1="37.5" x2="26.5" y2="37.5" stroke="#A37854" stroke-width="0.75" opacity="0.5" />

      <rect x="39.5" y="27" width="3" height="10" rx="0.8" fill="#1C0A02" opacity="0.9" />
      <line x1="39.5" y1="37.5" x2="42.5" y2="37.5" stroke="#A37854" stroke-width="0.75" opacity="0.5" />

      <rect x="55.5" y="27" width="3" height="10" rx="0.8" fill="#1C0A02" opacity="0.9" />
      <line x1="55.5" y1="37.5" x2="58.5" y2="37.5" stroke="#A37854" stroke-width="0.75" opacity="0.5" />
    </pattern>

    <pattern id="pt-grid-post2-1by" x="176" y="0" width="64" height="42" patternUnits="userSpaceOnUse">
      <rect x="15.5" y="6" width="3" height="10" rx="0.8" fill="#1C0A02" opacity="0.9" />
      <line x1="15.5" y1="16.5" x2="18.5" y2="16.5" stroke="#A37854" stroke-width="0.75" opacity="0.5" />

      <rect x="31.5" y="6" width="3" height="10" rx="0.8" fill="#1C0A02" opacity="0.9" />
      <line x1="31.5" y1="16.5" x2="34.5" y2="16.5" stroke="#A37854" stroke-width="0.75" opacity="0.5" />

      <rect x="47.5" y="6" width="3" height="10" rx="0.8" fill="#1C0A02" opacity="0.9" />
      <line x1="47.5" y1="16.5" x2="50.5" y2="16.5" stroke="#A37854" stroke-width="0.75" opacity="0.5" />

      <rect x="7.5" y="27" width="3" height="10" rx="0.8" fill="#1C0A02" opacity="0.9" />
      <line x1="7.5" y1="37.5" x2="10.5" y2="37.5" stroke="#A37854" stroke-width="0.75" opacity="0.5" />

      <rect x="23.5" y="27" width="3" height="10" rx="0.8" fill="#1C0A02" opacity="0.9" />
      <line x1="23.5" y1="37.5" x2="26.5" y2="37.5" stroke="#A37854" stroke-width="0.75" opacity="0.5" />

      <rect x="39.5" y="27" width="3" height="10" rx="0.8" fill="#1C0A02" opacity="0.9" />
      <line x1="39.5" y1="37.5" x2="42.5" y2="37.5" stroke="#A37854" stroke-width="0.75" opacity="0.5" />

      <rect x="55.5" y="27" width="3" height="10" rx="0.8" fill="#1C0A02" opacity="0.9" />
      <line x1="55.5" y1="37.5" x2="58.5" y2="37.5" stroke="#A37854" stroke-width="0.75" opacity="0.5" />
    </pattern>

    <!-- Rail Patterns -->
    <pattern id="pt-grid-rail1-1by" x="2" y="56" width="42" height="68" patternUnits="userSpaceOnUse">
      <rect x="6" y="15.5" width="10" height="3" rx="0.8" fill="#1C0A02" opacity="0.9" />
      <line x1="16.5" y1="15.5" x2="16.5" y2="18.5" stroke="#A37854" stroke-width="0.75" opacity="0.5" />

      <rect x="6" y="32.5" width="10" height="3" rx="0.8" fill="#1C0A02" opacity="0.9" />
      <line x1="16.5" y1="32.5" x2="16.5" y2="35.5" stroke="#A37854" stroke-width="0.75" opacity="0.5" />

      <rect x="6" y="49.5" width="10" height="3" rx="0.8" fill="#1C0A02" opacity="0.9" />
      <line x1="16.5" y1="49.5" x2="16.5" y2="52.5" stroke="#A37854" stroke-width="0.75" opacity="0.5" />

      <rect x="27" y="7" width="10" height="3" rx="0.8" fill="#1C0A02" opacity="0.9" />
      <line x1="37.5" y1="7" x2="37.5" y2="10" stroke="#A37854" stroke-width="0.75" opacity="0.5" />

      <rect x="27" y="24" width="10" height="3" rx="0.8" fill="#1C0A02" opacity="0.9" />
      <line x1="37.5" y1="24" x2="37.5" y2="27" stroke="#A37854" stroke-width="0.75" opacity="0.5" />

      <rect x="27" y="41" width="10" height="3" rx="0.8" fill="#1C0A02" opacity="0.9" />
      <line x1="37.5" y1="41" x2="37.5" y2="44" stroke="#A37854" stroke-width="0.75" opacity="0.5" />

      <rect x="27" y="58" width="10" height="3" rx="0.8" fill="#1C0A02" opacity="0.9" />
      <line x1="37.5" y1="58" x2="37.5" y2="61" stroke="#A37854" stroke-width="0.75" opacity="0.5" />
    </pattern>

    <pattern id="pt-grid-rail2-left-1by" x="2" y="194" width="42" height="64" patternUnits="userSpaceOnUse">
      <rect x="6" y="14.5" width="10" height="3" rx="0.8" fill="#1C0A02" opacity="0.9" />
      <line x1="16.5" y1="14.5" x2="16.5" y2="17.5" stroke="#A37854" stroke-width="0.75" opacity="0.5" />

      <rect x="6" y="30.5" width="10" height="3" rx="0.8" fill="#1C0A02" opacity="0.9" />
      <line x1="16.5" y1="30.5" x2="16.5" y2="33.5" stroke="#A37854" stroke-width="0.75" opacity="0.5" />

      <rect x="6" y="46.5" width="10" height="3" rx="0.8" fill="#1C0A02" opacity="0.9" />
      <line x1="16.5" y1="46.5" x2="16.5" y2="49.5" stroke="#A37854" stroke-width="0.75" opacity="0.5" />

      <rect x="27" y="6.5" width="10" height="3" rx="0.8" fill="#1C0A02" opacity="0.9" />
      <line x1="37.5" y1="6.5" x2="37.5" y2="9.5" stroke="#A37854" stroke-width="0.75" opacity="0.5" />

      <rect x="27" y="22.5" width="10" height="3" rx="0.8" fill="#1C0A02" opacity="0.9" />
      <line x1="37.5" y1="22.5" x2="37.5" y2="25.5" stroke="#A37854" stroke-width="0.75" opacity="0.5" />

      <rect x="27" y="38.5" width="10" height="3" rx="0.8" fill="#1C0A02" opacity="0.9" />
      <line x1="37.5" y1="38.5" x2="37.5" y2="41.5" stroke="#A37854" stroke-width="0.75" opacity="0.5" />

      <rect x="27" y="54.5" width="10" height="3" rx="0.8" fill="#1C0A02" opacity="0.9" />
      <line x1="37.5" y1="54.5" x2="37.5" y2="57.5" stroke="#A37854" stroke-width="0.75" opacity="0.5" />
    </pattern>

    <pattern id="pt-grid-rail2-right-1by" x="24" y="194" width="42" height="64" patternUnits="userSpaceOnUse">
      <rect x="6" y="14.5" width="10" height="3" rx="0.8" fill="#1C0A02" opacity="0.9" />
      <line x1="16.5" y1="14.5" x2="16.5" y2="17.5" stroke="#A37854" stroke-width="0.75" opacity="0.5" />

      <rect x="6" y="30.5" width="10" height="3" rx="0.8" fill="#1C0A02" opacity="0.9" />
      <line x1="16.5" y1="30.5" x2="16.5" y2="33.5" stroke="#A37854" stroke-width="0.75" opacity="0.5" />

      <rect x="6" y="46.5" width="10" height="3" rx="0.8" fill="#1C0A02" opacity="0.9" />
      <line x1="16.5" y1="46.5" x2="16.5" y2="49.5" stroke="#A37854" stroke-width="0.75" opacity="0.5" />

      <rect x="27" y="6.5" width="10" height="3" rx="0.8" fill="#1C0A02" opacity="0.9" />
      <line x1="37.5" y1="6.5" x2="37.5" y2="9.5" stroke="#A37854" stroke-width="0.75" opacity="0.5" />

      <rect x="27" y="22.5" width="10" height="3" rx="0.8" fill="#1C0A02" opacity="0.9" />
      <line x1="37.5" y1="22.5" x2="37.5" y2="25.5" stroke="#A37854" stroke-width="0.75" opacity="0.5" />

      <rect x="27" y="38.5" width="10" height="3" rx="0.8" fill="#1C0A02" opacity="0.9" />
      <line x1="37.5" y1="38.5" x2="37.5" y2="41.5" stroke="#A37854" stroke-width="0.75" opacity="0.5" />

      <rect x="27" y="54.5" width="10" height="3" rx="0.8" fill="#1C0A02" opacity="0.9" />
      <line x1="37.5" y1="54.5" x2="37.5" y2="57.5" stroke="#A37854" stroke-width="0.75" opacity="0.5" />
    </pattern>

    <pattern id="pt-grid-rail3-right-1by" x="24" y="312" width="42" height="56" patternUnits="userSpaceOnUse">
      <rect x="6" y="12.5" width="10" height="3" rx="0.8" fill="#1C0A02" opacity="0.9" />
      <line x1="16.5" y1="12.5" x2="16.5" y2="15.5" stroke="#A37854" stroke-width="0.75" opacity="0.5" />

      <rect x="6" y="26.5" width="10" height="3" rx="0.8" fill="#1C0A02" opacity="0.9" />
      <line x1="16.5" y1="26.5" x2="16.5" y2="29.5" stroke="#A37854" stroke-width="0.75" opacity="0.5" />

      <rect x="6" y="40.5" width="10" height="3" rx="0.8" fill="#1C0A02" opacity="0.9" />
      <line x1="16.5" y1="40.5" x2="16.5" y2="43.5" stroke="#A37854" stroke-width="0.75" opacity="0.5" />

      <rect x="27" y="5.5" width="10" height="3" rx="0.8" fill="#1C0A02" opacity="0.9" />
      <line x1="37.5" y1="5.5" x2="37.5" y2="8.5" stroke="#A37854" stroke-width="0.75" opacity="0.5" />

      <rect x="27" y="19.5" width="10" height="3" rx="0.8" fill="#1C0A02" opacity="0.9" />
      <line x1="37.5" y1="19.5" x2="37.5" y2="22.5" stroke="#A37854" stroke-width="0.75" opacity="0.5" />

      <rect x="27" y="33.5" width="10" height="3" rx="0.8" fill="#1C0A02" opacity="0.9" />
      <line x1="37.5" y1="33.5" x2="37.5" y2="36.5" stroke="#A37854" stroke-width="0.75" opacity="0.5" />

      <rect x="27" y="47.5" width="10" height="3" rx="0.8" fill="#1C0A02" opacity="0.9" />
      <line x1="37.5" y1="47.5" x2="37.5" y2="50.5" stroke="#A37854" stroke-width="0.75" opacity="0.5" />
    </pattern>

    <!-- Soft Depth Shadow -->
    <filter id="shadow1by" x="-15%" y="-15%" width="135%" height="135%">
      <feDropShadow dx="0" dy="8" stdDeviation="12" flood-color="#000000" flood-opacity="0.45" />
    </filter>
  </defs>

  <!-- ======================================================== -->
  <!-- 100% PURE TRANSPARENT CANVAS -->
  <!-- CONCEPT 1BY: ARCHITECTURAL CEDAR TAN (POST 1) + BOOSTED PINE (POST 2) -->
  <!-- ======================================================== -->
  <g filter="url(#shadow1by)">

    <!-- ======================================================== -->
    <!-- 1ST BIG 'F' (NATURAL CEDAR TAN #C4B294) -->
    <!-- ======================================================== -->
    <g id="Big-F-Cedar-Tan">
      
      <!-- 1. Outer Black Keyline Layer (14.4px stroke) -->
      <path d="M 64 54 L 128 54 L 430 54 C 436 54 440 58 440 64 L 440 110 C 440 116 436 120 430 120 L 128 120 L 128 194 L 176 194 L 176 256 L 128 256 L 128 428 L 64 428 Z" 
            fill="none" 
            stroke="#0B0E0C" 
            stroke-width="14.4" 
            stroke-linejoin="round" />

      <!-- 2. 4.2px Cedar Tan Ribbon (11.4px stroke) -->
      <path d="M 64 54 L 128 54 L 430 54 C 436 54 440 58 440 64 L 440 110 C 440 116 436 120 430 120 L 128 120 L 128 194 L 176 194 L 176 256 L 128 256 L 128 428 L 64 428 Z" 
            fill="none" 
            stroke="#C4B294" 
            stroke-width="11.4" 
            stroke-linejoin="round" />

      <!-- 3. Inner Black Inlay Line (3.0px stroke) -->
      <path d="M 64 54 L 128 54 L 430 54 C 436 54 440 58 440 64 L 440 110 C 440 116 436 120 430 120 L 128 120 L 128 194 L 176 194 L 176 256 L 128 256 L 128 428 L 64 428 Z" 
            fill="none" 
            stroke="#0B0E0C" 
            stroke-width="3.0" 
            stroke-linejoin="round" />

      <!-- 4. Timber Wood Core Fill -->
      <path d="M 64 54 L 128 54 L 430 54 C 440 54 440 58 440 64 L 440 110 C 440 116 436 120 430 120 L 128 120 L 128 194 L 176 194 L 176 256 L 128 256 L 128 428 L 64 428 Z" 
            fill="url(#ptWarmWoodGrad1by)" 
            stroke="none" />

      <!-- Timber Incision Texture Overlay -->
      <rect x="66" y="56" width="60" height="370" fill="url(#pt-grid-post1-1by)" />
      <rect x="130" y="56" width="298" height="62" fill="url(#pt-grid-rail1-1by)" />
      <rect x="130" y="196" width="44" height="58" fill="url(#pt-grid-rail2-left-1by)" />

      <!-- Hardware Black Bullet Rail Endcap (Tip at x=440) -->
      <path d="M 430 54 L 434 54 C 438 54 440 58 440 64 L 440 110 C 440 116 438 120 434 120 L 430 120 Z" 
            fill="#0B0E0C" 
            stroke="#0B0E0C" 
            stroke-width="1.2" />

      <!-- Post 1: Taller Vertical Shoulders & Cedar Tan Cap -->
      <rect x="52" y="43" width="88" height="13" rx="3.5" fill="#C4B294" stroke="#0B0E0C" stroke-width="2.8" />
      <path d="M 54 43 L 96 22 L 96 43 Z" fill="url(#cedarTanCapLeft1by)" stroke="#0B0E0C" stroke-width="2.2" stroke-linejoin="round" />
      <path d="M 96 22 L 138 43 L 96 43 Z" fill="url(#cedarTanCapRight1by)" stroke="#0B0E0C" stroke-width="2.2" stroke-linejoin="round" />

      <!-- Fine 2px Black Internal Carpentry Seams -->
      <line x1="128" y1="54" x2="128" y2="120" stroke="#0B0E0C" stroke-width="2" />
      <line x1="128" y1="194" x2="128" y2="256" stroke="#0B0E0C" stroke-width="2" />
      <line x1="176" y1="194" x2="176" y2="256" stroke="#0B0E0C" stroke-width="2" />
    </g>


    <!-- ======================================================== -->
    <!-- 2ND SMALL 'F' (BOOSTED PINE-SPRUCE GREEN #3B7D57) -->
    <!-- ======================================================== -->
    <g id="Small-F-Boosted-Pine">

      <!-- 1. Outer Black Keyline Layer (14.4px stroke) -->
      <path d="M 176 194 L 240 194 L 377 194 C 381 194 385 198 385 204 L 385 246 C 385 252 381 256 377 256 L 240 256 L 240 312 L 332 312 C 336 312 340 316 340 321 L 340 357 C 340 362 336 366 332 366 L 240 366 L 240 428 L 176 428 Z" 
            fill="none" 
            stroke="#0B0E0C" 
            stroke-width="14.4" 
            stroke-linejoin="round" />

      <!-- 2. 4.2px Boosted Pine Green Ribbon (11.4px stroke) -->
      <path d="M 176 194 L 240 194 L 377 194 C 381 194 385 198 385 204 L 385 246 C 385 252 381 256 377 256 L 240 256 L 240 312 L 332 312 C 336 312 340 316 340 321 L 340 357 C 340 362 336 366 332 366 L 240 366 L 240 428 L 176 428 Z" 
            fill="none" 
            stroke="#3B7D57" 
            stroke-width="11.4" 
            stroke-linejoin="round" />

      <!-- 3. Inner Black Inlay Line (3.0px stroke) -->
      <path d="M 176 194 L 240 194 L 377 194 C 381 194 385 198 385 204 L 385 246 C 385 252 381 256 377 256 L 240 256 L 240 312 L 332 312 C 336 312 340 316 340 321 L 340 357 C 340 362 336 366 332 366 L 240 366 L 240 428 L 176 428 Z" 
            fill="none" 
            stroke="#0B0E0C" 
            stroke-width="3.0" 
            stroke-linejoin="round" />

      <!-- 4. Timber Wood Core Fill -->
      <path d="M 176 194 L 240 194 L 377 194 C 381 194 385 198 385 204 L 385 246 C 385 252 381 256 377 256 L 240 256 L 240 312 L 332 312 C 336 312 340 316 340 321 L 340 357 C 340 362 336 366 332 366 L 240 366 L 240 428 L 176 428 Z" 
            fill="url(#ptWarmWoodGrad1by)" 
            stroke="none" />

      <!-- Timber Incision Texture Overlay -->
      <rect x="178" y="196" width="60" height="230" fill="url(#pt-grid-post2-1by)" />
      <rect x="242" y="196" width="133" height="58" fill="url(#pt-grid-rail2-right-1by)" />
      <rect x="242" y="314" width="88" height="50" fill="url(#pt-grid-rail3-right-1by)" />

      <!-- Hardware Black Bullet Rail Endcaps (Mid=385, Bot=340) -->
      <path d="M 377 194 L 381 194 C 383.5 194 385 197 385 202 L 385 248 C 385 253 383.5 256 381 256 L 377 256 Z" 
            fill="#0B0E0C" 
            stroke="#0B0E0C" 
            stroke-width="1.2" />

      <path d="M 332 312 L 336 312 C 338.5 312 340 315 340 320 L 340 358 C 340 363 338.5 366 336 366 L 332 366 Z" 
            fill="#0B0E0C" 
            stroke="#0B0E0C" 
            stroke-width="1.2" />

      <!-- Post 2: Taller Vertical Shoulders & Boosted Pine Cap -->
      <rect x="164" y="183" width="88" height="13" rx="3.5" fill="#3B7D57" stroke="#0B0E0C" stroke-width="2.8" />
      <path d="M 166 183 L 208 162 L 208 183 Z" fill="url(#pineSpruceCapLeft1by)" stroke="#0B0E0C" stroke-width="2.2" stroke-linejoin="round" />
      <path d="M 208 162 L 250 183 L 208 183 Z" fill="url(#pineSpruceCapRight1by)" stroke="#0B0E0C" stroke-width="2.2" stroke-linejoin="round" />

      <!-- Fine 2px Black Internal Carpentry Seams -->
      <line x1="240" y1="194" x2="240" y2="256" stroke="#0B0E0C" stroke-width="2" />
      <line x1="240" y1="312" x2="240" y2="366" stroke="#0B0E0C" stroke-width="2" />
    </g>


    <!-- ======================================================== -->
    <!-- 16px FRAMED DIRT LINE (y=428..444) — COLLINEAR TERMINATION AT x=300 -->
    <!-- ======================================================== -->
    <g id="Framed-Dirt-Baseplate-Collinear-1by">
      <rect x="48" y="428" width="244" height="16" rx="4" fill="url(#soilGrad1by)" stroke="#0B0E0C" stroke-width="2" />

      <path d="M 48 428 L 44 428 C 41.5 428 40 430.5 40 436 C 40 441.5 41.5 444 44 444 L 48 444 Z" 
            fill="#0B0E0C" 
            stroke="#0B0E0C" 
            stroke-width="1.2" 
            stroke-linejoin="round" />

      <path d="M 292 428 L 296 428 C 298.5 428 300 430.5 300 436 C 300 441.5 298.5 444 296 444 L 292 444 Z" 
            fill="#0B0E0C" 
            stroke="#0B0E0C" 
            stroke-width="1.2" 
            stroke-linejoin="round" />

      <line x1="48" y1="428" x2="48" y2="444" stroke="#0B0E0C" stroke-width="1.2" />
      <line x1="292" y1="428" x2="292" y2="444" stroke="#0B0E0C" stroke-width="1.2" />
    </g>

  </g>

  <!-- ======================================================== -->
  <!-- 2 REFINED GRASS TUFTS (ROOTS AT y=436) -->
  <!-- ======================================================== -->
  <g id="Front-Grass-Layer-1by" filter="drop-shadow(0 4px 6px rgba(0,0,0,0.5))">
    <g transform="translate(36, 406)">
      <path d="M 14 30 C 12 18 5 6 0 0 C 9 9 18 19 18 30 Z" fill="#0C3D20" />
      <path d="M 22 30 C 24 15 31 4 38 0 C 33 9 29 19 26 30 Z" fill="#1B7A45" />
      <path d="M 34 30 C 36 11 46 2 58 0 C 48 9 43 19 38 30 Z" fill="#4ADE80" />
      <path d="M 46 30 C 43 17 38 9 31 2 C 41 9 48 19 50 30 Z" fill="#28874B" />
      <path d="M 56 30 C 60 13 67 2 77 0 C 70 11 62 21 60 30 Z" fill="#1B7A45" />
      <path d="M 66 30 C 68 17 75 9 85 4 C 77 13 72 21 70 30 Z" fill="#4ADE80" />
      <path d="M 80 30 C 82 19 92 11 102 6 C 94 15 90 23 85 30 Z" fill="#0C3D20" />
    </g>

    <g transform="translate(156, 406) scale(1.15, 1)">
      <path d="M 12 30 C 10 17 2 9 0 2 C 10 9 17 19 17 30 Z" fill="#1B7A45" />
      <path d="M 22 30 C 27 13 34 2 44 0 C 36 9 31 19 26 30 Z" fill="#4ADE80" />
      <path d="M 36 30 C 39 17 46 9 56 4 C 48 13 43 21 41 30 Z" fill="#0C3D20" />
      <path d="M 53 30 C 51 13 46 4 39 0 C 48 6 56 17 58 30 Z" fill="#28874B" />
      <path d="M 65 30 C 70 11 80 2 92 0 C 82 9 75 19 70 30 Z" fill="#4ADE80" />
      <path d="M 82 30 C 84 17 94 9 104 4 C 96 13 92 21 87 30 Z" fill="#1B7A45" />
      <path d="M 97 30 C 99 19 109 11 119 6 C 111 15 107 23 102 30 Z" fill="#0C3D20" />
    </g>
  </g>
</svg>
