<svg xmlns="http://www.w3.org/2000/svg" viewBox="0 0 512 512" width="100%" height="100%">
  <defs>
    <!-- Big 'F': Vibrant Emerald Green (#2EA055) -->
    <linearGradient id="brightEmeraldGrad1cc" x1="0%" y1="0%" x2="100%" y2="100%">
      <stop offset="0%" stop-color="#4ADE80" />
      <stop offset="45%" stop-color="#2EA055" />
      <stop offset="100%" stop-color="#1B7A45" />
    </linearGradient>

    <linearGradient id="brightEmeraldCapLeft1cc" x1="0%" y1="100%" x2="100%" y2="0%">
      <stop offset="0%" stop-color="#2EA055" />
      <stop offset="50%" stop-color="#3DC06F" />
      <stop offset="100%" stop-color="#6EE7A0" />
    </linearGradient>

    <linearGradient id="brightEmeraldCapRight1cc" x1="0%" y1="0%" x2="100%" y2="100%">
      <stop offset="0%" stop-color="#2EA055" />
      <stop offset="50%" stop-color="#1B7A45" />
      <stop offset="100%" stop-color="#12562F" />
    </linearGradient>

    <!-- Small 'F': Golden-Tan Hybrid (#DEB35E) -->
    <linearGradient id="goldenTanGrad1cc" x1="0%" y1="0%" x2="100%" y2="100%">
      <stop offset="0%" stop-color="#F7DF9E" />
      <stop offset="45%" stop-color="#DEB35E" />
      <stop offset="100%" stop-color="#A87A24" />
    </linearGradient>

    <linearGradient id="goldenTanCapLeft1cc" x1="0%" y1="100%" x2="100%" y2="0%">
      <stop offset="0%" stop-color="#DEB35E" />
      <stop offset="50%" stop-color="#ECC675" />
      <stop offset="100%" stop-color="#FFF0CC" />
    </linearGradient>

    <linearGradient id="goldenTanCapRight1cc" x1="0%" y1="0%" x2="100%" y2="100%">
      <stop offset="0%" stop-color="#DEB35E" />
      <stop offset="50%" stop-color="#BD9038" />
      <stop offset="100%" stop-color="#8C6318" />
    </linearGradient>

    <linearGradient id="ptWarmWoodGrad1cc" x1="0%" y1="0%" x2="100%" y2="0%">
      <stop offset="0%" stop-color="#8A5E44" />
      <stop offset="35%" stop-color="#754E36" />
      <stop offset="75%" stop-color="#633F2A" />
      <stop offset="100%" stop-color="#52321E" />
    </linearGradient>

    <linearGradient id="soilGrad1cc" x1="0%" y1="0%" x2="0%" y2="100%">
      <stop offset="0%" stop-color="#7A542E" />
      <stop offset="40%" stop-color="#6A481B" />
      <stop offset="100%" stop-color="#4E3114" />
    </linearGradient>

    <!-- Incision Patterns calibrated for 50% (32px) Bay -->
    <pattern id="pt-grid-post1-1cc" x="64" y="0" width="64" height="42" patternUnits="userSpaceOnUse">
      <rect x="15.5" y="6" width="3" height="10" rx="0.8" fill="#1C0A02" opacity="0.9" />
      <line x1="15.5" y1="16.5" x2="18.5" y2="16.5" stroke="#A37854" stroke-width="0.75" opacity="0.5" />
      <rect x="31.5" y="6" width="3" height="10" rx="0.8" fill="#1C0A02" opacity="0.9" />
      <line x1="31.5" y1="16.5" x2="34.5" y2="16.5" stroke="#A37854" stroke-width="0.75" opacity="0.5" />
      <rect x="47.5" y="6" width="3" height="10" rx="0.8" fill="#1C0A02" opacity="0.9" />
      <line x1="47.5" y1="16.5" x2="50.5" y2="16.5" stroke="#A37854" stroke-width="0.75" opacity="0.5" />
      <rect x="7.5" y="27" width="3" height="10" rx="0.8" fill="#1C0A02" opacity="0.9" />
      <line x1="7.5" y1="37.5" x2="10.5" y2="37.5" stroke="#A37854" stroke-width="0.75" opacity="0.5" />
      <rect x="23.5" y="27" width="3" height="10" rx="0.8" fill="#1C0A02" opacity="0.9" />
      <line x1="23.5" y1="37.5" x2="26.5" y2="37.5" stroke="#A37854" stroke-width="0.75" opacity="0.5" />
      <rect x="39.5" y="27" width="3" height="10" rx="0.8" fill="#1C0A02" opacity="0.9" />
      <line x1="39.5" y1="37.5" x2="42.5" y2="37.5" stroke="#A37854" stroke-width="0.75" opacity="0.5" />
      <rect x="55.5" y="27" width="3" height="10" rx="0.8" fill="#1C0A02" opacity="0.9" />
      <line x1="55.5" y1="37.5" x2="58.5" y2="37.5" stroke="#A37854" stroke-width="0.75" opacity="0.5" />
    </pattern>

    <pattern id="pt-grid-post2-1cc" x="160" y="0" width="64" height="42" patternUnits="userSpaceOnUse">
      <rect x="15.5" y="6" width="3" height="10" rx="0.8" fill="#1C0A02" opacity="0.9" />
      <line x1="15.5" y1="16.5" x2="18.5" y2="16.5" stroke="#A37854" stroke-width="0.75" opacity="0.5" />
      <rect x="31.5" y="6" width="3" height="10" rx="0.8" fill="#1C0A02" opacity="0.9" />
      <line x1="31.5" y1="16.5" x2="34.5" y2="16.5" stroke="#A37854" stroke-width="0.75" opacity="0.5" />
      <rect x="47.5" y="6" width="3" height="10" rx="0.8" fill="#1C0A02" opacity="0.9" />
      <line x1="47.5" y1="16.5" x2="50.5" y2="16.5" stroke="#A37854" stroke-width="0.75" opacity="0.5" />
      <rect x="7.5" y="27" width="3" height="10" rx="0.8" fill="#1C0A02" opacity="0.9" />
      <line x1="7.5" y1="37.5" x2="10.5" y2="37.5" stroke="#A37854" stroke-width="0.75" opacity="0.5" />
      <rect x="23.5" y="27" width="3" height="10" rx="0.8" fill="#1C0A02" opacity="0.9" />
      <line x1="23.5" y1="37.5" x2="26.5" y2="37.5" stroke="#A37854" stroke-width="0.75" opacity="0.5" />
      <rect x="39.5" y="27" width="3" height="10" rx="0.8" fill="#1C0A02" opacity="0.9" />
      <line x1="39.5" y1="37.5" x2="42.5" y2="37.5" stroke="#A37854" stroke-width="0.75" opacity="0.5" />
      <rect x="55.5" y="27" width="3" height="10" rx="0.8" fill="#1C0A02" opacity="0.9" />
      <line x1="55.5" y1="37.5" x2="58.5" y2="37.5" stroke="#A37854" stroke-width="0.75" opacity="0.5" />
    </pattern>

    <pattern id="pt-grid-rail1-1cc" x="2" y="56" width="42" height="68" patternUnits="userSpaceOnUse">
      <rect x="6" y="15.5" width="10" height="3" rx="0.8" fill="#1C0A02" opacity="0.9" />
      <line x1="16.5" y1="15.5" x2="16.5" y2="18.5" stroke="#A37854" stroke-width="0.75" opacity="0.5" />
      <rect x="6" y="32.5" width="10" height="3" rx="0.8" fill="#1C0A02" opacity="0.9" />
      <line x1="16.5" y1="32.5" x2="16.5" y2="35.5" stroke="#A37854" stroke-width="0.75" opacity="0.5" />
      <rect x="6" y="49.5" width="10" height="3" rx="0.8" fill="#1C0A02" opacity="0.9" />
      <line x1="16.5" y1="49.5" x2="16.5" y2="52.5" stroke="#A37854" stroke-width="0.75" opacity="0.5" />
      <rect x="27" y="7" width="10" height="3" rx="0.8" fill="#1C0A02" opacity="0.9" />
      <line x1="37.5" y1="7" x2="37.5" y2="10" stroke="#A37854" stroke-width="0.75" opacity="0.5" />
      <rect x="27" y="24" width="10" height="3" rx="0.8" fill="#1C0A02" opacity="0.9" />
      <line x1="37.5" y1="24" x2="37.5" y2="27" stroke="#A37854" stroke-width="0.75" opacity="0.5" />
      <rect x="27" y="41" width="10" height="3" rx="0.8" fill="#1C0A02" opacity="0.9" />
      <line x1="37.5" y1="41" x2="37.5" y2="44" stroke="#A37854" stroke-width="0.75" opacity="0.5" />
      <rect x="27" y="58" width="10" height="3" rx="0.8" fill="#1C0A02" opacity="0.9" />
      <line x1="37.5" y1="58" x2="37.5" y2="61" stroke="#A37854" stroke-width="0.75" opacity="0.5" />
    </pattern>

    <pattern id="pt-grid-rail2-left-1cc" x="2" y="182" width="42" height="64" patternUnits="userSpaceOnUse">
      <rect x="6" y="14.5" width="10" height="3" rx="0.8" fill="#1C0A02" opacity="0.9" />
      <line x1="16.5" y1="14.5" x2="16.5" y2="17.5" stroke="#A37854" stroke-width="0.75" opacity="0.5" />
      <rect x="6" y="30.5" width="10" height="3" rx="0.8" fill="#1C0A02" opacity="0.9" />
      <line x1="16.5" y1="30.5" x2="16.5" y2="33.5" stroke="#A37854" stroke-width="0.75" opacity="0.5" />
      <rect x="6" y="46.5" width="10" height="3" rx="0.8" fill="#1C0A02" opacity="0.9" />
      <line x1="16.5" y1="46.5" x2="16.5" y2="49.5" stroke="#A37854" stroke-width="0.75" opacity="0.5" />
      <rect x="27" y="6.5" width="10" height="3" rx="0.8" fill="#1C0A02" opacity="0.9" />
      <line x1="37.5" y1="6.5" x2="37.5" y2="9.5" stroke="#A37854" stroke-width="0.75" opacity="0.5" />
      <rect x="27" y="22.5" width="10" height="3" rx="0.8" fill="#1C0A02" opacity="0.9" />
      <line x1="37.5" y1="22.5" x2="37.5" y2="25.5" stroke="#A37854" stroke-width="0.75" opacity="0.5" />
      <rect x="27" y="38.5" width="10" height="3" rx="0.8" fill="#1C0A02" opacity="0.9" />
      <line x1="37.5" y1="38.5" x2="37.5" y2="41.5" stroke="#A37854" stroke-width="0.75" opacity="0.5" />
      <rect x="27" y="54.5" width="10" height="3" rx="0.8" fill="#1C0A02" opacity="0.9" />
      <line x1="37.5" y1="54.5" x2="37.5" y2="57.5" stroke="#A37854" stroke-width="0.75" opacity="0.5" />
    </pattern>

    <pattern id="pt-grid-rail2-right-1cc" x="14" y="182" width="42" height="64" patternUnits="userSpaceOnUse">
      <rect x="6" y="14.5" width="10" height="3" rx="0.8" fill="#1C0A02" opacity="0.9" />
      <line x1="16.5" y1="14.5" x2="16.5" y2="17.5" stroke="#A37854" stroke-width="0.75" opacity="0.5" />
      <rect x="6" y="30.5" width="10" height="3" rx="0.8" fill="#1C0A02" opacity="0.9" />
      <line x1="16.5" y1="30.5" x2="16.5" y2="33.5" stroke="#A37854" stroke-width="0.75" opacity="0.5" />
      <rect x="6" y="46.5" width="10" height="3" rx="0.8" fill="#1C0A02" opacity="0.9" />
      <line x1="16.5" y1="46.5" x2="16.5" y2="49.5" stroke="#A37854" stroke-width="0.75" opacity="0.5" />
      <rect x="27" y="6.5" width="10" height="3" rx="0.8" fill="#1C0A02" opacity="0.9" />
      <line x1="37.5" y1="6.5" x2="37.5" y2="9.5" stroke="#A37854" stroke-width="0.75" opacity="0.5" />
      <rect x="27" y="22.5" width="10" height="3" rx="0.8" fill="#1C0A02" opacity="0.9" />
      <line x1="37.5" y1="22.5" x2="37.5" y2="25.5" stroke="#A37854" stroke-width="0.75" opacity="0.5" />
      <rect x="27" y="38.5" width="10" height="3" rx="0.8" fill="#1C0A02" opacity="0.9" />
      <line x1="37.5" y1="38.5" x2="37.5" y2="41.5" stroke="#A37854" stroke-width="0.75" opacity="0.5" />
      <rect x="27" y="54.5" width="10" height="3" rx="0.8" fill="#1C0A02" opacity="0.9" />
      <line x1="37.5" y1="54.5" x2="37.5" y2="57.5" stroke="#A37854" stroke-width="0.75" opacity="0.5" />
    </pattern>

    <pattern id="pt-grid-rail3-right-1cc" x="14" y="304" width="42" height="56" patternUnits="userSpaceOnUse">
      <rect x="6" y="12.5" width="10" height="3" rx="0.8" fill="#1C0A02" opacity="0.9" />
      <line x1="16.5" y1="12.5" x2="16.5" y2="15.5" stroke="#A37854" stroke-width="0.75" opacity="0.5" />
      <rect x="6" y="26.5" width="10" height="3" rx="0.8" fill="#1C0A02" opacity="0.9" />
      <line x1="16.5" y1="26.5" x2="16.5" y2="29.5" stroke="#A37854" stroke-width="0.75" opacity="0.5" />
      <rect x="6" y="40.5" width="10" height="3" rx="0.8" fill="#1C0A02" opacity="0.9" />
      <line x1="16.5" y1="40.5" x2="16.5" y2="43.5" stroke="#A37854" stroke-width="0.75" opacity="0.5" />
      <rect x="27" y="5.5" width="10" height="3" rx="0.8" fill="#1C0A02" opacity="0.9" />
      <line x1="37.5" y1="5.5" x2="37.5" y2="8.5" stroke="#A37854" stroke-width="0.75" opacity="0.5" />
      <rect x="27" y="19.5" width="10" height="3" rx="0.8" fill="#1C0A02" opacity="0.9" />
      <line x1="37.5" y1="19.5" x2="37.5" y2="22.5" stroke="#A37854" stroke-width="0.75" opacity="0.5" />
      <rect x="27" y="33.5" width="10" height="3" rx="0.8" fill="#1C0A02" opacity="0.9" />
      <line x1="37.5" y1="33.5" x2="37.5" y2="36.5" stroke="#A37854" stroke-width="0.75" opacity="0.5" />
      <rect x="27" y="47.5" width="10" height="3" rx="0.8" fill="#1C0A02" opacity="0.9" />
      <line x1="37.5" y1="47.5" x2="37.5" y2="50.5" stroke="#A37854" stroke-width="0.75" opacity="0.5" />
    </pattern>

    <filter id="shadow1cc" x="-15%" y="-15%" width="135%" height="135%">
      <feDropShadow dx="0" dy="8" stdDeviation="12" flood-color="#000000" flood-opacity="0.45" />
    </filter>
  </defs>

  <!-- ======================================================== -->
  <!-- 100% PURE TRANSPARENT CANVAS -->
  <!-- CONCEPT 1CC: 3 EQUAL 62px HORIZONTAL VOIDS -->
  <!-- 50% (1/2) BAY RATIO: Bay Void = 32px (x=128..160) -->
  <!-- SLIM 64px POSTS: Post 1 (64..128), Post 2 (160..224) -->
  <!-- ======================================================== -->
  <g filter="url(#shadow1cc)">

    <!-- 1ST BIG 'F' -->
    <g id="Big-F-Bright-Emerald">
      <path d="M 64 54 L 128 54 L 430 54 C 436 54 440 58 440 64 L 440 110 C 440 116 436 120 430 120 L 128 120 L 128 182 L 160 182 L 160 242 L 128 242 L 128 420 L 64 420 Z" fill="none" stroke="#0B0E0C" stroke-width="14.4" stroke-linejoin="round" />
      <path d="M 64 54 L 128 54 L 430 54 C 436 54 440 58 440 64 L 440 110 C 440 116 436 120 430 120 L 128 120 L 128 182 L 160 182 L 160 242 L 128 242 L 128 420 L 64 420 Z" fill="none" stroke="#2EA055" stroke-width="11.4" stroke-linejoin="round" />
      <path d="M 64 54 L 128 54 L 430 54 C 436 54 440 58 440 64 L 440 110 C 440 116 436 120 430 120 L 128 120 L 128 182 L 160 182 L 160 242 L 128 242 L 128 420 L 64 420 Z" fill="none" stroke="#0B0E0C" stroke-width="3.0" stroke-linejoin="round" />
      <path d="M 64 54 L 128 54 L 430 54 C 440 54 440 58 440 64 L 440 110 C 440 116 436 120 430 120 L 128 120 L 128 182 L 160 182 L 160 242 L 128 242 L 128 420 L 64 420 Z" fill="url(#ptWarmWoodGrad1cc)" stroke="none" />

      <rect x="66" y="56" width="60" height="362" fill="url(#pt-grid-post1-1cc)" />
      <rect x="130" y="56" width="298" height="62" fill="url(#pt-grid-rail1-1cc)" />
      <rect x="130" y="184" width="28" height="56" fill="url(#pt-grid-rail2-left-1cc)" />

      <path d="M 430 54 L 434 54 C 438 54 440 58 440 64 L 440 110 C 440 116 438 120 434 120 L 430 120 Z" fill="#0B0E0C" stroke="#0B0E0C" stroke-width="1.2" />

      <rect x="52" y="43" width="88" height="13" rx="3.5" fill="#2EA055" stroke="#0B0E0C" stroke-width="2.8" />
      <path d="M 54 43 L 96 22 L 96 43 Z" fill="url(#brightEmeraldCapLeft1cc)" stroke="#0B0E0C" stroke-width="2.2" stroke-linejoin="round" />
      <path d="M 96 22 L 138 43 L 96 43 Z" fill="url(#brightEmeraldCapRight1cc)" stroke="#0B0E0C" stroke-width="2.2" stroke-linejoin="round" />

      <line x1="128" y1="54" x2="128" y2="120" stroke="#0B0E0C" stroke-width="2" />
      <line x1="128" y1="182" x2="128" y2="242" stroke="#0B0E0C" stroke-width="2" />
      <line x1="160" y1="182" x2="160" y2="242" stroke="#0B0E0C" stroke-width="2" />
    </g>

    <!-- 2ND SMALL 'F' -->
    <g id="Small-F-Golden-Tan">
      <path d="M 160 182 L 224 182 L 378 182 C 382 182 386 186 386 192 L 386 232 C 386 238 382 242 378 242 L 224 242 L 224 304 L 333 304 C 337 304 341 308 341 313 L 341 349 C 341 354 337 358 333 358 L 224 358 L 224 420 L 160 420 Z" fill="none" stroke="#0B0E0C" stroke-width="14.4" stroke-linejoin="round" />
      <path d="M 160 182 L 224 182 L 378 182 C 382 182 386 186 386 192 L 386 232 C 386 238 382 242 378 242 L 224 242 L 224 304 L 333 304 C 337 304 341 308 341 313 L 341 349 C 341 354 337 358 333 358 L 224 358 L 224 420 L 160 420 Z" fill="none" stroke="#DEB35E" stroke-width="11.4" stroke-linejoin="round" />
      <path d="M 160 182 L 224 182 L 378 182 C 382 182 386 186 386 192 L 386 232 C 386 238 382 242 378 242 L 224 242 L 224 304 L 333 304 C 337 304 341 308 341 313 L 341 349 C 341 354 337 358 333 358 L 224 358 L 224 420 L 160 420 Z" fill="none" stroke="#0B0E0C" stroke-width="3.0" stroke-linejoin="round" />
      <path d="M 160 182 L 224 182 L 378 182 C 382 182 386 186 386 192 L 386 232 C 386 238 382 242 378 242 L 224 242 L 224 304 L 333 304 C 337 304 341 308 341 313 L 341 349 C 341 354 337 358 333 358 L 224 358 L 224 420 L 160 420 Z" fill="url(#ptWarmWoodGrad1cc)" stroke="none" />

      <rect x="162" y="184" width="60" height="234" fill="url(#pt-grid-post2-1cc)" />
      <rect x="226" y="184" width="150" height="56" fill="url(#pt-grid-rail2-right-1cc)" />
      <rect x="226" y="306" width="105" height="50" fill="url(#pt-grid-rail3-right-1cc)" />

      <path d="M 378 182 L 382 182 C 384.5 182 386 185 386 190 L 386 234 C 386 239 384.5 242 382 242 L 378 242 Z" fill="#0B0E0C" stroke="#0B0E0C" stroke-width="1.2" />
      <path d="M 333 304 L 337 304 C 339.5 304 341 307 341 312 L 341 350 C 341 355 339.5 358 337 358 L 333 358 Z" fill="#0B0E0C" stroke="#0B0E0C" stroke-width="1.2" />

      <rect x="148" y="171" width="88" height="13" rx="3.5" fill="#DEB35E" stroke="#0B0E0C" stroke-width="2.8" />
      <path d="M 150 171 L 192 150 L 192 171 Z" fill="url(#goldenTanCapLeft1cc)" stroke="#0B0E0C" stroke-width="2.2" stroke-linejoin="round" />
      <path d="M 192 150 L 234 171 L 192 171 Z" fill="url(#goldenTanCapRight1cc)" stroke="#0B0E0C" stroke-width="2.2" stroke-linejoin="round" />

      <line x1="224" y1="182" x2="224" y2="242" stroke="#0B0E0C" stroke-width="2" />
      <line x1="224" y1="304" x2="224" y2="358" stroke="#0B0E0C" stroke-width="2" />
    </g>

    <!-- 16px FRAMED DIRT LINE -->
    <g id="Framed-Dirt-Baseplate-Collinear-1cc">
      <rect x="48" y="420" width="248" height="16" rx="4" fill="url(#soilGrad1cc)" stroke="#0B0E0C" stroke-width="2" />
      <path d="M 48 420 L 44 420 C 41.5 420 40 422.5 40 428 C 40 433.5 41.5 436 44 436 L 48 436 Z" fill="#0B0E0C" stroke="#0B0E0C" stroke-width="1.2" stroke-linejoin="round" />
      <path d="M 296 420 L 300 420 C 302.5 420 304 422.5 304 428 C 304 433.5 302.5 436 300 436 L 296 436 Z" fill="#0B0E0C" stroke="#0B0E0C" stroke-width="1.2" stroke-linejoin="round" />
      <line x1="48" y1="420" x2="48" y2="436" stroke="#0B0E0C" stroke-width="1.2" />
      <line x1="296" y1="420" x2="296" y2="436" stroke="#0B0E0C" stroke-width="1.2" />
    </g>

  </g>

  <!-- 2 REFINED GRASS TUFTS -->
  <g id="Front-Grass-Layer-1cc" filter="drop-shadow(0 4px 6px rgba(0,0,0,0.5))">
    <g transform="translate(36, 398)">
      <path d="M 14 30 C 12 18 5 6 0 0 C 9 9 18 19 18 30 Z" fill="#0C3D20" />
      <path d="M 22 30 C 24 15 31 4 38 0 C 33 9 29 19 26 30 Z" fill="#1B7A45" />
      <path d="M 34 30 C 36 11 46 2 58 0 C 48 9 43 19 38 30 Z" fill="#4ADE80" />
      <path d="M 46 30 C 43 17 38 9 31 2 C 41 9 48 19 50 30 Z" fill="#28874B" />
      <path d="M 56 30 C 60 13 67 2 77 0 C 70 11 62 21 60 30 Z" fill="#1B7A45" />
      <path d="M 66 30 C 68 17 75 9 85 4 C 77 13 72 21 70 30 Z" fill="#4ADE80" />
      <path d="M 80 30 C 82 19 92 11 102 6 C 94 15 90 23 85 30 Z" fill="#0C3D20" />
    </g>
    <g transform="translate(144, 398) scale(1.2, 1)">
      <path d="M 12 30 C 10 17 2 9 0 2 C 10 9 17 19 17 30 Z" fill="#1B7A45" />
      <path d="M 22 30 C 27 13 34 2 44 0 C 36 9 31 19 26 30 Z" fill="#4ADE80" />
      <path d="M 36 30 C 39 17 46 9 56 4 C 48 13 43 21 41 30 Z" fill="#0C3D20" />
      <path d="M 53 30 C 51 13 46 4 39 0 C 48 6 56 17 58 30 Z" fill="#28874B" />
      <path d="M 65 30 C 70 11 80 2 92 0 C 82 9 75 19 70 30 Z" fill="#4ADE80" />
      <path d="M 82 30 C 84 17 94 9 104 4 C 96 13 92 21 87 30 Z" fill="#1B7A45" />
      <path d="M 97 30 C 99 19 109 11 119 6 C 111 15 107 23 102 30 Z" fill="#0C3D20" />
    </g>
  </g>
</svg>
