<svg xmlns="http://www.w3.org/2000/svg" viewBox="0 0 512 512" width="100%" height="100%">
  <defs>
    <!-- Vibrant Bright Emerald Green (Big 'F') -->
    <linearGradient id="brightEmeraldGrad1aj" x1="0%" y1="0%" x2="100%" y2="100%">
      <stop offset="0%" stop-color="#4ADE80" />
      <stop offset="45%" stop-color="#2EA055" />
      <stop offset="100%" stop-color="#1E7A3E" />
    </linearGradient>

    <linearGradient id="brightEmeraldCapLeft1aj" x1="0%" y1="100%" x2="100%" y2="0%">
      <stop offset="0%" stop-color="#2EA055" />
      <stop offset="50%" stop-color="#3DC06F" />
      <stop offset="100%" stop-color="#6EE7A0" />
    </linearGradient>

    <linearGradient id="brightEmeraldCapRight1aj" x1="0%" y1="0%" x2="100%" y2="100%">
      <stop offset="0%" stop-color="#2EA055" />
      <stop offset="50%" stop-color="#1B7A45" />
      <stop offset="100%" stop-color="#12562F" />
    </linearGradient>

    <!-- Muted Sage-Spruce Green (Small 'F') -->
    <linearGradient id="sageSpruceGrad1aj" x1="0%" y1="0%" x2="100%" y2="100%">
      <stop offset="0%" stop-color="#4C8564" />
      <stop offset="45%" stop-color="#366A4D" />
      <stop offset="100%" stop-color="#254F38" />
    </linearGradient>

    <linearGradient id="sageSpruceCapLeft1aj" x1="0%" y1="100%" x2="100%" y2="0%">
      <stop offset="0%" stop-color="#366A4D" />
      <stop offset="50%" stop-color="#4A8462" />
      <stop offset="100%" stop-color="#619E7A" />
    </linearGradient>

    <linearGradient id="sageSpruceCapRight1aj" x1="0%" y1="0%" x2="100%" y2="100%">
      <stop offset="0%" stop-color="#366A4D" />
      <stop offset="50%" stop-color="#28543B" />
      <stop offset="100%" stop-color="#1A3E2A" />
    </linearGradient>

    <!-- Warm PT Wood -->
    <linearGradient id="ptWarmWoodGrad1aj" x1="0%" y1="0%" x2="100%" y2="0%">
      <stop offset="0%" stop-color="#8A5E44" />
      <stop offset="35%" stop-color="#754E36" />
      <stop offset="75%" stop-color="#633F2A" />
      <stop offset="100%" stop-color="#52321E" />
    </linearGradient>

    <linearGradient id="ptWarmRailGrad1aj" x1="0%" y1="0%" x2="0%" y2="100%">
      <stop offset="0%" stop-color="#8A5E44" />
      <stop offset="45%" stop-color="#754E36" />
      <stop offset="100%" stop-color="#52321E" />
    </linearGradient>

    <!-- Rich Earth Brown Soil -->
    <linearGradient id="soilGrad1aj" x1="0%" y1="0%" x2="0%" y2="100%">
      <stop offset="0%" stop-color="#754E29" />
      <stop offset="40%" stop-color="#5A3818" />
      <stop offset="100%" stop-color="#3D230D" />
    </linearGradient>

    <pattern id="pt-grid-post-1aj" width="26" height="34" patternUnits="userSpaceOnUse">
      <rect x="4" y="4" width="2.5" height="9" rx="0.5" fill="#381E11" opacity="0.75" />
      <rect x="17" y="4" width="2.5" height="9" rx="0.5" fill="#381E11" opacity="0.75" />
      <rect x="10.5" y="21" width="2.5" height="9" rx="0.5" fill="#381E11" opacity="0.75" />
    </pattern>

    <pattern id="pt-grid-rail-1aj" width="34" height="26" patternUnits="userSpaceOnUse">
      <rect x="4" y="4" width="9" height="2.5" rx="0.5" fill="#381E11" opacity="0.75" />
      <rect x="4" y="17" width="9" height="2.5" rx="0.5" fill="#381E11" opacity="0.75" />
      <rect x="21" y="10.5" width="9" height="2.5" rx="0.5" fill="#381E11" opacity="0.75" />
    </pattern>

    <filter id="shadow1aj" x="-15%" y="-15%" width="135%" height="135%">
      <feDropShadow dx="0" dy="8" stdDeviation="12" flood-color="#000000" flood-opacity="0.45" />
    </filter>
  </defs>

  <g filter="url(#shadow1aj)">

    <!-- 1ST BIG 'F' -->
    <g id="Big-F-1aj">
      <path d="M 56 54 L 132 54 L 434 54 C 440 54 444 58 444 64 L 444 112 C 444 118 440 122 434 122 L 132 122 L 132 196 L 192 196 L 192 260 L 132 260 L 132 424 L 56 424 Z" 
            fill="none" 
            stroke="#0B0E0C" 
            stroke-width="7.5" 
            stroke-linejoin="round" />

      <path d="M 56 54 L 132 54 L 434 54 C 440 54 444 58 444 64 L 444 112 C 444 118 440 122 434 122 L 132 122 L 132 196 L 192 196 L 192 260 L 132 260 L 132 424 L 56 424 Z" 
            fill="url(#ptWarmWoodGrad1aj)" 
            stroke="#2EA055" 
            stroke-width="4.5" 
            stroke-linejoin="round" />

      <rect x="58" y="56" width="72" height="366" fill="url(#pt-grid-post-1aj)" />
      <rect x="134" y="56" width="298" height="64" fill="url(#pt-grid-rail-1aj)" />
      <rect x="134" y="198" width="56" height="60" fill="url(#pt-grid-rail-1aj)" />

      <path d="M 434 54 L 438 54 C 442 54 444 58 444 64 L 444 112 C 444 118 442 122 438 122 L 434 122 Z" fill="url(#brightEmeraldGrad1aj)" stroke="#0B0E0C" stroke-width="1.2" />

      <!-- Post 1 Cap -->
      <rect x="46" y="48" width="96" height="8" rx="3" fill="#2EA055" stroke="#0B0E0C" stroke-width="2.5" />
      <path d="M 48 48 L 94 28 L 94 48 Z" fill="url(#brightEmeraldCapLeft1aj)" stroke="#0B0E0C" stroke-width="2" stroke-linejoin="round" />
      <path d="M 94 28 L 140 48 L 94 48 Z" fill="url(#brightEmeraldCapRight1aj)" stroke="#0B0E0C" stroke-width="2" stroke-linejoin="round" />
      <circle cx="94" cy="28" r="3" fill="#6EE7A0" stroke="#0B0E0C" stroke-width="1.5" />

      <!-- 2px Black Seams -->
      <line x1="132" y1="54" x2="132" y2="122" stroke="#0B0E0C" stroke-width="2" />
      <line x1="132" y1="196" x2="132" y2="260" stroke="#0B0E0C" stroke-width="2" />
      <line x1="192" y1="196" x2="192" y2="260" stroke="#0B0E0C" stroke-width="2" />
    </g>


    <!-- 2ND SMALL 'F' -->
    <g id="Small-F-1aj">
      <path d="M 192 196 L 268 196 L 406 196 C 410 196 414 200 414 206 L 414 250 C 414 256 410 260 406 260 L 268 260 L 268 312 L 370 312 C 374 312 378 316 378 321 L 378 357 C 378 362 374 366 370 366 L 268 366 L 268 424 L 192 424 Z" 
            fill="none" 
            stroke="#0B0E0C" 
            stroke-width="7.5" 
            stroke-linejoin="round" />

      <path d="M 192 196 L 268 196 L 406 196 C 410 196 414 200 414 206 L 414 250 C 414 256 410 260 406 260 L 268 260 L 268 312 L 370 312 C 374 312 378 316 378 321 L 378 357 C 378 362 374 366 370 366 L 268 366 L 268 424 L 192 424 Z" 
            fill="url(#ptWarmWoodGrad1aj)" 
            stroke="#366A4D" 
            stroke-width="4.5" 
            stroke-linejoin="round" />

      <rect x="194" y="198" width="72" height="224" fill="url(#pt-grid-post-1aj)" />
      <rect x="270" y="198" width="134" height="60" fill="url(#pt-grid-rail-1aj)" />
      <rect x="270" y="314" width="98" height="50" fill="url(#pt-grid-rail-1aj)" />

      <!-- End Trims -->
      <path d="M 406 196 L 408 196 C 412 196 414 200 414 206 L 414 250 C 414 256 412 260 408 260 L 406 260 Z" fill="url(#sageSpruceGrad1aj)" stroke="#0B0E0C" stroke-width="1.2" />
      <path d="M 370 312 L 372 312 C 376 312 378 316 378 321 L 378 357 C 378 362 376 366 372 366 L 370 366 Z" fill="url(#sageSpruceGrad1aj)" stroke="#0B0E0C" stroke-width="1.2" />

      <!-- Post 2 Cap -->
      <rect x="182" y="190" width="96" height="8" rx="3" fill="#366A4D" stroke="#0B0E0C" stroke-width="2.5" />
      <path d="M 184 190 L 230 170 L 230 190 Z" fill="url(#sageSpruceCapLeft1aj)" stroke="#0B0E0C" stroke-width="2" stroke-linejoin="round" />
      <path d="M 230 170 L 276 190 L 230 190 Z" fill="url(#sageSpruceCapRight1aj)" stroke="#0B0E0C" stroke-width="2" stroke-linejoin="round" />
      <circle cx="230" cy="170" r="3" fill="#619E7A" stroke="#0B0E0C" stroke-width="1.5" />

      <!-- 2px Black Seams -->
      <line x1="268" y1="196" x2="268" y2="260" stroke="#0B0E0C" stroke-width="2" />
      <line x1="268" y1="312" x2="268" y2="366" stroke="#0B0E0C" stroke-width="2" />
    </g>

    <!-- THIN BROWN SOIL LINE -->
    <rect x="36" y="424" width="440" height="12" rx="3" fill="url(#soilGrad1aj)" stroke="#0B0E0C" stroke-width="2" />
    <line x1="44" y1="426" x2="468" y2="426" stroke="#8A5E33" stroke-width="1" opacity="0.6" stroke-linecap="round" />
  </g>

  <!-- ULTRA-DENSE CONTINUOUS MICRO-TURF LAWN -->
  <g id="Ultra-Dense-Micro-Turf-1aj" filter="drop-shadow(0 3px 5px rgba(0,0,0,0.5))">
    <g transform="translate(30, 414)">
      <!-- 44 Dense Micro Blades across the whole baseline -->
      <!-- Back Shadow Tier -->
      <path d="M 4 16 C 3 9 1 3 0 0 C 3 4 5 10 6 16 Z" fill="#0C3D20" />
      <path d="M 12 16 C 14 7 19 2 24 0 C 20 5 17 10 15 16 Z" fill="#11522C" />
      <path d="M 22 16 C 21 8 18 3 14 0 C 18 4 23 9 24 16 Z" fill="#0C3D20" />
      <path d="M 32 16 C 35 7 41 2 47 0 C 42 5 38 10 35 16 Z" fill="#11522C" />
      <path d="M 44 16 C 42 8 38 3 33 0 C 38 4 43 9 45 16 Z" fill="#0C3D20" />
      <path d="M 54 16 C 57 7 63 2 69 0 C 64 5 60 10 57 16 Z" fill="#11522C" />
      <path d="M 66 16 C 64 8 60 3 55 0 C 60 4 65 9 67 16 Z" fill="#0C3D20" />
      <path d="M 76 16 C 79 7 85 2 91 0 C 86 5 82 10 79 16 Z" fill="#11522C" />
      <path d="M 88 16 C 86 8 82 3 77 0 C 82 4 87 9 89 16 Z" fill="#0C3D20" />
      <path d="M 98 16 C 101 7 107 2 113 0 C 108 5 104 10 101 16 Z" fill="#11522C" />
      <path d="M 110 16 C 108 8 104 3 99 0 C 104 4 109 9 111 16 Z" fill="#0C3D20" />
      <path d="M 120 16 C 123 7 129 2 135 0 C 130 5 126 10 123 16 Z" fill="#11522C" />
      <path d="M 132 16 C 130 8 126 3 121 0 C 126 4 131 9 133 16 Z" fill="#0C3D20" />
      <path d="M 142 16 C 145 7 151 2 157 0 C 152 5 148 10 145 16 Z" fill="#11522C" />
      <path d="M 154 16 C 152 8 148 3 143 0 C 148 4 153 9 155 16 Z" fill="#0C3D20" />
      <path d="M 164 16 C 167 7 173 2 179 0 C 174 5 170 10 167 16 Z" fill="#11522C" />
      <path d="M 176 16 C 174 8 170 3 165 0 C 170 4 175 9 177 16 Z" fill="#0C3D20" />
      <path d="M 186 16 C 189 7 195 2 201 0 C 196 5 192 10 189 16 Z" fill="#11522C" />
      <path d="M 198 16 C 196 8 192 3 187 0 C 192 4 197 9 199 16 Z" fill="#0C3D20" />
      <path d="M 208 16 C 211 7 217 2 223 0 C 218 5 214 10 211 16 Z" fill="#11522C" />
      <path d="M 220 16 C 218 8 214 3 209 0 C 214 4 219 9 221 16 Z" fill="#0C3D20" />
      <path d="M 230 16 C 233 7 239 2 245 0 C 240 5 236 10 233 16 Z" fill="#11522C" />
      <path d="M 242 16 C 240 8 236 3 231 0 C 236 4 241 9 243 16 Z" fill="#0C3D20" />
      <path d="M 252 16 C 255 7 261 2 267 0 C 262 5 258 10 255 16 Z" fill="#11522C" />
      <path d="M 264 16 C 262 8 258 3 253 0 C 258 4 263 9 265 16 Z" fill="#0C3D20" />
      <path d="M 274 16 C 277 7 283 2 289 0 C 284 5 280 10 277 16 Z" fill="#11522C" />
      <path d="M 286 16 C 284 8 280 3 275 0 C 280 4 285 9 287 16 Z" fill="#0C3D20" />
      <path d="M 296 16 C 299 7 305 2 311 0 C 306 5 302 10 299 16 Z" fill="#11522C" />
      <path d="M 308 16 C 306 8 302 3 297 0 C 302 4 307 9 309 16 Z" fill="#0C3D20" />
      <path d="M 318 16 C 321 7 327 2 333 0 C 328 5 324 10 321 16 Z" fill="#11522C" />
      <path d="M 330 16 C 328 8 324 3 319 0 C 324 4 329 9 331 16 Z" fill="#0C3D20" />
      <path d="M 340 16 C 343 7 349 2 355 0 C 350 5 346 10 343 16 Z" fill="#11522C" />
      <path d="M 352 16 C 350 8 346 3 341 0 C 346 4 351 9 353 16 Z" fill="#0C3D20" />
      <path d="M 362 16 C 365 7 371 2 377 0 C 372 5 368 10 365 16 Z" fill="#11522C" />
      <path d="M 374 16 C 372 8 368 3 363 0 C 368 4 373 9 375 16 Z" fill="#0C3D20" />
      <path d="M 384 16 C 387 7 393 2 399 0 C 394 5 390 10 387 16 Z" fill="#11522C" />
      <path d="M 396 16 C 394 8 390 3 385 0 C 390 4 395 9 397 16 Z" fill="#0C3D20" />
      <path d="M 406 16 C 409 7 415 2 421 0 C 416 5 412 10 409 16 Z" fill="#11522C" />
      <path d="M 418 16 C 416 8 412 3 407 0 C 412 4 417 9 419 16 Z" fill="#0C3D20" />
      <path d="M 428 16 C 431 7 437 2 443 0 C 438 5 434 10 431 16 Z" fill="#11522C" />
      <path d="M 440 16 C 438 8 434 3 429 0 C 434 4 439 9 441 16 Z" fill="#0C3D20" />
      <path d="M 448 16 C 450 8 454 3 457 0 C 454 5 451 10 449 16 Z" fill="#11522C" />

      <!-- Front Sunlit Tier (Vibrant Emerald #2EA055 & Mint #6EE7A0) -->
      <path d="M 8 16 C 10 10 14 5 19 2 C 15 7 12 11 10 16 Z" fill="#2EA055" />
      <path d="M 18 16 C 16 10 12 6 8 3 C 13 7 18 11 20 16 Z" fill="#6EE7A0" />
      <path d="M 28 16 C 31 9 36 4 41 1 C 36 6 32 11 30 16 Z" fill="#2EA055" />
      <path d="M 38 16 C 36 10 32 6 28 3 C 33 7 38 11 40 16 Z" fill="#6EE7A0" />
      <path d="M 50 16 C 53 9 58 4 63 1 C 58 6 54 11 52 16 Z" fill="#2EA055" />
      <path d="M 60 16 C 58 10 54 6 50 3 C 55 7 60 11 62 16 Z" fill="#6EE7A0" />
      <path d="M 72 16 C 75 9 80 4 85 1 C 80 6 76 11 74 16 Z" fill="#2EA055" />
      <path d="M 82 16 C 80 10 76 6 72 3 C 77 7 82 11 84 16 Z" fill="#6EE7A0" />
      <path d="M 94 16 C 97 9 102 4 107 1 C 102 6 98 11 96 16 Z" fill="#2EA055" />
      <path d="M 104 16 C 102 10 98 6 94 3 C 99 7 104 11 106 16 Z" fill="#6EE7A0" />
      <path d="M 116 16 C 119 9 124 4 129 1 C 124 6 120 11 118 16 Z" fill="#2EA055" />
      <path d="M 126 16 C 124 10 120 6 116 3 C 121 7 126 11 128 16 Z" fill="#6EE7A0" />
      <path d="M 138 16 C 141 9 146 4 151 1 C 146 6 142 11 140 16 Z" fill="#2EA055" />
      <path d="M 148 16 C 146 10 142 6 138 3 C 143 7 148 11 150 16 Z" fill="#6EE7A0" />
      <path d="M 160 16 C 163 9 168 4 173 1 C 168 6 164 11 162 16 Z" fill="#2EA055" />
      <path d="M 170 16 C 168 10 164 6 160 3 C 165 7 170 11 172 16 Z" fill="#6EE7A0" />
      <path d="M 182 16 C 185 9 190 4 195 1 C 190 6 186 11 184 16 Z" fill="#2EA055" />
      <path d="M 192 16 C 190 10 186 6 182 3 C 187 7 192 11 194 16 Z" fill="#6EE7A0" />
      <path d="M 204 16 C 207 9 212 4 217 1 C 212 6 208 11 206 16 Z" fill="#2EA055" />
      <path d="M 214 16 C 212 10 208 6 204 3 C 209 7 214 11 216 16 Z" fill="#6EE7A0" />
      <path d="M 226 16 C 229 9 234 4 239 1 C 234 6 230 11 228 16 Z" fill="#2EA055" />
      <path d="M 236 16 C 234 10 230 6 226 3 C 231 7 236 11 238 16 Z" fill="#6EE7A0" />
      <path d="M 248 16 C 251 9 256 4 261 1 C 256 6 252 11 250 16 Z" fill="#2EA055" />
      <path d="M 258 16 C 256 10 252 6 248 3 C 253 7 258 11 260 16 Z" fill="#6EE7A0" />
      <path d="M 270 16 C 273 9 278 4 283 1 C 278 6 274 11 272 16 Z" fill="#2EA055" />
      <path d="M 280 16 C 278 10 274 6 270 3 C 275 7 280 11 282 16 Z" fill="#6EE7A0" />
      <path d="M 292 16 C 295 9 300 4 305 1 C 300 6 296 11 294 16 Z" fill="#2EA055" />
      <path d="M 302 16 C 300 10 296 6 292 3 C 297 7 302 11 304 16 Z" fill="#6EE7A0" />
      <path d="M 314 16 C 317 9 322 4 327 1 C 322 6 318 11 316 16 Z" fill="#2EA055" />
      <path d="M 324 16 C 322 10 318 6 314 3 C 319 7 324 11 326 16 Z" fill="#6EE7A0" />
      <path d="M 336 16 C 339 9 344 4 349 1 C 344 6 340 11 338 16 Z" fill="#2EA055" />
      <path d="M 346 16 C 344 10 340 6 336 3 C 341 7 346 11 348 16 Z" fill="#6EE7A0" />
      <path d="M 358 16 C 361 9 366 4 371 1 C 366 6 362 11 360 16 Z" fill="#2EA055" />
      <path d="M 368 16 C 366 10 362 6 358 3 C 363 7 368 11 370 16 Z" fill="#6EE7A0" />
      <path d="M 380 16 C 383 9 388 4 393 1 C 388 6 384 11 382 16 Z" fill="#2EA055" />
      <path d="M 390 16 C 388 10 384 6 380 3 C 385 7 390 11 392 16 Z" fill="#6EE7A0" />
      <path d="M 402 16 C 405 9 410 4 415 1 C 410 6 406 11 404 16 Z" fill="#2EA055" />
      <path d="M 412 16 C 410 10 406 6 402 3 C 407 7 412 11 414 16 Z" fill="#6EE7A0" />
      <path d="M 424 16 C 427 9 432 4 437 1 C 432 6 428 11 426 16 Z" fill="#2EA055" />
      <path d="M 434 16 C 432 10 428 6 424 3 C 429 7 434 11 436 16 Z" fill="#6EE7A0" />
      <path d="M 444 16 C 447 9 451 4 455 1 C 451 6 448 11 446 16 Z" fill="#2EA055" />
    </g>
  </g>
</svg>
