<?xml version="1.0" encoding="UTF-8"?>
<svg xmlns="http://www.w3.org/2000/svg" viewBox="0 0 2.5 3.5" width="360" height="504">
  <title>sym-bracket-u-2x4-galv</title>
  <desc>Fence-style U-bracket — galvanized steel, cradles 2×4 rail on fill-side of post. 1 unit = 1 inch.</desc>
  <g id="sym-bracket-u-2x4-galv">
    <g id="shell">
      <path fill="#000000" d="M 0 0 L 0.625 0 L 0.625 0.6875 L 2.375 0.6875 L 2.375 0.3125 L 2.5 0.3125 L 2.5 3.1875 L 2.375 3.1875 L 2.375 2.8125 L 0.625 2.8125 L 0.625 3.5 L 0 3.5 Z"/>
    </g>
    <g id="fill" data-slot="bracket-material">
      <path fill="#a8adb3" d="M 0.0625 0.0625 L 0.5625 0.0625 L 0.5625 0.75 L 2.3125 0.75 L 2.3125 0.375 L 2.4375 0.375 L 2.4375 3.125 L 2.3125 3.125 L 2.3125 2.75 L 0.5625 2.75 L 0.5625 3.4375 L 0.0625 3.4375 Z"/>
      <path fill="none" stroke="#6b7280" stroke-width="0.03125" d="M 0.0625 0.0625 L 0.5625 0.0625 L 0.5625 0.75 L 2.3125 0.75 L 2.3125 0.375 L 2.4375 0.375 L 2.4375 3.125 L 2.3125 3.125 L 2.3125 2.75 L 0.5625 2.75 L 0.5625 3.4375 L 0.0625 3.4375 Z"/>
    </g>
  </g>
</svg>
