<?xml version="1.0" encoding="UTF-8"?>
<svg xmlns="http://www.w3.org/2000/svg" viewBox="0 0 2304 639" width="16128" height="13680" preserveAspectRatio="none">
  <title>grass-module</title>
  <desc>Normalized from textures/Grass.svg — reference only until clean export. Generated by build-grass-ground.js</desc>
  <g id="grass-module">
<g transform="matrix(1,0,0,1,-53567,-10538)"><g id="artboard-component-rail-cedar-two-rail-wide"></g><g id="artboard-component-rail-cedar-three-rail-standard"></g><g id="artboard-component-picket-cedar-flat-top"></g><g id="artboard-component-picket-cedar-gothic"></g><g id="artboard-component-picket-cedar-dog-eared"></g><g id="artboard-component-cap-cedar-cedar-post"></g><g id="artboard-component-cap-aluminum-metal-post"></g><g id="artboard-component-cap-mixed-other"></g><g id="artboard-component-cap-cedar-rail-cap-simple"></g><g id="artboard-component-cap-cedar-rail-cap-craftsman"></g><g id="artboard-component-trim-cedar-post-trim"></g><g id="artboard-component-trim-cedar-custom"></g><g id="artboard-component-trim-cedar-picture-frame-trim-package"></g><g id="artboard-component-trim-cedar-two-rail-horizontal"></g><g id="artboard-component-rail-cedar-two-rail-narrow"></g><g id="artboard-component-trim-cedar-three-rail-horizontal"></g><g id="artboard-component-rail-cedar-two-rail-standard"></g><g id="Grass" transform="matrix(0.142857,0,0,0.046224,46043.428571,10538)"><rect x="52665" y="0" width="16128" height="13824" style="fill:none;"/><clipPath id="grass-src-clip-1"><rect x="52665" y="0" width="16128" height="13824"/></clipPath><g clip-path="url(#grass-src-clip-1)"><g id="Grass-Patch-1" transform="matrix(14.106472,0,0,87.19753,-570020.517056,-1054034.176064)"><g id="Grass-Blade-1" transform="matrix(2.324188,0.525792,0.978904,-0.989214,-71514.336284,700.015664)"><path d="M44711,12096C44717.1383,12130.81288 44669.67405,12229 44669.67405,12229L44695.05842,12123.36423C44695.05842,12123.36423 44708.67993,12082.84188 44711,12096Z" style="fill:#227e1f;"/><path d="M44711,12096C44708.67993,12082.84188 44695.05842,12123.36423 44695.05842,12123.36423L44669.67405,12229C44669.67405,12229 44717.1383,12130.81288 44711,12096ZM44710.2369,12096.20868C44712.05908,12106.54303 44709.06823,12122.51533 44704.04332,12139.821C44694.92062,12171.23933 44679.02253,12206.99434 44672.2276,12221.70593L44684.72094,12169.71555L44695.79765,12123.62073C44696.14424,12122.59267 44702.52108,12103.76823 44707.15059,12096.63151C44707.71302,12095.76448 44708.24144,12095.07894 44708.73086,12094.64974C44709.01594,12094.39974 44709.24787,12094.20343 44709.47113,12094.28136C44709.60047,12094.32651 44709.69166,12094.47108 44709.79091,12094.66634C44709.97395,12095.02642 44710.1185,12095.53716 44710.2369,12096.20868Z" style="fill:#113016;"/></g><g id="Grass-Blade-6" transform="matrix(-2.373162,0.795733,-1.217557,-0.907805,165042.418747,-12356.384796)"><path d="M44711,12096C44713.46113,12109.95813 44707.30519,12134.10421 44699.04651,12158.0247C44686.70727,12193.76415 44669.67405,12229 44669.67405,12229L44695.05842,12123.36423C44695.05842,12123.36423 44708.67993,12082.84188 44711,12096Z" style="fill:#227e1f;"/><path d="M44711,12096C44713.46113,12109.95813 44707.30519,12134.10421 44699.04651,12158.0247C44686.70727,12193.76415 44669.67405,12229 44669.67405,12229L44695.05842,12123.36423C44695.05842,12123.36423 44708.67993,12082.84188 44711,12096ZM44710.3231,12096.20387C44710.20721,12095.5466 44710.06629,12095.04581 44709.88714,12094.69337C44709.7829,12094.4883 44709.67626,12094.34391 44709.54042,12094.2965C44709.27942,12094.20539 44708.9943,12094.40161 44708.66103,12094.69387C44708.1667,12095.12738 44707.63138,12095.81941 44707.06331,12096.69514C44702.43639,12103.82788 44696.06297,12122.63639 44695.70966,12123.68414L44672.01338,12222.29474C44677.40992,12210.64191 44689.21731,12184.28667 44698.41335,12157.6512C44703.34688,12143.3617 44707.52996,12128.99285 44709.5552,12116.78112C44710.88574,12108.75827 44711.289,12101.68191 44710.3231,12096.20387Z" style="fill:#113016;"/></g><g id="Grass-Blade-2" transform="matrix(-2.482953,1.148532,-1.506184,-0.814028,173527.380139,-29259.93827)"><path d="M44711,12096C44717.1383,12130.81288 44669.67405,12229 44669.67405,12229L44695.05842,12123.36423C44695.05842,12123.36423 44708.67993,12082.84188 44711,12096Z" style="fill:#227e1f;"/><path d="M44711,12096C44717.1383,12130.81288 44669.67405,12229 44669.67405,12229L44695.05842,12123.36423C44695.05842,12123.36423 44708.67993,12082.84188 44711,12096ZM44710.43333,12096.23236C44710.23295,12095.09588 44709.99238,12094.43255 44709.58872,12094.29165C44709.28875,12094.18694 44708.94955,12094.37979 44708.56651,12094.7157C44708.06701,12095.15375 44707.52465,12095.85245 44706.95063,12096.73735C44702.32836,12103.86291 44695.96187,12122.64212 44695.59693,12123.72402L44671.69874,12223.17489C44678.01113,12209.59987 44694.7766,12172.32369 44704.24404,12139.7181C44709.25564,12122.45827 44712.25069,12106.53933 44710.43333,12096.23236Z" style="fill:#113016;"/></g><g id="Grass-Clump-3" transform="matrix(3.659246,-0.227763,0.220863,0.887197,-121963.437119,11562.387769)"><path d="M44669.67405,12229C44637.76956,12155.05358 44688,12073 44688,12073L44669.67405,12235.00702L44676,12227C44676,12227 44710.90504,12165.44834 44695.66911,12087.87286L44671.16044,12223.28788" style="fill:#0f810d;stroke:#103016;stroke-width:0.68px;"/></g><g id="Grass-Blade-3" transform="matrix(2.317897,0.714498,1.10025,-0.89231,-72638.914296,-8907.590866)"><path d="M44711,12096C44711.50443,12098.86081 44711.64687,12102.1496 44711.48342,12105.77669C44709.6579,12146.28724 44669.67405,12229 44669.67405,12229L44695.05842,12123.36423C44695.05842,12123.36423 44708.67993,12082.84188 44711,12096Z" style="fill:#227e1f;"/><path d="M44711,12096C44708.67993,12082.84188 44695.05842,12123.36423 44695.05842,12123.36423L44669.67405,12229C44669.67405,12229 44709.6579,12146.28724 44711.48342,12105.77669C44711.64687,12102.1496 44711.50443,12098.86081 44711,12096ZM44710.28946,12096.2113C44710.78011,12098.994 44710.91472,12102.1933 44710.75574,12105.72134C44710.21186,12117.79053 44706.24533,12133.62714 44700.97567,12149.89084C44691.61457,12178.78198 44678.12416,12208.99938 44672.12899,12221.96163L44695.74261,12123.6951C44696.10434,12122.62243 44702.46906,12103.8429 44707.09093,12096.71794C44707.6567,12095.84577 44708.18959,12095.15626 44708.68191,12094.72452C44709.00424,12094.44184 44709.27801,12094.24546 44709.53045,12094.33357C44709.65929,12094.37854 44709.75853,12094.51802 44709.8574,12094.71253C44710.03514,12095.06219 44710.17448,12095.55921 44710.28946,12096.2113Z" style="fill:#113016;"/></g><g id="Grass-Blade-5" transform="matrix(-2.686096,0.642785,-0.781398,-0.816306,174024.666132,-6645.437585)"><path d="M44695.66911,12087.87286C44651.60137,12183.86345 44677.36743,12226 44677.36743,12226C44677.36743,12226 44739.73686,11991.88226 44695.66911,12087.87286Z" style="fill:#318116;"/><path d="M44695.66911,12087.87286C44739.73686,11991.88226 44677.36743,12226 44677.36743,12226C44677.36743,12226 44651.60137,12183.86345 44695.66911,12087.87286ZM44696.46693,12088.86429C44658.42726,12171.72423 44672.92033,12213.75772 44677.097,12222.9038C44681.51624,12206.16486 44707.22558,12107.85175 44710.16073,12075.13624C44710.4377,12072.0491 44710.51532,12069.59023 44710.31443,12067.90023C44710.23536,12067.23506 44710.15793,12066.71555 44709.93481,12066.47935C44709.80399,12066.34085 44709.63432,12066.40108 44709.42644,12066.49452C44708.97515,12066.69737 44708.44416,12067.18514 44707.81238,12067.93559C44705.34097,12070.87121 44701.66457,12077.54252 44696.46693,12088.86429Z" style="fill:#103016;"/></g><g id="Grass-Blade-4" transform="matrix(5.25068,3.160144,1.064634,-0.677134,-202612.60294,-120536.251419)"><path d="M44580,12168C44594.90638,12079.99417 44605.6,12082.54258 44605.6,12082.54258L44580.58941,12164.55439" style="fill:#318116;stroke:#103016;stroke-width:0.52px;stroke-linejoin:miter;"/></g><g id="Grass-Clump-2" transform="matrix(-3.464081,0.363361,0.355957,0.958734,194678.495299,-15711.708095)"><path d="M44646,12240C44654.46459,12220.27042 44660.16187,12202.81369 44663.84171,12187.48336C44679.36,12122.83362 44659,12096 44659,12096L44648.10355,12235.00702C44648.10355,12235.00702 44609.50742,12133.55813 44649,12077.99298L44652.26598,12234.70139" style="fill:#318116;stroke:#103016;stroke-width:0.69px;"/></g><g id="Grass-Clump-1" transform="matrix(2.461925,-1.107371,0.612936,0.729424,-73054.036135,52768.897622)"><path d="M44696,12087C44682.11421,12097.6839 44670.9391,12120.78338 44663.33804,12145.99628C44645.96633,12203.61864 44647.26256,12272.2798 44677.53288,12229C44721.04809,12166.78295 44735.62981,12050.47994 44679.04228,12195.10295L44696,12087L44695.67012,12089.10295" style="fill:#2d821c;stroke:#103016;stroke-width:0.89px;"/></g><g id="Grass-Blade-61" transform="matrix(-2.362656,0.80351,-1.229458,-0.903786,164989.423624,-12749.703402)"><path d="M44711,12096C44713.46113,12109.95813 44707.30519,12134.10421 44699.04651,12158.0247C44686.70727,12193.76415 44669.67405,12229 44669.67405,12229L44695.05842,12123.36423C44695.05842,12123.36423 44708.67993,12082.84188 44711,12096Z" style="fill:#227e1f;"/><path d="M44711,12096C44713.46113,12109.95813 44707.30519,12134.10421 44699.04651,12158.0247C44686.70727,12193.76415 44669.67405,12229 44669.67405,12229L44695.05842,12123.36423C44695.05842,12123.36423 44708.67993,12082.84188 44711,12096ZM44710.3231,12096.20387C44710.20721,12095.54661 44710.06629,12095.04581 44709.88714,12094.69337C44709.7829,12094.4883 44709.67626,12094.34391 44709.54042,12094.2965C44709.27942,12094.20539 44708.9943,12094.40161 44708.66103,12094.69387C44708.1667,12095.12738 44707.63138,12095.81941 44707.06331,12096.69514C44702.43639,12103.82788 44696.06297,12122.63639 44695.70966,12123.68414L44672.01338,12222.29474C44677.40992,12210.64191 44689.21731,12184.28667 44698.41335,12157.6512C44703.34688,12143.3617 44707.52996,12128.99285 44709.5552,12116.78112C44710.88574,12108.75827 44711.289,12101.68191 44710.3231,12096.20387Z" style="fill:#113016;"/></g><g id="Grass-Blade-7" transform="matrix(-3.276729,0.053141,-0.073404,-1.131536,191623.592807,23553.14483)"><path d="M44711,12096C44717.1383,12130.81288 44669.67405,12229 44669.67405,12229L44695.05842,12123.36423C44695.05842,12123.36423 44708.67993,12082.84188 44711,12096Z" style="fill:#227e1f;"/><path d="M44711,12096C44717.1383,12130.81288 44669.67405,12229 44669.67405,12229L44695.05842,12123.36423C44695.05842,12123.36423 44708.67993,12082.84188 44711,12096ZM44710.41337,12096.21682C44710.29785,12095.56164 44710.15669,12095.06185 44709.9781,12094.71053C44709.86022,12094.47863 44709.73133,12094.32507 44709.57772,12094.27145C44709.28652,12094.16981 44708.95949,12094.36358 44708.58765,12094.68967C44708.08897,12095.12699 44707.54786,12095.82461 44706.97478,12096.70805C44702.34845,12103.83989 44695.97537,12122.64311 44695.61841,12123.70152L44671.74317,12223.05672C44678.10753,12209.36104 44694.78822,12172.23203 44704.22246,12139.74076C44709.23815,12122.46685 44712.23221,12106.53221 44710.41337,12096.21682Z" style="fill:#113016;"/></g><g id="Grass-Blade-71" transform="matrix(-2.858809,0.562468,-0.731503,-0.929406,180827.012055,-1662.488796)"><path d="M44711,12096C44717.1383,12130.81288 44669.67405,12229 44669.67405,12229L44695.05842,12123.36423C44695.05842,12123.36423 44708.67993,12082.84188 44711,12096Z" style="fill:#227e1f;"/><path d="M44711,12096C44717.1383,12130.81288 44669.67405,12229 44669.67405,12229L44695.05842,12123.36423C44695.05842,12123.36423 44708.67993,12082.84188 44711,12096ZM44710.37643,12096.26004C44710.18434,12095.17058 44709.96357,12094.52333 44709.57662,12094.38826C44709.28796,12094.28751 44708.96261,12094.47981 44708.59403,12094.80304C44708.09838,12095.23771 44707.56046,12095.93162 44706.99086,12096.8097C44702.38079,12103.91646 44696.03486,12122.62728 44695.65056,12123.76645L44671.91115,12222.5564C44678.41075,12208.54497 44694.85196,12171.83753 44704.19064,12139.67534C44709.1944,12122.44253 44712.19094,12106.55088 44710.37643,12096.26004Z" style="fill:#113016;"/></g></g><g id="Grass-Patch-11" transform="matrix(-14.106472,0,-0,87.19753,686188.169322,-1054034.176064)"><g id="Grass-Blade-11" transform="matrix(2.324188,0.525792,0.978904,-0.989214,-71514.336284,700.015664)"><path d="M44711,12096C44717.1383,12130.81288 44669.67405,12229 44669.67405,12229L44695.05842,12123.36423C44695.05842,12123.36423 44708.67993,12082.84188 44711,12096Z" style="fill:#227e1f;"/><path d="M44711,12096C44717.1383,12130.81288 44669.67405,12229 44669.67405,12229L44695.05842,12123.36423C44695.05842,12123.36423 44708.67993,12082.84188 44711,12096ZM44710.2369,12096.20868C44710.1185,12095.53716 44709.97395,12095.02642 44709.79091,12094.66634C44709.69166,12094.47108 44709.60047,12094.32651 44709.47113,12094.28136C44709.24787,12094.20343 44709.01594,12094.39974 44708.73086,12094.64974C44708.24144,12095.07894 44707.71302,12095.76448 44707.15059,12096.63151C44702.52005,12103.76983 44696.14139,12122.60109 44695.79734,12123.62166L44684.72094,12169.71555L44672.22727,12221.70666C44679.02257,12206.99425 44694.92063,12171.23929 44704.04332,12139.821C44709.06823,12122.51533 44712.05908,12106.54303 44710.2369,12096.20868Z" style="fill:#113016;"/></g><g id="Grass-Blade-62" transform="matrix(-2.373162,0.795733,-1.217557,-0.907805,165042.418747,-12356.384796)"><path d="M44711,12096C44713.46113,12109.95813 44707.30519,12134.10421 44699.04651,12158.0247C44686.70727,12193.76415 44669.67405,12229 44669.67405,12229L44695.05842,12123.36423C44695.05842,12123.36423 44708.67993,12082.84188 44711,12096Z" style="fill:#227e1f;"/><path d="M44711,12096C44708.67993,12082.84188 44695.05842,12123.36423 44695.05842,12123.36423L44669.67405,12229C44669.67405,12229 44686.70727,12193.76415 44699.04651,12158.0247C44707.30519,12134.10421 44713.46113,12109.95813 44711,12096ZM44710.3231,12096.20387C44711.289,12101.68191 44710.88574,12108.75827 44709.5552,12116.78112C44707.52996,12128.99285 44703.34688,12143.3617 44698.41335,12157.6512C44689.2172,12184.28697 44677.40965,12210.64251 44672.01352,12222.29443L44695.70995,12123.68327C44696.06545,12122.62906 44702.43729,12103.82649 44707.06331,12096.69514C44707.63138,12095.81941 44708.1667,12095.12738 44708.66103,12094.69387C44708.9943,12094.40161 44709.27942,12094.20539 44709.54042,12094.2965C44709.67626,12094.34391 44709.7829,12094.4883 44709.88714,12094.69337C44710.06629,12095.04581 44710.20721,12095.5466 44710.3231,12096.20387Z" style="fill:#113016;"/></g><g id="Grass-Blade-21" transform="matrix(-2.482953,1.148532,-1.506184,-0.814028,173527.380139,-29259.93827)"><path d="M44711,12096C44717.1383,12130.81288 44669.67405,12229 44669.67405,12229L44695.05842,12123.36423C44695.05842,12123.36423 44708.67993,12082.84188 44711,12096Z" style="fill:#227e1f;"/><path d="M44711,12096C44708.67993,12082.84188 44695.05842,12123.36423 44695.05842,12123.36423L44669.67405,12229C44669.67405,12229 44717.1383,12130.81288 44711,12096ZM44710.43333,12096.23236C44712.25069,12106.53933 44709.25564,12122.45827 44704.24404,12139.7181C44694.77659,12172.32374 44678.01108,12209.59998 44671.69887,12223.1746L44695.59713,12123.72342C44695.96314,12122.63836 44702.32882,12103.8622 44706.95063,12096.73735C44707.52465,12095.85245 44708.06701,12095.15375 44708.56651,12094.7157C44708.94955,12094.37979 44709.28875,12094.18694 44709.58872,12094.29165C44709.99238,12094.43255 44710.23295,12095.09588 44710.43333,12096.23236Z" style="fill:#113016;"/></g><g id="Grass-Clump-31" transform="matrix(3.659246,-0.227763,0.220863,0.887197,-121963.437119,11562.387769)"><path d="M44669.67405,12229C44637.76956,12155.05358 44688,12073 44688,12073L44669.67405,12235.00702L44676,12227C44676,12227 44710.90504,12165.44834 44695.66911,12087.87286L44671.16044,12223.28788" style="fill:#0f810d;stroke:#103016;stroke-width:0.68px;"/></g><g id="Grass-Blade-31" transform="matrix(2.317897,0.714498,1.10025,-0.89231,-72638.914296,-8907.590866)"><path d="M44711,12096C44711.50443,12098.86081 44711.64687,12102.1496 44711.48342,12105.77669C44709.6579,12146.28724 44669.67405,12229 44669.67405,12229L44695.05842,12123.36423C44695.05842,12123.36423 44708.67993,12082.84188 44711,12096Z" style="fill:#227e1f;"/><path d="M44711,12096C44711.50443,12098.86081 44711.64687,12102.1496 44711.48342,12105.77669C44709.6579,12146.28724 44669.67405,12229 44669.67405,12229L44695.05842,12123.36423C44695.05842,12123.36423 44708.67993,12082.84188 44711,12096ZM44710.28946,12096.2113C44710.17448,12095.55921 44710.03514,12095.06219 44709.8574,12094.71253C44709.75853,12094.51802 44709.65929,12094.37854 44709.53045,12094.33357C44709.27801,12094.24546 44709.00424,12094.44184 44708.68191,12094.72452C44708.18959,12095.15626 44707.6567,12095.84577 44707.09093,12096.71794C44702.46825,12103.84415 44696.1021,12122.62902 44695.74233,12123.69594L44672.12887,12221.96191C44678.12422,12208.99924 44691.61459,12178.78191 44700.97567,12149.89084C44706.24533,12133.62714 44710.21186,12117.79053 44710.75574,12105.72134C44710.91472,12102.1933 44710.78011,12098.994 44710.28946,12096.2113Z" style="fill:#113016;"/></g><g id="Grass-Blade-51" transform="matrix(-2.686096,0.642785,-0.781398,-0.816306,174024.666132,-6645.437585)"><path d="M44695.66911,12087.87286C44651.60137,12183.86345 44677.36743,12226 44677.36743,12226C44677.36743,12226 44739.73686,11991.88226 44695.66911,12087.87286Z" style="fill:#318116;"/><path d="M44695.66911,12087.87286C44651.60137,12183.86345 44677.36743,12226 44677.36743,12226C44677.36743,12226 44739.73686,11991.88226 44695.66911,12087.87286ZM44696.46693,12088.86429C44701.66457,12077.54252 44705.34097,12070.87121 44707.81238,12067.93559C44708.44416,12067.18514 44708.97515,12066.69737 44709.42644,12066.49452C44709.63432,12066.40108 44709.80399,12066.34085 44709.93481,12066.47935C44710.10017,12066.6544 44710.17499,12067.01154 44710.25062,12067.45409C44710.38465,12068.23848 44710.43372,12069.24995 44710.42233,12070.46294C44710.40974,12071.8047 44710.31913,12073.37072 44710.16073,12075.13624C44707.22558,12107.85175 44681.51624,12206.16487 44677.09701,12222.90383C44672.92034,12213.75775 44658.42726,12171.72425 44696.46693,12088.86429Z" style="fill:#103016;"/></g><g id="Grass-Blade-41" transform="matrix(5.25068,3.160144,1.064634,-0.677134,-202612.60294,-120536.251419)"><path d="M44580,12168C44594.90638,12079.99417 44605.6,12082.54258 44605.6,12082.54258L44580.58941,12164.55439" style="fill:#318116;stroke:#103016;stroke-width:0.52px;stroke-linejoin:miter;"/></g><g id="Grass-Clump-21" transform="matrix(-3.464081,0.363361,0.355957,0.958734,194678.495299,-15711.708095)"><path d="M44646,12240C44654.46459,12220.27042 44660.16187,12202.81369 44663.84171,12187.48336C44679.36,12122.83362 44659,12096 44659,12096L44648.10355,12235.00702C44648.10355,12235.00702 44609.50742,12133.55813 44649,12077.99298L44652.26598,12234.70139" style="fill:#318116;stroke:#103016;stroke-width:0.69px;"/></g><g id="Grass-Clump-11" transform="matrix(2.461925,-1.107371,0.612936,0.729424,-73054.036135,52768.897622)"><path d="M44696,12087C44682.11421,12097.6839 44670.9391,12120.78338 44663.33804,12145.99628C44645.96633,12203.61864 44647.26256,12272.2798 44677.53288,12229C44721.04809,12166.78295 44735.62981,12050.47994 44679.04228,12195.10295L44696,12087L44695.67012,12089.10295" style="fill:#2d821c;stroke:#103016;stroke-width:0.89px;"/></g><g id="Grass-Blade-63" transform="matrix(-2.362656,0.80351,-1.229458,-0.903786,164989.423624,-12749.703402)"><path d="M44711,12096C44713.46113,12109.95813 44707.30519,12134.10421 44699.04651,12158.0247C44686.70727,12193.76415 44669.67405,12229 44669.67405,12229L44695.05842,12123.36423C44695.05842,12123.36423 44708.67993,12082.84188 44711,12096Z" style="fill:#227e1f;"/><path d="M44711,12096C44708.67993,12082.84188 44695.05842,12123.36423 44695.05842,12123.36423L44669.67405,12229C44669.67405,12229 44686.70727,12193.76415 44699.04651,12158.0247C44707.30519,12134.10421 44713.46113,12109.95813 44711,12096ZM44710.3231,12096.20387C44711.289,12101.68191 44710.88574,12108.75827 44709.5552,12116.78112C44707.52996,12128.99285 44703.34688,12143.3617 44698.41335,12157.6512C44689.2172,12184.28697 44677.40965,12210.64251 44672.01352,12222.29444L44695.70995,12123.68327C44696.06545,12122.62906 44702.43729,12103.82649 44707.06331,12096.69514C44707.63138,12095.81941 44708.1667,12095.12738 44708.66103,12094.69387C44708.9943,12094.40161 44709.27942,12094.20539 44709.54042,12094.2965C44709.67626,12094.34391 44709.7829,12094.4883 44709.88714,12094.69337C44710.06629,12095.04581 44710.20721,12095.54661 44710.3231,12096.20387Z" style="fill:#113016;"/></g><g id="Grass-Blade-72" transform="matrix(-3.276729,0.053141,-0.073404,-1.131536,191623.592807,23553.14483)"><path d="M44711,12096C44717.1383,12130.81288 44669.67405,12229 44669.67405,12229L44695.05842,12123.36423C44695.05842,12123.36423 44708.67993,12082.84188 44711,12096Z" style="fill:#227e1f;"/><path d="M44711,12096C44708.67993,12082.84188 44695.05842,12123.36423 44695.05842,12123.36423L44669.67405,12229C44669.67405,12229 44717.1383,12130.81288 44711,12096ZM44710.41337,12096.21682C44712.23221,12106.53221 44709.23815,12122.46685 44704.22246,12139.74076C44694.78827,12172.23188 44678.10769,12209.36068 44671.74337,12223.05627L44695.61862,12123.70088C44695.97689,12122.63863 44702.349,12103.83904 44706.97478,12096.70805C44707.54786,12095.82461 44708.08897,12095.12699 44708.58765,12094.68967C44708.95949,12094.36358 44709.28652,12094.16981 44709.57772,12094.27145C44709.73133,12094.32507 44709.86022,12094.47863 44709.9781,12094.71053C44710.15669,12095.06185 44710.29785,12095.56164 44710.41337,12096.21682Z" style="fill:#113016;"/></g><g id="Grass-Blade-73" transform="matrix(-2.858809,0.562468,-0.731503,-0.929406,180827.012055,-1662.488796)"><path d="M44711,12096C44717.1383,12130.81288 44669.67405,12229 44669.67405,12229L44695.05842,12123.36423C44695.05842,12123.36423 44708.67993,12082.84188 44711,12096Z" style="fill:#227e1f;"/><path d="M44711,12096C44708.67993,12082.84188 44695.05842,12123.36423 44695.05842,12123.36423L44669.67405,12229C44669.67405,12229 44717.1383,12130.81288 44711,12096ZM44710.37643,12096.26004C44712.19094,12106.55088 44709.1944,12122.44253 44704.19064,12139.67534C44694.852,12171.83738 44678.4109,12208.54463 44671.91136,12222.55594L44695.6508,12123.76576C44696.03623,12122.62325 44702.38129,12103.9157 44706.99086,12096.8097C44707.56046,12095.93162 44708.09838,12095.23771 44708.59403,12094.80304C44708.96261,12094.47981 44709.28796,12094.28751 44709.57662,12094.38826C44709.96357,12094.52333 44710.18434,12095.17058 44710.37643,12096.26004Z" style="fill:#113016;"/></g></g><g id="Grass-Patch-12" transform="matrix(-14.106472,0,-0,87.19753,691481.375586,-1054034.176064)"><g id="Grass-Blade-12" transform="matrix(2.324188,0.525792,0.978904,-0.989214,-71514.336284,700.015664)"><path d="M44711,12096C44717.1383,12130.81288 44669.67405,12229 44669.67405,12229L44695.05842,12123.36423C44695.05842,12123.36423 44708.67993,12082.84188 44711,12096Z" style="fill:#227e1f;"/><path d="M44711,12096C44717.1383,12130.81288 44669.67405,12229 44669.67405,12229L44695.05842,12123.36423C44695.05842,12123.36423 44708.67993,12082.84188 44711,12096ZM44710.2369,12096.20868C44710.1185,12095.53716 44709.97395,12095.02642 44709.79091,12094.66634C44709.69166,12094.47108 44709.60047,12094.32651 44709.47113,12094.28136C44709.24787,12094.20343 44709.01594,12094.39974 44708.73086,12094.64974C44708.24144,12095.07894 44707.71302,12095.76448 44707.15059,12096.63151C44702.52005,12103.76983 44696.14139,12122.60109 44695.79734,12123.62166L44684.72094,12169.71555L44672.22727,12221.70666C44679.02257,12206.99425 44694.92063,12171.23929 44704.04332,12139.821C44709.06823,12122.51533 44712.05908,12106.54303 44710.2369,12096.20868Z" style="fill:#113016;"/></g><g id="Grass-Blade-64" transform="matrix(-2.373162,0.795733,-1.217557,-0.907805,165042.418747,-12356.384796)"><path d="M44711,12096C44713.46113,12109.95813 44707.30519,12134.10421 44699.04651,12158.0247C44686.70727,12193.76415 44669.67405,12229 44669.67405,12229L44695.05842,12123.36423C44695.05842,12123.36423 44708.67993,12082.84188 44711,12096Z" style="fill:#227e1f;"/><path d="M44711,12096C44708.67993,12082.84188 44695.05842,12123.36423 44695.05842,12123.36423L44669.67405,12229C44669.67405,12229 44686.70727,12193.76415 44699.04651,12158.0247C44707.30519,12134.10421 44713.46113,12109.95813 44711,12096ZM44710.3231,12096.20387C44711.289,12101.68191 44710.88574,12108.75827 44709.5552,12116.78112C44707.52996,12128.99285 44703.34688,12143.3617 44698.41335,12157.6512C44689.2172,12184.28697 44677.40965,12210.64251 44672.01352,12222.29444L44695.70995,12123.68327C44696.06545,12122.62906 44702.43729,12103.82649 44707.06331,12096.69514C44707.63138,12095.81941 44708.1667,12095.12738 44708.66103,12094.69387C44708.9943,12094.40161 44709.27942,12094.20539 44709.54042,12094.2965C44709.67626,12094.34391 44709.7829,12094.4883 44709.88714,12094.69337C44710.06629,12095.04581 44710.20721,12095.5466 44710.3231,12096.20387Z" style="fill:#113016;"/></g><g id="Grass-Blade-22" transform="matrix(-2.482953,1.148532,-1.506184,-0.814028,173527.380139,-29259.93827)"><path d="M44711,12096C44717.1383,12130.81288 44669.67405,12229 44669.67405,12229L44695.05842,12123.36423C44695.05842,12123.36423 44708.67993,12082.84188 44711,12096Z" style="fill:#227e1f;"/><path d="M44711,12096C44708.67993,12082.84188 44695.05842,12123.36423 44695.05842,12123.36423L44669.67405,12229C44669.67405,12229 44717.1383,12130.81288 44711,12096ZM44710.43333,12096.23236C44712.25069,12106.53933 44709.25564,12122.45827 44704.24404,12139.7181C44694.77659,12172.32374 44678.01108,12209.59998 44671.69887,12223.1746L44695.59713,12123.72342C44695.96314,12122.63836 44702.32882,12103.8622 44706.95063,12096.73735C44707.52465,12095.85245 44708.06701,12095.15375 44708.56651,12094.7157C44708.94955,12094.37979 44709.28875,12094.18694 44709.58872,12094.29165C44709.99238,12094.43255 44710.23295,12095.09588 44710.43333,12096.23236Z" style="fill:#113016;"/></g><g id="Grass-Clump-32" transform="matrix(3.659246,-0.227763,0.220863,0.887197,-121963.437119,11562.387769)"><path d="M44669.67405,12229C44637.76956,12155.05358 44688,12073 44688,12073L44669.67405,12235.00702L44676,12227C44676,12227 44710.90504,12165.44834 44695.66911,12087.87286L44671.16044,12223.28788" style="fill:#0f810d;stroke:#103016;stroke-width:0.68px;"/></g><g id="Grass-Blade-32" transform="matrix(2.317897,0.714498,1.10025,-0.89231,-72638.914296,-8907.590866)"><path d="M44711,12096C44711.50443,12098.86081 44711.64687,12102.1496 44711.48342,12105.77669C44709.6579,12146.28724 44669.67405,12229 44669.67405,12229L44695.05842,12123.36423C44695.05842,12123.36423 44708.67993,12082.84188 44711,12096Z" style="fill:#227e1f;"/><path d="M44711,12096C44711.50443,12098.86081 44711.64687,12102.1496 44711.48342,12105.77669C44709.6579,12146.28724 44669.67405,12229 44669.67405,12229L44695.05842,12123.36423C44695.05842,12123.36423 44708.67993,12082.84188 44711,12096ZM44710.28946,12096.2113C44710.17448,12095.55921 44710.03514,12095.06219 44709.8574,12094.71253C44709.75853,12094.51802 44709.65929,12094.37854 44709.53045,12094.33357C44709.27801,12094.24546 44709.00424,12094.44184 44708.68191,12094.72452C44708.18959,12095.15626 44707.6567,12095.84577 44707.09093,12096.71794C44702.46825,12103.84415 44696.1021,12122.62902 44695.74233,12123.69594L44672.12887,12221.96191C44678.12422,12208.99924 44691.61459,12178.78191 44700.97567,12149.89084C44706.24533,12133.62714 44710.21186,12117.79053 44710.75574,12105.72134C44710.91472,12102.1933 44710.78011,12098.994 44710.28946,12096.2113Z" style="fill:#113016;"/></g><g id="Grass-Blade-52" transform="matrix(-2.686096,0.642785,-0.781398,-0.816306,174024.666132,-6645.437585)"><path d="M44695.66911,12087.87286C44651.60137,12183.86345 44677.36743,12226 44677.36743,12226C44677.36743,12226 44739.73686,11991.88226 44695.66911,12087.87286Z" style="fill:#318116;"/><path d="M44695.66911,12087.87286C44651.60137,12183.86345 44677.36743,12226 44677.36743,12226C44677.36743,12226 44739.73686,11991.88226 44695.66911,12087.87286ZM44696.46694,12088.86426C44701.66458,12077.54249 44705.34097,12070.87122 44707.81238,12067.93559C44708.44416,12067.18514 44708.97515,12066.69737 44709.42644,12066.49452C44709.63432,12066.40108 44709.80399,12066.34085 44709.93481,12066.47935C44710.10017,12066.6544 44710.17499,12067.01154 44710.25062,12067.45409C44710.38465,12068.23848 44710.43372,12069.24995 44710.42233,12070.46294C44710.40974,12071.8047 44710.31913,12073.37072 44710.16073,12075.13624C44707.22558,12107.85175 44681.51624,12206.16487 44677.09701,12222.90383C44672.92034,12213.75774 44658.42724,12171.72426 44696.46694,12088.86426Z" style="fill:#103016;"/></g><g id="Grass-Blade-42" transform="matrix(5.25068,3.160144,1.064634,-0.677134,-202612.60294,-120536.251419)"><path d="M44580,12168C44594.90638,12079.99417 44605.6,12082.54258 44605.6,12082.54258L44580.58941,12164.55439" style="fill:#318116;stroke:#103016;stroke-width:0.52px;stroke-linejoin:miter;"/></g><g id="Grass-Clump-22" transform="matrix(-3.464081,0.363361,0.355957,0.958734,194678.495299,-15711.708095)"><path d="M44646,12240C44654.46459,12220.27042 44660.16187,12202.81369 44663.84171,12187.48336C44679.36,12122.83362 44659,12096 44659,12096L44648.10355,12235.00702C44648.10355,12235.00702 44609.50742,12133.55813 44649,12077.99298L44652.26598,12234.70139" style="fill:#318116;stroke:#103016;stroke-width:0.69px;"/></g><g id="Grass-Clump-12" transform="matrix(2.461925,-1.107371,0.612936,0.729424,-73054.036135,52768.897622)"><path d="M44696,12087C44682.11421,12097.6839 44670.9391,12120.78338 44663.33804,12145.99628C44645.96633,12203.61864 44647.26256,12272.2798 44677.53288,12229C44721.04809,12166.78295 44735.62981,12050.47994 44679.04228,12195.10295L44696,12087L44695.67012,12089.10295" style="fill:#2d821c;stroke:#103016;stroke-width:0.89px;"/></g><g id="Grass-Blade-65" transform="matrix(-2.362656,0.80351,-1.229458,-0.903786,164989.423624,-12749.703402)"><path d="M44711,12096C44713.46113,12109.95813 44707.30519,12134.10421 44699.04651,12158.0247C44686.70727,12193.76415 44669.67405,12229 44669.67405,12229L44695.05842,12123.36423C44695.05842,12123.36423 44708.67993,12082.84188 44711,12096Z" style="fill:#227e1f;"/><path d="M44711,12096C44708.67993,12082.84188 44695.05842,12123.36423 44695.05842,12123.36423L44669.67405,12229C44669.67405,12229 44686.70727,12193.76415 44699.04651,12158.0247C44707.30519,12134.10421 44713.46113,12109.95813 44711,12096ZM44710.3231,12096.20387C44711.289,12101.68191 44710.88574,12108.75827 44709.5552,12116.78112C44707.52996,12128.99285 44703.34688,12143.3617 44698.41335,12157.6512C44689.2172,12184.28697 44677.40965,12210.64251 44672.01352,12222.29443L44695.70995,12123.68327C44696.06545,12122.62906 44702.43729,12103.82649 44707.06331,12096.69514C44707.63138,12095.81941 44708.1667,12095.12738 44708.66103,12094.69387C44708.9943,12094.40161 44709.27942,12094.20539 44709.54042,12094.2965C44709.67626,12094.34391 44709.7829,12094.4883 44709.88714,12094.69337C44710.06629,12095.04581 44710.20721,12095.5466 44710.3231,12096.20387Z" style="fill:#113016;"/></g><g id="Grass-Blade-74" transform="matrix(-3.276729,0.053141,-0.073404,-1.131536,191623.592807,23553.14483)"><path d="M44711,12096C44717.1383,12130.81288 44669.67405,12229 44669.67405,12229L44695.05842,12123.36423C44695.05842,12123.36423 44708.67993,12082.84188 44711,12096Z" style="fill:#227e1f;"/><path d="M44711,12096C44708.67993,12082.84188 44695.05842,12123.36423 44695.05842,12123.36423L44669.67405,12229C44669.67405,12229 44717.1383,12130.81288 44711,12096ZM44710.41337,12096.21682C44712.23221,12106.53221 44709.23815,12122.46685 44704.22246,12139.74076C44694.78827,12172.23188 44678.10769,12209.36068 44671.74337,12223.05627L44695.61862,12123.70088C44695.97689,12122.63863 44702.349,12103.83904 44706.97478,12096.70805C44707.54786,12095.82461 44708.08897,12095.12699 44708.58765,12094.68967C44708.95949,12094.36358 44709.28652,12094.16981 44709.57772,12094.27145C44709.73133,12094.32507 44709.86022,12094.47863 44709.9781,12094.71053C44710.15669,12095.06185 44710.29785,12095.56164 44710.41337,12096.21682Z" style="fill:#113016;"/></g><g id="Grass-Blade-75" transform="matrix(-2.858809,0.562468,-0.731503,-0.929406,180827.012055,-1662.488796)"><path d="M44711,12096C44717.1383,12130.81288 44669.67405,12229 44669.67405,12229L44695.05842,12123.36423C44695.05842,12123.36423 44708.67993,12082.84188 44711,12096Z" style="fill:#227e1f;"/><path d="M44711,12096C44708.67993,12082.84188 44695.05842,12123.36423 44695.05842,12123.36423L44669.67405,12229C44669.67405,12229 44717.1383,12130.81288 44711,12096ZM44710.37643,12096.26004C44712.19094,12106.55088 44709.1944,12122.44253 44704.19064,12139.67534C44694.852,12171.83738 44678.4109,12208.54463 44671.91136,12222.55594L44695.6508,12123.76576C44696.03623,12122.62325 44702.38129,12103.9157 44706.99086,12096.8097C44707.56046,12095.93162 44708.09838,12095.23771 44708.59403,12094.80304C44708.96261,12094.47981 44709.28796,12094.28751 44709.57662,12094.38826C44709.96357,12094.52333 44710.18434,12095.17058 44710.37643,12096.26004Z" style="fill:#113016;"/></g></g><g id="Grass-edge" transform="matrix(1.163552,0,-0,-27.914584,10870.197316,352822.200818)"><rect x="35920" y="12148" width="13861" height="31" style="fill:#6a481b;"/></g><g id="Grass-edge1" transform="matrix(1.163552,0,-0,-4.187188,10870.197316,64689.955475)"><rect x="35920" y="12148" width="13861" height="31"/></g></g></g></g>
  </g>
</svg>
