<?xml version="1.0" encoding="UTF-8"?>
<svg xmlns="http://www.w3.org/2000/svg" viewBox="0 0 3.875 3.5" width="558" height="504">
  <title>sym-post-cap-metal-pyramid</title>
  <desc>Black metal pyramid post cap — 3.875 in base (slip-fit on 3.5 in post), straight pyramid peak with brief shoulder ease. Ref: NUVO IRON US-PCP11BLK.</desc>
  <defs>
    <linearGradient id="metal-cap-shine" x1="0" y1="0" x2="1" y2="1" gradientUnits="objectBoundingBox">
      <stop offset="0%" stop-color="#5c6370"/>
      <stop offset="35%" stop-color="#374151"/>
      <stop offset="72%" stop-color="#1f2937"/>
      <stop offset="100%" stop-color="#111827"/>
    </linearGradient>
    <linearGradient id="metal-cap-edge" x1="0" y1="0" x2="0" y2="1" gradientUnits="objectBoundingBox">
      <stop offset="0%" stop-color="#6b7280" stop-opacity="0.55"/>
      <stop offset="100%" stop-color="#111827" stop-opacity="0"/>
    </linearGradient>
  </defs>
  <g id="sym-post-cap-metal-pyramid"
     data-ref-vendor="Home Depot"
     data-ref-brand="NUVO IRON"
     data-ref-model="US-PCP11BLK"
     data-ref-url="https://www.homedepot.com/p/NUVO-IRON-Easy-Cap-4-in-x-4-in-Black-Galvanized-Steel-Pyramid-Post-Cap-US-PCP11BLK/320202298">
    <g id="shell">
      <path fill="#000000" d="M 0 3.5 L 0 1.375 Q 0.0625 1.3125 0.125 1.25 L 1.9375 0 L 3.75 1.25 Q 3.8125 1.3125 3.875 1.375 L 3.875 3.5 Z"/>
    </g>
    <g id="fill" data-slot="post-cap-material">
      <g data-post-cap-material="metal">
        <path fill="url(#metal-cap-shine)" d="M 0.1875 3.3125 L 0.1875 1.5 Q 0.21875 1.46875 0.25 1.4375 L 1.9375 0.1875 L 3.625 1.4375 Q 3.65625 1.46875 3.6875 1.5 L 3.6875 3.3125 Z"/>
        <path fill="url(#metal-cap-edge)" opacity="0.65" d="M 0.1875 1.5 L 0.1875 3.3125 L 1.0625 2.875 L 1.9375 0.1875 L 1.4375 1.125 L 0.25 1.4375 Q 0.21875 1.46875 0.1875 1.5 Z"/>
      </g>
    </g>
  </g>
</svg>
