<?xml version="1.0" encoding="UTF-8"?>
<svg xmlns="http://www.w3.org/2000/svg" viewBox="0 0 4.25 4.25" width="612" height="612">
  <title>sym-post-cap-solar-pyramid</title>
  <desc>Solar pyramid post cap — 4.25 in base, dark housing, amber lens, straight pyramid peak. Ref: Veranda 144426.</desc>
  <defs>
    <linearGradient id="solar-body" x1="0" y1="0" x2="0" y2="1" gradientUnits="objectBoundingBox">
      <stop offset="0%" stop-color="#3d4450"/>
      <stop offset="55%" stop-color="#252a33"/>
      <stop offset="100%" stop-color="#15181e"/>
    </linearGradient>
    <linearGradient id="solar-lens" x1="0" y1="0" x2="0" y2="1" gradientUnits="objectBoundingBox">
      <stop offset="0%" stop-color="#fff4d6"/>
      <stop offset="45%" stop-color="#f5c842"/>
      <stop offset="100%" stop-color="#d4921a"/>
    </linearGradient>
    <linearGradient id="solar-cell" x1="0" y1="0" x2="1" y2="1" gradientUnits="objectBoundingBox">
      <stop offset="0%" stop-color="#1e3a5f"/>
      <stop offset="50%" stop-color="#0f172a"/>
      <stop offset="100%" stop-color="#334155"/>
    </linearGradient>
  </defs>
  <g id="sym-post-cap-solar-pyramid"
     data-ref-vendor="Home Depot"
     data-ref-brand="Veranda"
     data-ref-model="144426"
     data-ref-url="https://www.homedepot.com/p/Veranda-4-in-x-4-in-White-Vinyl-Solar-Powered-Pyramid-Fence-Post-Cap-144426/203205528">
    <g id="shell">
      <path fill="#000000" d="M 0 4.25 L 4.25 4.25 L 4.25 3.5 L 4.25 1.375 Q 4.1875 1.3125 4.125 1.25 L 2.125 0 L 0.125 1.25 Q 0.0625 1.3125 0 1.375 L 0 3.5 Z"/>
    </g>
    <g id="fill" data-slot="post-cap-material">
      <g data-post-cap-material="solar">
        <path fill="url(#solar-body)" d="M 0.1875 4.0625 L 4.0625 4.0625 L 4.0625 3.3125 L 4.0625 1.5 Q 4.03125 1.46875 4 1.4375 L 2.125 0.1875 L 0.25 1.4375 Q 0.21875 1.46875 0.1875 1.5 L 0.1875 3.3125 Z"/>
        <path fill="url(#solar-lens)" opacity="0.95" d="M 1.4375 1.4375 L 2.8125 0.8125 L 2.8125 1.8125 L 1.4375 2.25 Z"/>
        <path fill="url(#solar-cell)" d="M 1.625 0.6875 L 2.625 0.4375 L 2.875 0.9375 L 1.875 1.1875 Z"/>
      </g>
    </g>
  </g>
</svg>
