<?xml version="1.0" encoding="UTF-8"?>
<svg xmlns="http://www.w3.org/2000/svg" viewBox="0 0 3.5 72" width="504" height="10368">
  <title>sym-post-pt-4x4</title>
  <desc>PT material slots — incised dash + appearance flow grain. Generated by build-texture-patterns.js</desc>
  <defs>
    <pattern id="pt-grain-post" patternUnits="userSpaceOnUse" patternContentUnits="userSpaceOnUse" width="3.125" height="1.3125" patternTransform="translate(0.1875, 0.1875)">
      <rect x="0.90625" y="0.03125" width="0.1875" height="0.625" fill="#000000"/>
      <rect x="2.15625" y="0.03125" width="0.1875" height="0.625" fill="#000000"/>
      <rect x="1.5" y="0.6875" width="0.1875" height="0.625" fill="#000000"/>
      <rect x="0.25" y="0.6875" width="0.1875" height="0.625" fill="#000000"/>
      <rect x="2.75" y="0.6875" width="0.1875" height="0.625" fill="#000000"/>
    </pattern>
    <pattern id="pt-appearance-post-grain" patternUnits="userSpaceOnUse" patternContentUnits="userSpaceOnUse" width="3.125" height="24" patternTransform="translate(0.1875, 0.1875)">
      <ellipse cx="1.09375" cy="7.84375" rx="0.125" ry="0.34375" fill="#4a3018" opacity="0.98"/>
      <ellipse cx="1.09375" cy="7.84375" rx="0.15625" ry="0.46875" fill="#553820" opacity="0.88"/>
      <ellipse cx="1.09375" cy="7.84375" rx="0.21875" ry="0.5625" fill="#664028" opacity="0.62"/>
      <ellipse cx="1.09375" cy="7.84375" rx="0.25" ry="0.6875" fill="#785030" opacity="0.38"/>
      <ellipse cx="2.40625" cy="14.71875" rx="0.09375" ry="0.1875" fill="#382010" opacity="1"/>
      <ellipse cx="2.40625" cy="14.71875" rx="0.125" ry="0.25" fill="#422818" opacity="0.9"/>
      <ellipse cx="2.40625" cy="14.71875" rx="0.15625" ry="0.3125" fill="#503020" opacity="0.65"/>
      <ellipse cx="2.40625" cy="14.71875" rx="0.1875" ry="0.375" fill="#5e3828" opacity="0.4"/>
      <path d="M 0.28125 0 L 0.3125 0.3125 L 0.3125 0.59375 L 0.3125 0.90625 L 0.3125 1.1875 L 0.3125 1.5 L 0.3125 1.8125 L 0.3125 2.09375 L 0.3125 2.40625 L 0.3125 2.6875 L 0.3125 3 L 0.3125 3.3125 L 0.3125 3.59375 L 0.3125 3.90625 L 0.28125 4.1875 L 0.28125 4.5 L 0.28125 4.8125 L 0.25 5.09375 L 0.21875 5.40625 L 0.1875 5.6875 L 0.15625 6 L 0.09375 6.3125 L 0.0625 6.59375 L 0.03125 6.90625 L 0 7.1875 L -0.03125 7.5 L -0.0625 7.8125 L -0.0625 8.09375 L -0.0625 8.40625 L -0.03125 8.6875 L 0 9 L 0.03125 9.3125 L 0.09375 9.59375 L 0.15625 9.90625 L 0.1875 10.1875 L 0.21875 10.5 L 0.25 10.8125 L 0.25 11.09375 L 0.28125 11.40625 L 0.28125 11.6875 L 0.28125 12" fill="none" stroke="#5a3828" stroke-width="0.03125" stroke-linecap="round" stroke-linejoin="round" opacity="0.62"/>
      <path d="M 0.625 0 L 0.625 0.3125 L 0.65625 0.59375 L 0.65625 0.90625 L 0.65625 1.1875 L 0.65625 1.5 L 0.65625 1.8125 L 0.625 2.09375 L 0.625 2.40625 L 0.59375 2.6875 L 0.59375 3 L 0.5625 3.3125 L 0.5625 3.59375 L 0.53125 3.90625 L 0.53125 4.1875 L 0.5 4.5 L 0.5 4.8125 L 0.46875 5.09375 L 0.46875 5.40625 L 0.4375 5.6875 L 0.40625 6 L 0.375 6.3125 L 0.34375 6.59375 L 0.28125 6.90625 L 0.28125 7.1875 L 0.25 7.5 L 0.21875 7.8125 L 0.21875 8.09375 L 0.21875 8.40625 L 0.25 8.6875 L 0.28125 9 L 0.3125 9.3125 L 0.375 9.59375 L 0.40625 9.90625 L 0.46875 10.1875 L 0.5 10.5 L 0.53125 10.8125 L 0.5625 11.09375 L 0.59375 11.40625 L 0.59375 11.6875 L 0.625 12" fill="none" stroke="#000000" stroke-width="0.03125" stroke-linecap="round" stroke-linejoin="round" opacity="0.85"/>
      <path d="M 0.84375 0 L 0.84375 0.3125 L 0.84375 0.59375 L 0.84375 0.90625 L 0.8125 1.1875 L 0.8125 1.5 L 0.8125 1.8125 L 0.78125 2.09375 L 0.78125 2.40625 L 0.78125 2.6875 L 0.78125 3 L 0.75 3.3125 L 0.75 3.59375 L 0.75 3.90625 L 0.75 4.1875 L 0.75 4.5 L 0.75 4.8125 L 0.71875 5.09375 L 0.71875 5.40625 L 0.6875 5.6875 L 0.65625 6 L 0.625 6.3125 L 0.59375 6.59375 L 0.5625 6.90625 L 0.53125 7.1875 L 0.53125 7.5 L 0.53125 7.8125 L 0.53125 8.09375 L 0.53125 8.40625 L 0.5625 8.6875 L 0.59375 9 L 0.65625 9.3125 L 0.71875 9.59375 L 0.75 9.90625 L 0.78125 10.1875 L 0.8125 10.5 L 0.84375 10.8125 L 0.84375 11.09375 L 0.84375 11.40625 L 0.84375 11.6875 L 0.84375 12" fill="none" stroke="#2a1810" stroke-width="0.03125" stroke-linecap="round" stroke-linejoin="round" opacity="0.75"/>
      <path d="M 1.21875 0 L 1.21875 0.3125 L 1.1875 0.59375 L 1.1875 0.90625 L 1.1875 1.1875 L 1.15625 1.5 L 1.15625 1.8125 L 1.15625 2.09375 L 1.15625 2.40625 L 1.15625 2.6875 L 1.15625 3 L 1.1875 3.3125 L 1.1875 3.59375 L 1.15625 3.90625 L 1.15625 4.1875 L 1.15625 4.5 L 1.125 4.8125 L 1.125 5.09375 L 1.125 5.40625 L 1.125 5.6875 L 1.15625 6 L 1.1875 6.3125 L 1.25 6.59375 L 1.3125 6.90625 L 1.34375 7.1875 L 1.375 7.5 L 1.40625 7.8125 L 1.40625 8.09375 L 1.40625 8.40625 L 1.375 8.6875 L 1.34375 9 L 1.28125 9.3125 L 1.25 9.59375 L 1.1875 9.90625 L 1.1875 10.1875 L 1.15625 10.5 L 1.15625 10.8125 L 1.1875 11.09375 L 1.1875 11.40625 L 1.1875 11.6875 L 1.21875 12" fill="none" stroke="#3d2418" stroke-width="0.03125" stroke-linecap="round" stroke-linejoin="round" opacity="0.7"/>
      <path d="M 1.46875 0 L 1.46875 0.3125 L 1.46875 0.59375 L 1.46875 0.90625 L 1.4375 1.1875 L 1.4375 1.5 L 1.40625 1.8125 L 1.40625 2.09375 L 1.375 2.40625 L 1.375 2.6875 L 1.375 3 L 1.34375 3.3125 L 1.34375 3.59375 L 1.34375 3.90625 L 1.34375 4.1875 L 1.375 4.5 L 1.375 4.8125 L 1.40625 5.09375 L 1.4375 5.40625 L 1.5 5.6875 L 1.53125 6 L 1.59375 6.3125 L 1.65625 6.59375 L 1.71875 6.90625 L 1.75 7.1875 L 1.78125 7.5 L 1.78125 7.8125 L 1.78125 8.09375 L 1.78125 8.40625 L 1.75 8.6875 L 1.71875 9 L 1.6875 9.3125 L 1.625 9.59375 L 1.59375 9.90625 L 1.5625 10.1875 L 1.53125 10.5 L 1.5 10.8125 L 1.5 11.09375 L 1.46875 11.40625 L 1.46875 11.6875 L 1.46875 12" fill="none" stroke="#000000" stroke-width="0.03125" stroke-linecap="round" stroke-linejoin="round" opacity="0.8"/>
      <path d="M 1.875 0 L 1.875 0.3125 L 1.875 0.59375 L 1.875 0.90625 L 1.875 1.1875 L 1.84375 1.5 L 1.84375 1.8125 L 1.8125 2.09375 L 1.8125 2.40625 L 1.78125 2.6875 L 1.78125 3 L 1.75 3.3125 L 1.75 3.59375 L 1.71875 3.90625 L 1.71875 4.1875 L 1.71875 4.5 L 1.71875 4.8125 L 1.75 5.09375 L 1.78125 5.40625 L 1.8125 5.6875 L 1.84375 6 L 1.90625 6.3125 L 1.9375 6.59375 L 2 6.90625 L 2.03125 7.1875 L 2.03125 7.5 L 2.0625 7.8125 L 2.0625 8.09375 L 2.0625 8.40625 L 2.03125 8.6875 L 2 9 L 1.96875 9.3125 L 1.9375 9.59375 L 1.90625 9.90625 L 1.875 10.1875 L 1.84375 10.5 L 1.84375 10.8125 L 1.84375 11.09375 L 1.84375 11.40625 L 1.84375 11.6875 L 1.875 12" fill="none" stroke="#5a3828" stroke-width="0.03125" stroke-linecap="round" stroke-linejoin="round" opacity="0.5"/>
      <path d="M 2.09375 0 L 2.125 0.3125 L 2.125 0.59375 L 2.125 0.90625 L 2.125 1.1875 L 2.15625 1.5 L 2.15625 1.8125 L 2.15625 2.09375 L 2.15625 2.40625 L 2.15625 2.6875 L 2.15625 3 L 2.15625 3.3125 L 2.15625 3.59375 L 2.15625 3.90625 L 2.15625 4.1875 L 2.125 4.5 L 2.125 4.8125 L 2.15625 5.09375 L 2.15625 5.40625 L 2.15625 5.6875 L 2.1875 6 L 2.21875 6.3125 L 2.25 6.59375 L 2.28125 6.90625 L 2.3125 7.1875 L 2.34375 7.5 L 2.34375 7.8125 L 2.34375 8.09375 L 2.34375 8.40625 L 2.3125 8.6875 L 2.28125 9 L 2.25 9.3125 L 2.21875 9.59375 L 2.15625 9.90625 L 2.125 10.1875 L 2.09375 10.5 L 2.09375 10.8125 L 2.09375 11.09375 L 2.09375 11.40625 L 2.09375 11.6875 L 2.09375 12" fill="none" stroke="#2a1810" stroke-width="0.03125" stroke-linecap="round" stroke-linejoin="round" opacity="0.72"/>
      <path d="M 2.5 0 L 2.5 0.3125 L 2.46875 0.59375 L 2.46875 0.90625 L 2.4375 1.1875 L 2.4375 1.5 L 2.40625 1.8125 L 2.40625 2.09375 L 2.375 2.40625 L 2.34375 2.6875 L 2.34375 3 L 2.34375 3.3125 L 2.34375 3.59375 L 2.34375 3.90625 L 2.34375 4.1875 L 2.34375 4.5 L 2.375 4.8125 L 2.375 5.09375 L 2.40625 5.40625 L 2.4375 5.6875 L 2.5 6 L 2.53125 6.3125 L 2.59375 6.59375 L 2.625 6.90625 L 2.65625 7.1875 L 2.6875 7.5 L 2.6875 7.8125 L 2.6875 8.09375 L 2.6875 8.40625 L 2.6875 8.6875 L 2.65625 9 L 2.625 9.3125 L 2.59375 9.59375 L 2.5625 9.90625 L 2.53125 10.1875 L 2.5 10.5 L 2.5 10.8125 L 2.5 11.09375 L 2.5 11.40625 L 2.5 11.6875 L 2.5 12" fill="none" stroke="#000000" stroke-width="0.03125" stroke-linecap="round" stroke-linejoin="round" opacity="0.78"/>
      <path d="M 2.8125 0 L 2.8125 0.3125 L 2.8125 0.59375 L 2.8125 0.90625 L 2.8125 1.1875 L 2.8125 1.5 L 2.78125 1.8125 L 2.78125 2.09375 L 2.78125 2.40625 L 2.78125 2.6875 L 2.78125 3 L 2.78125 3.3125 L 2.78125 3.59375 L 2.75 3.90625 L 2.75 4.1875 L 2.75 4.5 L 2.78125 4.8125 L 2.78125 5.09375 L 2.8125 5.40625 L 2.8125 5.6875 L 2.875 6 L 2.90625 6.3125 L 2.9375 6.59375 L 3 6.90625 L 3.03125 7.1875 L 3.0625 7.5 L 3.0625 7.8125 L 3.0625 8.09375 L 3.0625 8.40625 L 3.0625 8.6875 L 3.03125 9 L 3 9.3125 L 2.96875 9.59375 L 2.90625 9.90625 L 2.875 10.1875 L 2.84375 10.5 L 2.84375 10.8125 L 2.8125 11.09375 L 2.8125 11.40625 L 2.8125 11.6875 L 2.8125 12" fill="none" stroke="#5a3828" stroke-width="0.03125" stroke-linecap="round" stroke-linejoin="round" opacity="0.48"/>
      <path d="M 0.125 0 L 0.15625 0.4375 L 0.15625 0.84375 L 0.15625 1.28125 L 0.15625 1.71875 L 0.15625 2.15625 L 0.15625 2.5625 L 0.15625 3 L 0.15625 3.4375 L 0.15625 3.84375 L 0.125 4.28125 L 0.125 4.71875 L 0.09375 5.15625 L 0.0625 5.5625 L 0 6 L -0.0625 6.4375 L -0.125 6.84375 L -0.1875 7.28125 L -0.1875 7.71875 L -0.21875 8.15625 L -0.1875 8.5625 L -0.15625 9 L -0.09375 9.4375 L -0.03125 9.84375 L 0.03125 10.28125 L 0.09375 10.71875 L 0.125 11.15625 L 0.125 11.5625 L 0.125 12" fill="none" stroke="#2a1810" stroke-width="0.03125" stroke-linecap="round" stroke-linejoin="round" opacity="0.55"/>
      <path d="M 3 0 L 3 0.4375 L 2.96875 0.84375 L 2.96875 1.28125 L 2.96875 1.71875 L 2.96875 2.15625 L 2.96875 2.5625 L 2.9375 3 L 2.9375 3.4375 L 2.9375 3.84375 L 2.9375 4.28125 L 2.9375 4.71875 L 2.96875 5.15625 L 3 5.5625 L 3.0625 6 L 3.125 6.4375 L 3.1875 6.84375 L 3.21875 7.28125 L 3.25 7.71875 L 3.28125 8.15625 L 3.28125 8.5625 L 3.25 9 L 3.1875 9.4375 L 3.125 9.84375 L 3.0625 10.28125 L 3.03125 10.71875 L 3 11.15625 L 3 11.5625 L 3 12" fill="none" stroke="#3d2418" stroke-width="0.03125" stroke-linecap="round" stroke-linejoin="round" opacity="0.5"/>
      <path d="M 0.28125 12 L 0.28125 12.3125 L 0.28125 12.59375 L 0.28125 12.90625 L 0.25 13.1875 L 0.1875 13.5 L 0.15625 13.8125 L 0.09375 14.09375 L 0.0625 14.40625 L 0.0625 14.6875 L 0.0625 15 L 0.09375 15.3125 L 0.15625 15.59375 L 0.21875 15.90625 L 0.25 16.1875 L 0.28125 16.5 L 0.28125 16.8125 L 0.28125 17.09375 L 0.28125 17.40625 L 0.28125 17.6875 L 0.28125 18 L 0.28125 18.3125 L 0.28125 18.59375 L 0.28125 18.90625 L 0.28125 19.1875 L 0.28125 19.5 L 0.28125 19.8125 L 0.28125 20.09375 L 0.28125 20.40625 L 0.28125 20.6875 L 0.28125 21 L 0.28125 21.3125 L 0.28125 21.59375 L 0.28125 21.90625 L 0.28125 22.1875 L 0.28125 22.5 L 0.28125 22.8125 L 0.28125 23.09375 L 0.28125 23.40625 L 0.28125 23.6875 L 0.28125 24" fill="none" stroke="#5a3828" stroke-width="0.03125" stroke-linecap="round" stroke-linejoin="round" opacity="0.62"/>
      <path d="M 0.59375 12 L 0.59375 12.3125 L 0.59375 12.59375 L 0.5625 12.90625 L 0.53125 13.1875 L 0.5 13.5 L 0.4375 13.8125 L 0.40625 14.09375 L 0.375 14.40625 L 0.34375 14.6875 L 0.34375 15 L 0.375 15.3125 L 0.4375 15.59375 L 0.46875 15.90625 L 0.5 16.1875 L 0.53125 16.5 L 0.53125 16.8125 L 0.53125 17.09375 L 0.53125 17.40625 L 0.5625 17.6875 L 0.5625 18 L 0.5625 18.3125 L 0.5625 18.59375 L 0.5625 18.90625 L 0.5625 19.1875 L 0.5625 19.5 L 0.5625 19.8125 L 0.5625 20.09375 L 0.5625 20.40625 L 0.5625 20.6875 L 0.5625 21 L 0.5625 21.3125 L 0.5625 21.59375 L 0.5625 21.90625 L 0.5625 22.1875 L 0.5625 22.5 L 0.5625 22.8125 L 0.5625 23.09375 L 0.5625 23.40625 L 0.5625 23.6875 L 0.59375 24" fill="none" stroke="#000000" stroke-width="0.03125" stroke-linecap="round" stroke-linejoin="round" opacity="0.85"/>
      <path d="M 0.8125 12 L 0.8125 12.3125 L 0.8125 12.59375 L 0.8125 12.90625 L 0.78125 13.1875 L 0.71875 13.5 L 0.65625 13.8125 L 0.625 14.09375 L 0.59375 14.40625 L 0.59375 14.6875 L 0.59375 15 L 0.625 15.3125 L 0.65625 15.59375 L 0.71875 15.90625 L 0.75 16.1875 L 0.78125 16.5 L 0.78125 16.8125 L 0.78125 17.09375 L 0.8125 17.40625 L 0.8125 17.6875 L 0.8125 18 L 0.8125 18.3125 L 0.8125 18.59375 L 0.8125 18.90625 L 0.8125 19.1875 L 0.8125 19.5 L 0.8125 19.8125 L 0.8125 20.09375 L 0.8125 20.40625 L 0.8125 20.6875 L 0.8125 21 L 0.8125 21.3125 L 0.84375 21.59375 L 0.84375 21.90625 L 0.84375 22.1875 L 0.84375 22.5 L 0.84375 22.8125 L 0.84375 23.09375 L 0.8125 23.40625 L 0.8125 23.6875 L 0.8125 24" fill="none" stroke="#2a1810" stroke-width="0.03125" stroke-linecap="round" stroke-linejoin="round" opacity="0.75"/>
      <path d="M 1.15625 12 L 1.15625 12.3125 L 1.125 12.59375 L 1.125 12.90625 L 1.09375 13.1875 L 1.0625 13.5 L 1 13.8125 L 0.9375 14.09375 L 0.90625 14.40625 L 0.90625 14.6875 L 0.9375 15 L 0.96875 15.3125 L 1 15.59375 L 1.0625 15.90625 L 1.09375 16.1875 L 1.125 16.5 L 1.125 16.8125 L 1.125 17.09375 L 1.09375 17.40625 L 1.09375 17.6875 L 1.09375 18 L 1.09375 18.3125 L 1.09375 18.59375 L 1.09375 18.90625 L 1.125 19.1875 L 1.125 19.5 L 1.125 19.8125 L 1.125 20.09375 L 1.125 20.40625 L 1.125 20.6875 L 1.125 21 L 1.125 21.3125 L 1.125 21.59375 L 1.125 21.90625 L 1.125 22.1875 L 1.125 22.5 L 1.125 22.8125 L 1.125 23.09375 L 1.15625 23.40625 L 1.15625 23.6875 L 1.15625 24" fill="none" stroke="#3d2418" stroke-width="0.03125" stroke-linecap="round" stroke-linejoin="round" opacity="0.7"/>
      <path d="M 1.4375 12 L 1.4375 12.3125 L 1.4375 12.59375 L 1.4375 12.90625 L 1.40625 13.1875 L 1.34375 13.5 L 1.28125 13.8125 L 1.25 14.09375 L 1.21875 14.40625 L 1.1875 14.6875 L 1.21875 15 L 1.21875 15.3125 L 1.28125 15.59375 L 1.34375 15.90625 L 1.375 16.1875 L 1.40625 16.5 L 1.40625 16.8125 L 1.40625 17.09375 L 1.4375 17.40625 L 1.4375 17.6875 L 1.4375 18 L 1.4375 18.3125 L 1.4375 18.59375 L 1.4375 18.90625 L 1.4375 19.1875 L 1.4375 19.5 L 1.4375 19.8125 L 1.4375 20.09375 L 1.4375 20.40625 L 1.4375 20.6875 L 1.4375 21 L 1.4375 21.3125 L 1.4375 21.59375 L 1.4375 21.90625 L 1.4375 22.1875 L 1.4375 22.5 L 1.4375 22.8125 L 1.4375 23.09375 L 1.4375 23.40625 L 1.4375 23.6875 L 1.4375 24" fill="none" stroke="#000000" stroke-width="0.03125" stroke-linecap="round" stroke-linejoin="round" opacity="0.8"/>
      <path d="M 1.8125 12 L 1.8125 12.3125 L 1.8125 12.59375 L 1.78125 12.90625 L 1.75 13.1875 L 1.71875 13.5 L 1.65625 13.8125 L 1.59375 14.09375 L 1.5625 14.40625 L 1.5625 14.6875 L 1.5625 15 L 1.59375 15.3125 L 1.625 15.59375 L 1.6875 15.90625 L 1.71875 16.1875 L 1.75 16.5 L 1.75 16.8125 L 1.75 17.09375 L 1.75 17.40625 L 1.78125 17.6875 L 1.78125 18 L 1.78125 18.3125 L 1.78125 18.59375 L 1.78125 18.90625 L 1.78125 19.1875 L 1.78125 19.5 L 1.78125 19.8125 L 1.78125 20.09375 L 1.78125 20.40625 L 1.78125 20.6875 L 1.78125 21 L 1.78125 21.3125 L 1.78125 21.59375 L 1.78125 21.90625 L 1.78125 22.1875 L 1.78125 22.5 L 1.78125 22.8125 L 1.78125 23.09375 L 1.8125 23.40625 L 1.8125 23.6875 L 1.8125 24" fill="none" stroke="#5a3828" stroke-width="0.03125" stroke-linecap="round" stroke-linejoin="round" opacity="0.5"/>
      <path d="M 2.09375 12 L 2.09375 12.3125 L 2.09375 12.59375 L 2.09375 12.90625 L 2.0625 13.1875 L 2.03125 13.5 L 1.96875 13.8125 L 1.9375 14.09375 L 1.90625 14.40625 L 1.875 14.6875 L 1.90625 15 L 1.9375 15.3125 L 1.96875 15.59375 L 2.03125 15.90625 L 2.0625 16.1875 L 2.09375 16.5 L 2.09375 16.8125 L 2.09375 17.09375 L 2.09375 17.40625 L 2.09375 17.6875 L 2.09375 18 L 2.09375 18.3125 L 2.09375 18.59375 L 2.09375 18.90625 L 2.09375 19.1875 L 2.09375 19.5 L 2.09375 19.8125 L 2.0625 20.09375 L 2.0625 20.40625 L 2.0625 20.6875 L 2.0625 21 L 2.0625 21.3125 L 2.0625 21.59375 L 2.09375 21.90625 L 2.09375 22.1875 L 2.09375 22.5 L 2.09375 22.8125 L 2.09375 23.09375 L 2.09375 23.40625 L 2.09375 23.6875 L 2.09375 24" fill="none" stroke="#2a1810" stroke-width="0.03125" stroke-linecap="round" stroke-linejoin="round" opacity="0.72"/>
      <path d="M 2.4375 12 L 2.4375 12.3125 L 2.40625 12.59375 L 2.40625 12.90625 L 2.375 13.1875 L 2.3125 13.5 L 2.25 13.8125 L 2.21875 14.09375 L 2.1875 14.40625 L 2.15625 14.6875 L 2.1875 15 L 2.21875 15.3125 L 2.25 15.59375 L 2.3125 15.90625 L 2.34375 16.1875 L 2.375 16.5 L 2.375 16.8125 L 2.375 17.09375 L 2.40625 17.40625 L 2.40625 17.6875 L 2.40625 18 L 2.40625 18.3125 L 2.40625 18.59375 L 2.40625 18.90625 L 2.40625 19.1875 L 2.40625 19.5 L 2.40625 19.8125 L 2.40625 20.09375 L 2.40625 20.40625 L 2.40625 20.6875 L 2.40625 21 L 2.40625 21.3125 L 2.40625 21.59375 L 2.40625 21.90625 L 2.40625 22.1875 L 2.40625 22.5 L 2.4375 22.8125 L 2.4375 23.09375 L 2.4375 23.40625 L 2.4375 23.6875 L 2.4375 24" fill="none" stroke="#000000" stroke-width="0.03125" stroke-linecap="round" stroke-linejoin="round" opacity="0.78"/>
      <path d="M 2.78125 12 L 2.78125 12.3125 L 2.78125 12.59375 L 2.8125 12.90625 L 2.84375 13.1875 L 2.875 13.5 L 2.9375 13.8125 L 2.96875 14.09375 L 3 14.40625 L 3 14.6875 L 3 15 L 2.96875 15.3125 L 2.90625 15.59375 L 2.84375 15.90625 L 2.8125 16.1875 L 2.78125 16.5 L 2.78125 16.8125 L 2.78125 17.09375 L 2.78125 17.40625 L 2.78125 17.6875 L 2.78125 18 L 2.78125 18.3125 L 2.78125 18.59375 L 2.78125 18.90625 L 2.78125 19.1875 L 2.78125 19.5 L 2.78125 19.8125 L 2.78125 20.09375 L 2.78125 20.40625 L 2.78125 20.6875 L 2.78125 21 L 2.78125 21.3125 L 2.78125 21.59375 L 2.78125 21.90625 L 2.78125 22.1875 L 2.78125 22.5 L 2.78125 22.8125 L 2.78125 23.09375 L 2.78125 23.40625 L 2.78125 23.6875 L 2.78125 24" fill="none" stroke="#5a3828" stroke-width="0.03125" stroke-linecap="round" stroke-linejoin="round" opacity="0.48"/>
      <path d="M 0.125 12 L 0.125 12.4375 L 0.125 12.84375 L 0.0625 13.28125 L 0 13.71875 L -0.0625 14.15625 L -0.09375 14.5625 L -0.09375 15 L -0.03125 15.4375 L 0.03125 15.84375 L 0.09375 16.28125 L 0.125 16.71875 L 0.125 17.15625 L 0.125 17.5625 L 0.125 18 L 0.125 18.4375 L 0.125 18.84375 L 0.125 19.28125 L 0.125 19.71875 L 0.125 20.15625 L 0.125 20.5625 L 0.125 21 L 0.125 21.4375 L 0.125 21.84375 L 0.125 22.28125 L 0.125 22.71875 L 0.125 23.15625 L 0.125 23.5625 L 0.125 24" fill="none" stroke="#2a1810" stroke-width="0.03125" stroke-linecap="round" stroke-linejoin="round" opacity="0.55"/>
      <path d="M 2.96875 12 L 2.96875 12.4375 L 3 12.84375 L 3.03125 13.28125 L 3.09375 13.71875 L 3.15625 14.15625 L 3.1875 14.5625 L 3.1875 15 L 3.125 15.4375 L 3.0625 15.84375 L 3 16.28125 L 2.96875 16.71875 L 2.96875 17.15625 L 2.96875 17.5625 L 2.96875 18 L 2.96875 18.4375 L 2.96875 18.84375 L 2.96875 19.28125 L 2.96875 19.71875 L 2.96875 20.15625 L 2.96875 20.5625 L 2.96875 21 L 2.96875 21.4375 L 2.96875 21.84375 L 2.96875 22.28125 L 2.96875 22.71875 L 2.96875 23.15625 L 2.96875 23.5625 L 2.96875 24" fill="none" stroke="#3d2418" stroke-width="0.03125" stroke-linecap="round" stroke-linejoin="round" opacity="0.5"/>
    </pattern>
  </defs>
  <g id="sym-post-pt-4x4">
    <g id="shell">
      <rect x="0" y="0" width="3.5" height="72" fill="#000000"/>
    </g>
    <g id="fill" data-slot="post-material">
      <g data-post-material="pt" data-post-pt-style="incised">
        <rect x="0.1875" y="0.1875" width="3.125" height="71.625" fill="#6c4834"/>
        <rect x="0.1875" y="0.1875" width="3.125" height="71.625" fill="url(#pt-grain-post)"/>
      </g>
      <g data-post-material="pt" data-post-pt-style="appearance">
        <rect x="0.1875" y="0.1875" width="3.125" height="71.625" fill="#755038"/>
        <rect x="0.1875" y="0.1875" width="3.125" height="71.625" fill="url(#pt-appearance-post-grain)"/>
      </g>
    </g>
  </g>
</svg>
